<svg xmlns="http://www.w3.org/2000/svg" xmlns:xlink="http://www.w3.org/1999/xlink" viewBox="1584 0 326 389"><defs><style>.a{clip-path:url(#d);}.b{clip-path:url(#a);}.c,.e,.f,.i,.j,.l{fill:none;}.d{clip-path:url(#b);}.e,.f{stroke:#435261;stroke-width:0.25px;}.e,.f,.i,.j,.l{stroke-miterlimit:10;}.f{stroke-dasharray:3.98 3.98;}.g{fill:#435261;font-size:20px;font-family:ArialMT, Arial;}.h{fill:#cbcfd4;}.i,.j,.l{stroke:#1d2938;stroke-linecap:round;stroke-linejoin:round;}.i{stroke-width:0.36px;}.j{stroke-width:0.72px;}.k{fill:#fff;}.l{stroke-width:0.144px;}.m{fill:#1d2938;}</style><clipPath id="a"><rect width="326" height="388.8" transform="translate(-199.3 450.7)"/></clipPath><clipPath id="b"><rect width="326" height="388.8" transform="translate(343.1 450.7)"/></clipPath><clipPath id="d"><rect x="1584" width="326" height="389"/></clipPath></defs><g id="c" class="a"><g transform="translate(1240.9 -450.7)"><g class="b" transform="translate(542.4)"><rect class="c" width="1900.5" height="2937.1"/></g><g class="d"><rect class="e" width="111.6" height="374.1" transform="translate(514.1 76.5)"/><line class="e" y2="2" transform="translate(554.2 76.5)"/><line class="f" y2="364.2" transform="translate(554.2 82.5)"/><line class="e" y2="2" transform="translate(554.2 448.7)"/><path class="e" d="M608.1,309.2H543.6a3.543,3.543,0,0,1-3.5-3.5v-70a3.543,3.543,0,0,1,3.5-3.5h64.5a3.543,3.543,0,0,1,3.5,3.5v70A3.543,3.543,0,0,1,608.1,309.2Z"/><rect class="e" width="5.4" height="85.9" transform="translate(102 1168.9)"/><line class="e" x2="5.9" y2="0.5" transform="translate(101.5 1169.4)"/><line class="e" x2="4.4" y2="0.5" transform="translate(113.3 1170.4)"/><line class="e" x2="1.5" y2="0.5" transform="translate(117.7 1170.9)"/><line class="e" x2="1" transform="translate(124.6 1172.9)"/><line class="e" x2="4.9" y2="1.4" transform="translate(125.6 1172.9)"/><line class="e" x2="4.9" y2="2.5" transform="translate(135.9 1176.3)"/><line class="e" x2="0.5" transform="translate(140.8 1178.8)"/><line class="e" x2="1.4" y2="1" transform="translate(146.2 1181.7)"/><line class="e" x2="3.5" y2="2.4" transform="translate(147.6 1182.7)"/><line class="e" x2="4.4" y2="3.9" transform="translate(156 1188.6)"/><line class="e" x2="1.5" y2="1.5" transform="translate(164.3 1196.4)"/><line class="e" x2="2.5" y2="3" transform="translate(165.8 1197.9)"/><line class="e" x2="2.9" y2="4.9" transform="translate(172.2 1205.3)"/><line class="e" x2="1.5" y2="2.9" transform="translate(178.1 1215.1)"/><line class="e" x2="0.9" y2="2.5" transform="translate(179.6 1218)"/><line class="e" x2="2" y2="5.4" transform="translate(182.5 1226.4)"/><line class="e" x2="0.5" y2="3.4" transform="translate(185.9 1237.7)"/><line class="e" x2="0.5" y2="2.5" transform="translate(186.4 1241.1)"/><line class="e" y2="135" transform="translate(200.2 499.3)"/><line class="e" x1="110.5" transform="translate(89.7 499.3)"/><line class="e" x1="110.5" transform="translate(89.7 532.7)"/><line class="e" x1="110.5" transform="translate(89.7 566.5)"/><line class="e" x1="110.5" transform="translate(89.7 600.4)"/><line class="e" x1="110.5" transform="translate(89.7 634.3)"/><line class="e" x1="83" transform="translate(89.7 667.7)"/><line class="e" x1="55.5" transform="translate(89.7 701.5)"/><line class="e" x1="28" transform="translate(89.7 735.4)"/><line class="e" x1="110.5" y2="135" transform="translate(89.7 634.3)"/><line class="e" y2="82.4" transform="translate(145.2 499.3)"/><path class="e" d="M150.1,581.7l-4.9,18.7-4.9-18.7Z"/><path class="e" d="M150,581.6l-4.9,18.7-4.9-18.7Z"/><path class="e" d="M150.1,581.7l-4.9,18.7-4.9-18.7Z"/><text class="g" transform="translate(131.201 490.429)"><tspan x="0" y="0">UP</tspan></text><rect class="e" width="5.4" height="110.5" transform="translate(381.8 709.4)"/><line class="e" x2="5" y2="0.5" transform="translate(381.3 709.4)"/><line class="e" x2="0.9" transform="translate(386.3 709.9)"/><line class="e" x2="3.5" y2="0.5" transform="translate(393.1 710.4)"/><line class="e" x2="2.4" transform="translate(396.6 710.9)"/><line class="e" x2="2" y2="0.5" transform="translate(404.9 712.3)"/><line class="e" x2="3.9" y2="1" transform="translate(406.9 712.8)"/><line class="e" x2="4.9" y2="2" transform="translate(416.7 715.3)"/><line class="e" x2="0.5" transform="translate(421.6 717.3)"/><line class="e" x2="3.4" y2="2" transform="translate(427.5 719.7)"/><line class="e" x2="2" y2="1" transform="translate(430.9 721.7)"/><line class="e" x2="2" y2="1" transform="translate(438.3 725.6)"/><line class="e" x2="2.9" y2="1.9" transform="translate(440.3 726.6)"/><line class="e" x2="0.5" y2="0.5" transform="translate(448.1 732)"/><line class="e" x2="3.9" y2="3.4" transform="translate(448.6 732.5)"/><line class="e" x2="3.4" y2="3" transform="translate(457 739.8)"/><line class="e" x2="1" y2="1" transform="translate(460.4 742.8)"/><line class="e" x2="2" y2="2.4" transform="translate(465.3 748.2)"/><line class="e" x2="1.4" y2="2" transform="translate(467.3 750.6)"/><line class="e" x2="1" y2="1.5" transform="translate(472.2 757.5)"/><line class="e" x2="2.4" y2="3.4" transform="translate(473.2 759)"/><line class="e" x2="2.4" y2="4.9" transform="translate(478.6 767.8)"/><line class="e" y2="0.5" transform="translate(481 772.7)"/><line class="e" x2="1.4" y2="3.5" transform="translate(483.5 778.6)"/><line class="e" x2="1" y2="1.9" transform="translate(484.9 782.1)"/><line class="e" x2="0.5" y2="2.5" transform="translate(487.9 789.4)"/><line class="e" x2="0.5" y2="3.4" transform="translate(488.4 791.9)"/><line class="e" y2="1" transform="translate(490.3 801.2)"/><line class="e" x2="0.5" y2="4.9" transform="translate(490.3 802.2)"/><rect class="e" width="5.4" height="110.5" transform="translate(481.5 48.6)"/><line class="e" x1="4.9" transform="translate(482 159)"/><line class="e" x1="1" transform="translate(481 159)"/><line class="e" x1="3.4" y1="0.5" transform="translate(471.7 158)"/><line class="e" x1="2.5" y1="0.4" transform="translate(469.2 157.6)"/><line class="e" x1="1.9" y1="0.5" transform="translate(461.4 156.1)"/><line class="e" x1="4" y1="1" transform="translate(457.4 155.1)"/><line class="e" x1="0.4" transform="translate(451.6 153.1)"/><line class="e" x1="5" y1="1.9" transform="translate(446.6 151.2)"/><line class="e" x1="0.4" transform="translate(446.2 151.2)"/><line class="e" x1="3.5" y1="1.5" transform="translate(437.3 147.2)"/><line class="e" x1="1.9" y1="0.9" transform="translate(435.4 146.3)"/><line class="e" x1="2.4" y1="1.5" transform="translate(428 141.8)"/><line class="e" x1="2.5" y1="1.4" transform="translate(425.5 140.4)"/><line class="e" x1="1" y1="0.9" transform="translate(419.6 136)"/><line class="e" x1="3.4" y1="3" transform="translate(416.2 133)"/><line class="e" x1="3.4" y1="3.5" transform="translate(407.9 125.6)"/><line class="e" x1="0.5" y1="0.4" transform="translate(407.4 125.2)"/><line class="e" x1="2.4" y1="2.9" transform="translate(401 117.8)"/><line class="e" x1="1.5" y1="1.5" transform="translate(399.5 116.3)"/><line class="e" x1="1.5" y1="2" transform="translate(395.1 109.4)"/><line class="e" x1="2" y1="2.9" transform="translate(393.1 106.5)"/><line class="e" x1="0.5" y1="1" transform="translate(389.7 100.6)"/><line class="e" x1="2.5" y1="4.4" transform="translate(387.2 96.2)"/><line class="e" x1="2" y1="4.4" transform="translate(383.3 86.4)"/><line class="e" x1="0.5" y1="1" transform="translate(382.8 85.4)"/><line class="e" x1="1" y1="3.5" transform="translate(379.9 76.5)"/><line class="e" x1="0.5" y1="2.4" transform="translate(379.4 74.1)"/><line class="e" x1="0.5" y1="1.5" transform="translate(377.9 66.7)"/><line class="e" x1="0.5" y1="4.4" transform="translate(377.4 62.3)"/><line class="e" x2="116.4" transform="translate(373 48.6)"/><line class="e" x2="116.4" transform="translate(373 43.2)"/><rect class="e" width="73.6" height="184.1" transform="translate(98.6 886.1)"/><rect class="e" width="73.6" height="184.1" transform="translate(98.6 886.1)"/><rect class="h" width="125.7" height="24.5" transform="translate(190.4 1475.8)"/><rect class="i" width="125.7" height="24.5" transform="translate(190.4 1475.8)"/><rect class="i" width="24.5" height="82.5" transform="translate(644.5 1164.5)"/><path class="j" d="M761.2,1141.3a16.172,16.172,0,0,1,9.2,2.9,19.311,19.311,0,0,1,6.7,7.9c1.6,3.3,2.5,5.9,2.5,7.9v91.7c0,1.9-.8,4.5-2.5,7.9a20.692,20.692,0,0,1-6.7,7.9c-2.8,1.9-5.1,2.9-6.7,2.9h-2.5"/><path class="i" d="M761.2,1138.3a18.747,18.747,0,0,1,10.9,3.4,22.838,22.838,0,0,1,7.8,9c1.9,3.8,2.8,6.8,2.8,9.2v91.7c0,2.4-.9,5.5-2.8,9.2a22.839,22.839,0,0,1-7.8,9c-3.4,2.3-6.2,3.4-8.5,3.4h-2.5"/><line class="i" x2="24.6" transform="translate(644.5 1244.1)"/><line class="i" y2="82.5" transform="translate(644.5 1164.5)"/><line class="i" y2="82.5" transform="translate(669.1 1164.5)"/><line class="j" x2="92.3" transform="translate(669.1 1141.4)"/><line class="i" x2="92.3" transform="translate(669.1 1138)"/><line class="j" x2="92.3" transform="translate(669.1 1270.1)"/><line class="i" x2="94.7" transform="translate(669.1 1273)"/><line class="i" x2="24.6" transform="translate(644.5 1167.5)"/><line class="i" y1="82.5" transform="translate(656.8 1164.5)"/><rect class="k" width="3.4" height="33.4" transform="translate(766.8 1189.1)"/><rect class="i" width="3.4" height="33.4" transform="translate(766.8 1189.1)"/><rect class="e" width="58.4" height="104.6" transform="translate(567.9 715.3)"/><rect class="e" width="58.4" height="104.6" transform="translate(567.9 715.3)"/><path class="e" d="M611.1,767.8V786c0,5.2-2.7,9.3-6.1,9.3H580.5c-3.4,0-6.1-4.2-6.1-9.3V749.7c0-5.2,2.7-9.3,6.1-9.3H605c3.4,0,6.1,4.2,6.1,9.3v18.1"/><path class="e" d="M611.1,767.8V786c0,5.2-2.7,9.3-6.1,9.3H580.5c-3.4,0-6.1-4.2-6.1-9.3V749.7c0-5.2,2.7-9.3,6.1-9.3H605c3.4,0,6.1,4.2,6.1,9.3v18.1"/><rect class="e" width="19.6" height="55" transform="translate(604.7 616.6)"/><rect class="e" width="19.6" height="55" transform="translate(604.7 616.6)"/><path class="e" d="M596.4,644.1h0c0-11.9-12.7-21.6-28.5-21.6s-28.5,9.7-28.5,21.6,12.7,21.6,28.5,21.6,28.5-9.7,28.5-21.6h0"/><path class="e" d="M596.4,644.1h0c0-11.9-12.7-21.6-28.5-21.6-15.7,0-28.5,9.7-28.5,21.6s12.7,21.6,28.5,21.6c15.7,0,28.5-9.7,28.5-21.6h0"/><path class="l" d="M529.6,464.9h96.7V573.4H529.6"/><rect class="m" width="364.8" height="24.5" transform="translate(0.4 33.3)"/><rect class="m" width="24.5" height="1417.9" transform="translate(49.5 57.9)"/><rect class="m" width="24.5" height="438.4" transform="translate(644.4 718.1)"/><line class="i" y2="394.7" transform="translate(644.5 769.8)"/><rect class="m" width="24.5" height="222.2" transform="translate(644.4 1254.7)"/><line class="i" y2="220.9" transform="translate(644.5 1254.9)"/><line class="i" x2="116.4" transform="translate(74 1475.8)"/><line class="i" x2="291.1" transform="translate(74 57.9)"/><line class="j" x2="283.3" transform="translate(89.7 76.5)"/><rect class="e" width="251.9" height="204.2" transform="translate(370.5 901.4)"/><rect class="e" width="251.9" height="204.2" transform="translate(370.5 901.4)"/><rect class="e" width="244" height="178.2" transform="translate(374.5 914.1)"/><rect class="e" width="244" height="178.2" transform="translate(374.5 914.1)"/><rect class="e" width="44.7" height="80.5" transform="translate(565 921)"/><rect class="e" width="44.7" height="80.5" transform="translate(565 921)"/><rect class="e" width="44.7" height="80.5" transform="translate(565 1006.4)"/><rect class="e" width="44.7" height="80.5" transform="translate(565 1006.4)"/><line class="j" y2="7.9" transform="translate(356.8 464.9)"/><line class="j" y2="236.7" transform="translate(356.8 583.2)"/><rect class="m" width="353" height="24.5" transform="translate(316 1475.8)"/><rect class="m" width="190" height="24.5" transform="translate(0.4 1475.8)"/><path class="m" d="M644.4,644.5V57.8h24.5V644.5H644.4v0Z"/><rect class="m" width="171.8" height="24.5" transform="translate(497.2 33.3)"/><line class="i" y2="24.6" transform="translate(365.1 33.3)"/><line class="i" y2="1417.9" transform="translate(49.5 57.9)"/><line class="i" y2="24.5" transform="translate(190.4 1475.8)"/><line class="i" y2="586.7" transform="translate(644.5 57.9)"/><line class="i" y2="51.6" transform="translate(644.5 718.2)"/><line class="j" y2="374.2" transform="translate(626.3 76.5)"/><line class="j" y2="108.6" transform="translate(626.3 464.8)"/><line class="j" y2="57" transform="translate(626.3 587.6)"/><line class="e" y2="104.6" transform="translate(626.3 715.3)"/><line class="j" y2="325" transform="translate(626.3 839.5)"/><line class="j" y2="188.5" transform="translate(626.3 1268.6)"/><line class="i" y2="24.6" transform="translate(497.2 33.3)"/><line class="j" y2="611.3" transform="translate(669.1 33.3)"/><line class="j" y2="446.3" transform="translate(669.1 718.2)"/><line class="j" y2="253.3" transform="translate(669.1 1247)"/><line class="i" x2="49.1" transform="translate(0.4 57.9)"/><line class="i" x2="147.3" transform="translate(497.2 57.9)"/><line class="j" x2="372.6" transform="translate(0.4 33.3)"/><line class="j" x2="179.7" transform="translate(489.4 33.3)"/><line class="i" x2="49.1" transform="translate(0.4 1475.8)"/><line class="j" x2="189" transform="translate(89.7 1457.1)"/><line class="j" x2="333.8" transform="translate(292.5 1457.1)"/><line class="j" x2="668.7" transform="translate(0.4 1500.3)"/><line class="j" y2="43.2" transform="translate(373 33.3)"/><line class="j" y2="43.2" transform="translate(489.4 33.3)"/><line class="i" y2="76.6" transform="translate(656.8 1167.5)"/><line class="i" y2="76.6" transform="translate(659.7 1167.5)"/><line class="i" y2="76.6" transform="translate(653.8 1167.5)"/><line class="i" y2="82.5" transform="translate(669.1 1164.5)"/><line class="j" y2="188.5" transform="translate(89.7 1268.6)"/><line class="i" y2="90.4" transform="translate(626.3 1164.5)"/><line class="j" y2="22.1" transform="translate(343.1 450.7)"/><line class="j" y2="242.6" transform="translate(343.1 583.2)"/><line class="j" x2="42.8" transform="translate(626.3 1164.5)"/><line class="l" x2="16.7" transform="translate(627.8 1162.6)"/><line class="j" x2="13.7" transform="translate(343.1 472.8)"/><line class="i" y2="24.5" transform="translate(316 1475.8)"/><line class="j" x2="54.9" transform="translate(326.9 839.5)"/><line class="j" x2="134" transform="translate(492.3 839.5)"/><line class="j" x2="12.3" transform="translate(89.7 1268.6)"/><line class="j" x2="90.8" transform="translate(187.9 1268.6)"/><line class="j" x2="81.5" transform="translate(292.5 1268.6)"/><line class="j" x2="116.3" transform="translate(510 1268.6)"/><line class="j" x2="12.3" transform="translate(89.7 1254.9)"/><line class="j" x2="186.1" transform="translate(187.9 1254.9)"/><line class="j" x2="134.5" transform="translate(510 1254.9)"/><line class="j" x2="25" transform="translate(356.8 819.9)"/><line class="j" x2="134" transform="translate(492.3 819.9)"/><line class="j" y2="19.6" transform="translate(492.3 819.9)"/><line class="j" y2="19.6" transform="translate(381.8 819.9)"/><line class="j" y1="13.7" transform="translate(374 1254.9)"/><line class="e" y1="108.5" transform="translate(529.6 464.9)"/><line class="j" y1="14.2" transform="translate(517.3 573.4)"/><line class="j" x2="109" transform="translate(517.3 587.6)"/><line class="e" y2="108.6" transform="translate(517.3 464.8)"/><line class="e" x1="96.7" y1="108.5" transform="translate(529.6 464.9)"/><line class="j" x2="283.2" transform="translate(343.1 450.7)"/><line class="j" x2="269.5" transform="translate(356.8 464.9)"/><line class="j" y2="108.5" transform="translate(626.3 464.9)"/><rect class="e" width="110.5" height="5.4" transform="translate(356.8 472.8)"/><line class="e" y2="4.9" transform="translate(466.8 472.3)"/><line class="e" y2="1" transform="translate(466.8 477.2)"/><line class="e" x1="0.5" y2="3.5" transform="translate(465.8 484)"/><line class="e" x1="0.5" y2="2.4" transform="translate(465.3 487.5)"/><line class="e" x1="0.5" y2="2" transform="translate(463.8 495.8)"/><line class="e" x1="1" y2="3.9" transform="translate(462.8 497.8)"/><line class="e" y2="0.5" transform="translate(460.9 507.1)"/><line class="e" x1="1.5" y2="4.9" transform="translate(459.4 507.6)"/><line class="e" y2="0.5" transform="translate(459.4 512.5)"/><line class="e" x1="2" y2="3.5" transform="translate(455 518.4)"/><line class="e" x1="1" y2="1.9" transform="translate(454 521.9)"/><line class="e" x1="1" y2="2" transform="translate(450.1 529.2)"/><line class="e" x1="2" y2="2.9" transform="translate(448.1 531.2)"/><line class="e" x1="0.5" y2="0.5" transform="translate(444.2 539)"/><line class="e" x1="3.4" y2="4" transform="translate(440.8 539.5)"/><line class="e" x1="2.9" y2="3.4" transform="translate(433.9 547.9)"/><line class="e" x1="1" y2="1" transform="translate(432.9 551.3)"/><line class="e" x1="2.5" y2="2" transform="translate(426 556.2)"/><line class="e" x1="2.4" y2="1.5" transform="translate(423.6 558.2)"/><line class="e" x1="1" y2="1" transform="translate(417.7 563.1)"/><line class="e" x1="3.9" y2="2.4" transform="translate(413.8 564.1)"/><line class="e" x1="4.5" y2="2.4" transform="translate(403.9 569.5)"/><line class="e" x1="0.9" y2="0.5" transform="translate(403 571.9)"/><line class="e" x1="2.9" y2="1" transform="translate(394.6 574.9)"/><line class="e" x1="2.5" y2="0.9" transform="translate(392.1 575.9)"/><line class="e" x1="1.9" y2="0.5" transform="translate(384.8 578.8)"/><line class="e" x1="3.9" y2="0.5" transform="translate(380.9 579.3)"/><line class="e" x1="0.5" transform="translate(374.5 581.3)"/><line class="e" x1="4.9" y2="0.4" transform="translate(369.6 581.3)"/><line class="e" x1="0.5" transform="translate(369.1 581.7)"/><line class="j" x2="13.7" transform="translate(343.1 583.2)"/><line class="j" x2="109" transform="translate(517.3 573.4)"/><line class="e" x2="73.6" transform="translate(98.6 978)"/><line class="j" x2="136.9" transform="translate(489.4 76.5)"/><line class="j" y2="787.1" transform="translate(89.7 76.5)"/><line class="j" y2="377.6" transform="translate(89.7 877.3)"/><line class="e" x1="121.3" transform="translate(221.8 873.4)"/><line class="e" x1="16.2" transform="translate(200.2 873.4)"/><line class="e" y2="15.7" transform="translate(277.8 839.5)"/><path class="e" d="M282.7,855.2l-4.9,18.2-5-18.2Z"/><path class="e" d="M282.5,855.1l-4.9,18.2-4.9-18.2Z"/><path class="e" d="M282.7,855.2l-4.9,18.2-5-18.2Z"/><line class="i" y2="1417.9" transform="translate(74 57.9)"/><line class="i" x2="570.5" transform="translate(74 1475.8)"/><line class="i" x1="24.6" transform="translate(644.5 1254.9)"/><line class="i" x1="24.6" transform="translate(644.5 1156.7)"/><line class="j" y2="7.9" transform="translate(644.5 1247)"/><line class="j" x2="21.6" transform="translate(626.3 718.2)"/><line class="j" x2="5.4" transform="translate(663.7 718.2)"/><line class="j" x2="21.6" transform="translate(626.3 644.6)"/><line class="j" x2="5.4" transform="translate(663.7 644.6)"/><line class="e" y2="73.6" transform="translate(626.3 644.6)"/><line class="e" y2="73.6" transform="translate(669.1 644.6)"/><line class="e" y2="73.6" transform="translate(647.9 644.6)"/><line class="e" y2="73.6" transform="translate(663.7 644.6)"/><line class="l" x2="15.8" transform="translate(647.9 718.2)"/><line class="l" x1="15.8" transform="translate(647.9 644.6)"/><line class="e" x1="15.8" transform="translate(647.9 662.8)"/><line class="e" x1="15.8" transform="translate(647.9 681.4)"/><line class="e" x1="15.8" transform="translate(647.9 699.6)"/><rect class="e" width="147.3" height="5.4" transform="translate(368.6 1248.5)"/><line class="j" y1="13.7" transform="translate(510 1254.9)"/><line class="e" x2="74.7" transform="translate(397.5 1240.6)"/><path class="e" d="M472.2,1235.7l18.6,4.9-18.6,4.9Z"/><path class="e" d="M472.1,1235.6l18.6,4.9-18.6,4.9Z"/><path class="e" d="M472.2,1235.7l18.6,4.9-18.6,4.9Z"/><line class="j" y1="188.5" transform="translate(292.5 1268.6)"/><line class="j" y1="188.5" transform="translate(278.7 1268.6)"/><line class="j" y2="67.2" transform="translate(200.2 634.3)"/><line class="j" y2="32" transform="translate(200.2 793.8)"/><line class="j" y2="37.8" transform="translate(200.2 839.5)"/><line class="j" y2="50.5" transform="translate(186.4 651)"/><line class="j" y2="69.8" transform="translate(186.4 793.8)"/><line class="j" x2="96.7" transform="translate(89.7 863.6)"/><line class="j" x2="110.5" transform="translate(89.7 877.3)"/><line class="j" x1="13.8" transform="translate(186.4 701.5)"/><line class="j" x1="13.8" transform="translate(186.4 793.8)"/><rect class="e" width="92.3" height="5.4" transform="translate(200.2 701.5)"/><line class="e" x1="0.5" y2="5.8" transform="translate(291.5 701.1)"/><line class="e" x1="0.5" y2="5.4" transform="translate(290.5 712.8)"/><line class="e" y2="0.5" transform="translate(290.5 718.2)"/><line class="e" x1="0.4" y2="2" transform="translate(288.6 724.6)"/><line class="e" x1="1.5" y2="3.4" transform="translate(287.1 726.6)"/><line class="e" x1="1.9" y2="5.4" transform="translate(283.2 735.4)"/><line class="e" x1="2.4" y2="4.5" transform="translate(277.8 745.7)"/><line class="e" x1="0.5" y2="0.4" transform="translate(277.3 750.2)"/><line class="e" x1="1" y2="1.9" transform="translate(272.8 755.6)"/><line class="e" x1="2.4" y2="3" transform="translate(270.4 757.5)"/><line class="e" x1="4.5" y2="3.9" transform="translate(262 764.9)"/><line class="e" x1="2.9" y2="3" transform="translate(254.7 772.7)"/><line class="e" x1="1.5" y2="1" transform="translate(253.2 775.7)"/><line class="e" x1="1" y2="0.5" transform="translate(247.3 779.6)"/><line class="e" x1="4.4" y2="2.5" transform="translate(242.9 780.1)"/><line class="e" x1="5.4" y2="2.5" transform="translate(232.1 785)"/><line class="e" x1="3.4" y2="1" transform="translate(223.3 789.4)"/><line class="e" x1="2.5" y2="0.5" transform="translate(220.8 790.4)"/><line class="e" x1="0.5" transform="translate(214.9 791.9)"/><line class="e" x1="5.4" y2="0.5" transform="translate(209.5 791.9)"/><line class="j" y2="13.7" transform="translate(102 1254.9)"/><line class="j" y2="13.7" transform="translate(187.9 1254.9)"/><line class="e" y1="108.5" x2="96.7" transform="translate(529.6 464.9)"/><line class="e" x1="110.5" transform="translate(216.4 839.5)"/><line class="e" y2="33.9" transform="translate(343.1 839.5)"/><rect class="e" width="5.4" height="110.5" transform="translate(216.4 839.5)"/><line class="e" x1="0.5" y2="5.4" transform="translate(325.9 846.9)"/><line class="e" y2="0.5" transform="translate(325.9 852.3)"/><line class="e" x1="1" y2="3.9" transform="translate(323.9 858.7)"/><line class="e" x1="0.5" y2="1.9" transform="translate(323.4 862.6)"/><line class="e" x1="0.4" y2="2" transform="translate(321.5 870.4)"/><line class="e" x1="1" y2="3.9" transform="translate(320.5 872.4)"/><line class="e" y2="0.5" transform="translate(318 881.7)"/><line class="e" x1="2.4" y2="4.4" transform="translate(315.6 882.2)"/><line class="e" y2="0.5" transform="translate(315.6 886.6)"/><line class="e" x1="2" y2="3.5" transform="translate(311.1 892.5)"/><line class="e" x1="0.9" y2="1.4" transform="translate(310.2 896)"/><line class="e" x1="1.5" y2="2.5" transform="translate(305.2 902.3)"/><line class="e" x1="1.9" y2="2.5" transform="translate(303.3 904.8)"/><line class="e" x1="0.5" y2="1" transform="translate(298.9 911.7)"/><line class="e" x1="3.5" y2="3.4" transform="translate(295.4 912.7)"/><line class="e" x1="3.4" y2="3.5" transform="translate(287.6 920)"/><line class="e" x1="1" y2="0.5" transform="translate(286.6 923.5)"/><line class="e" x1="3" y2="1.9" transform="translate(279.2 927.9)"/><line class="e" x1="1.9" y2="1.5" transform="translate(277.3 929.8)"/><line class="e" x1="2" y2="0.9" transform="translate(270.4 934.3)"/><line class="e" x1="3.4" y2="2" transform="translate(267 935.2)"/><line class="e" x1="0.5" y2="0.5" transform="translate(261.1 939.7)"/><line class="e" x1="4.5" y2="1.9" transform="translate(256.6 940.2)"/><line class="e" x1="0.4" transform="translate(256.2 942.1)"/><line class="e" x1="4" y2="1" transform="translate(246.8 944.6)"/><line class="e" x1="1.9" y2="0.4" transform="translate(244.9 945.6)"/><line class="e" x1="2.5" y2="1" transform="translate(236.5 947)"/><line class="e" x1="3.4" y2="0.5" transform="translate(233.1 948)"/><line class="e" x1="1" transform="translate(226.2 949.5)"/><line class="e" x1="4.9" transform="translate(221.3 949.5)"/><line class="l" y1="13.7" transform="translate(216.4 825.8)"/><line class="j" x2="16.2" transform="translate(200.2 825.8)"/><line class="j" x2="16.2" transform="translate(200.2 839.5)"/><line class="j" y1="13.7" transform="translate(326.9 825.8)"/><line class="j" x1="16.2" transform="translate(326.9 825.8)"/><rect class="e" width="254.3" height="118" transform="translate(104.2 87.3)"/><rect class="e" width="254.3" height="30.7" transform="translate(104.2 87.9)"/><path class="e" d="M611,443.9H530.1a.472.472,0,0,1-.5-.5V356.2a.472.472,0,0,1,.5-.5H611a.472.472,0,0,1,.5.5v87.2C611.6,443.6,611.3,443.9,611,443.9Z"/><line class="e" y2="88.3" transform="translate(539.4 355.6)"/></g></g></g></svg>