<svg xmlns="http://www.w3.org/2000/svg" xmlns:xlink="http://www.w3.org/1999/xlink" viewBox="1980 0 326 304"><defs><style>.a{clip-path:url(#n);}.b{clip-path:url(#a);}.c,.f,.g,.j,.k,.m{fill:none;}.d{clip-path:url(#e);}.e{clip-path:url(#k);}.f,.g{stroke:#435261;stroke-width:0.25px;}.f,.g,.j,.k,.m{stroke-miterlimit:10;}.g{stroke-dasharray:3.96 3.96;}.h{fill:#435261;font-size:9px;font-family:ArialMT, Arial;}.i{fill:#cbcfd4;}.j,.k,.m{stroke:#1d2938;stroke-linecap:round;stroke-linejoin:round;}.j{stroke-width:0.36px;}.k{stroke-width:0.72px;}.l{fill:#fff;}.m{stroke-width:0.144px;}.n{fill:#1d2938;}</style><clipPath id="a"><rect width="326" height="303.6" transform="translate(775.2 364.5)"/></clipPath><clipPath id="e"><rect width="326" height="303.6" transform="translate(-219.2 364.5)"/></clipPath><clipPath id="k"><rect width="326" height="303.6" transform="translate(-91.2 364.5)"/></clipPath><clipPath id="n"><rect x="1980" width="326" height="304"/></clipPath></defs><g id="m" class="a"><g transform="translate(1204.8 -364.5)"><g class="b"><rect class="c" width="845" height="1306"/></g><g class="b"><rect class="c" width="845" height="1306"/></g><g class="b"><rect class="c" width="845" height="1306"/></g><g class="b"><rect class="c" width="845" height="1306"/></g><g class="d" transform="translate(994.4)"><rect class="c" width="845" height="1306"/></g><g class="b"><rect class="c" width="845" height="1306"/></g><g class="b"><rect class="c" width="845" height="1306"/></g><g class="b"><rect class="c" width="845" height="1306"/></g><g class="b"><rect class="c" width="845" height="1306"/></g><g class="b"><rect class="c" width="845" height="1306"/></g><g class="e" transform="translate(866.4)"><rect class="c" width="845" height="1306"/></g><g class="b"><rect class="f" width="49.6" height="166.3" transform="translate(981.9 34)"/><line class="f" y2="2" transform="translate(999.7 34)"/><line class="g" y2="156.4" transform="translate(999.7 40)"/><line class="f" y2="2" transform="translate(999.7 198.4)"/><path class="f" d="M1021.7,137.5H996.9a3.543,3.543,0,0,1-3.5-3.5V106.8a3.543,3.543,0,0,1,3.5-3.5h24.8a3.543,3.543,0,0,1,3.5,3.5V134A3.543,3.543,0,0,1,1021.7,137.5Z"/><rect class="f" width="2.4" height="38.2" transform="translate(798.6 519.8)"/><line class="f" x2="2.6" y2="0.2" transform="translate(798.4 520)"/><line class="f" x2="2" y2="0.2" transform="translate(803.6 520.4)"/><line class="f" x2="0.6" y2="0.3" transform="translate(805.6 520.6)"/><line class="f" x2="0.5" transform="translate(808.6 521.5)"/><line class="f" x2="2.2" y2="0.7" transform="translate(809.1 521.5)"/><line class="f" x2="2.1" y2="1.1" transform="translate(813.7 523)"/><line class="f" x2="0.3" transform="translate(815.8 524.1)"/><line class="f" x2="0.7" y2="0.5" transform="translate(818.2 525.4)"/><line class="f" x2="1.5" y2="1.1" transform="translate(818.9 525.9)"/><line class="f" x2="2" y2="1.7" transform="translate(822.6 528.5)"/><line class="f" x2="0.7" y2="0.6" transform="translate(826.3 532)"/><line class="f" x2="1.1" y2="1.3" transform="translate(827 532.6)"/><line class="f" x2="1.3" y2="2.2" transform="translate(829.8 535.9)"/><line class="f" x2="0.7" y2="1.3" transform="translate(832.4 540.3)"/><line class="f" x2="0.4" y2="1.1" transform="translate(833.1 541.6)"/><line class="f" x2="0.9" y2="2.4" transform="translate(834.4 545.3)"/><line class="f" x2="0.2" y2="1.6" transform="translate(835.9 550.3)"/><line class="f" x2="0.3" y2="1" transform="translate(836.1 551.9)"/><line class="f" y2="60" transform="translate(842.3 222)"/><line class="f" x1="49.2" transform="translate(793.1 222)"/><line class="f" x1="49.2" transform="translate(793.1 236.8)"/><line class="f" x1="49.2" transform="translate(793.1 251.9)"/><line class="f" x1="49.2" transform="translate(793.1 267)"/><line class="f" x1="49.2" transform="translate(793.1 282)"/><line class="f" x1="36.9" transform="translate(793.1 296.9)"/><line class="f" x1="24.7" transform="translate(793.1 311.9)"/><line class="f" x1="12.5" transform="translate(793.1 327)"/><line class="f" x1="49.2" y2="60.1" transform="translate(793.1 282)"/><line class="f" y2="36.7" transform="translate(817.8 222)"/><path class="f" d="M820,258.7l-2.2,8.3-2.2-8.3Z"/><path class="f" d="M819.9,258.6l-2.1,8.3-2.2-8.3Z"/><path class="f" d="M820,258.7l-2.2,8.3-2.2-8.3Z"/><text class="h" transform="translate(811.586 218.064)"><tspan x="0" y="0">UP</tspan></text><rect class="f" width="2.4" height="49.1" transform="translate(923 315.4)"/><line class="f" x2="2.2" y2="0.2" transform="translate(922.8 315.4)"/><line class="f" x2="0.4" transform="translate(925 315.6)"/><line class="f" x2="1.5" y2="0.2" transform="translate(928.1 315.9)"/><line class="f" x2="1.1" transform="translate(929.6 316.1)"/><line class="f" x2="0.9" y2="0.3" transform="translate(933.3 316.7)"/><line class="f" x2="1.7" y2="0.4" transform="translate(934.2 317)"/><line class="f" x2="2.2" y2="0.9" transform="translate(938.5 318)"/><line class="f" x2="0.2" transform="translate(940.7 318.9)"/><line class="f" x2="1.6" y2="0.9" transform="translate(943.3 320)"/><line class="f" x2="0.8" y2="0.4" transform="translate(944.9 320.9)"/><line class="f" x2="0.9" y2="0.5" transform="translate(948.1 322.6)"/><line class="f" x2="1.3" y2="0.8" transform="translate(949 323.1)"/><line class="f" x2="0.2" y2="0.2" transform="translate(952.5 325.5)"/><line class="f" x2="1.8" y2="1.5" transform="translate(952.7 325.7)"/><line class="f" x2="1.6" y2="1.3" transform="translate(956.4 329)"/><line class="f" x2="0.4" y2="0.4" transform="translate(958 330.3)"/><line class="f" x2="0.9" y2="1.1" transform="translate(960.1 332.7)"/><line class="f" x2="0.7" y2="0.8" transform="translate(961 333.8)"/><line class="f" x2="0.4" y2="0.7" transform="translate(963.2 336.8)"/><line class="f" x2="1.1" y2="1.5" transform="translate(963.6 337.5)"/><line class="f" x2="1.1" y2="2.2" transform="translate(966 341.4)"/><line class="f" y2="0.2" transform="translate(967.1 343.6)"/><line class="f" x2="0.7" y2="1.5" transform="translate(968.2 346.2)"/><line class="f" x2="0.4" y2="0.9" transform="translate(968.9 347.7)"/><line class="f" x2="0.2" y2="1.1" transform="translate(970.2 351)"/><line class="f" x2="0.2" y2="1.5" transform="translate(970.4 352.1)"/><line class="f" y2="0.4" transform="translate(971.3 356.3)"/><line class="f" x2="0.2" y2="2.2" transform="translate(971.3 356.7)"/><rect class="f" width="2.4" height="49.1" transform="translate(967.3 21.6)"/><line class="f" x1="2.1" transform="translate(967.6 70.7)"/><line class="f" x1="0.5" transform="translate(967.1 70.7)"/><line class="f" x1="1.5" y1="0.2" transform="translate(963 70.3)"/><line class="f" x1="1.1" y1="0.2" transform="translate(961.9 70.1)"/><line class="f" x1="0.9" y1="0.2" transform="translate(958.4 69.4)"/><line class="f" x1="1.8" y1="0.4" transform="translate(956.6 69)"/><line class="f" x1="0.2" transform="translate(954 68.1)"/><line class="f" x1="2.2" y1="0.9" transform="translate(951.8 67.2)"/><line class="f" x1="0.2" transform="translate(951.6 67.2)"/><line class="f" x1="1.5" y1="0.6" transform="translate(947.7 65.5)"/><line class="f" x1="0.9" y1="0.5" transform="translate(946.8 65)"/><line class="f" x1="1" y1="0.6" transform="translate(943.6 63.1)"/><line class="f" x1="1.1" y1="0.7" transform="translate(942.5 62.4)"/><line class="f" x1="0.5" y1="0.4" transform="translate(939.8 60.5)"/><line class="f" x1="1.5" y1="1.4" transform="translate(938.3 59.1)"/><line class="f" x1="1.5" y1="1.5" transform="translate(934.6 55.9)"/><line class="f" x1="0.2" y1="0.3" transform="translate(934.4 55.6)"/><line class="f" x1="1.1" y1="1.3" transform="translate(931.5 52.4)"/><line class="f" x1="0.6" y1="0.7" transform="translate(930.9 51.7)"/><line class="f" x1="0.7" y1="0.8" transform="translate(928.9 48.7)"/><line class="f" x1="0.8" y1="1.3" transform="translate(928.1 47.4)"/><line class="f" x1="0.2" y1="0.5" transform="translate(926.5 44.7)"/><line class="f" x1="1.1" y1="1.9" transform="translate(925.4 42.8)"/><line class="f" x1="0.9" y1="2" transform="translate(923.7 38.4)"/><line class="f" x1="0.2" y1="0.4" transform="translate(923.5 38)"/><line class="f" x1="0.4" y1="1.6" transform="translate(922.2 34)"/><line class="f" x1="0.3" y1="1.1" transform="translate(921.9 32.9)"/><line class="f" x1="0.2" y1="0.6" transform="translate(921.3 29.7)"/><line class="f" x1="0.2" y1="2" transform="translate(921.1 27.7)"/><line class="f" x2="51.7" transform="translate(919.1 21.6)"/><line class="f" x2="51.7" transform="translate(919.1 19.2)"/><rect class="f" width="32.7" height="81.9" transform="translate(797.1 394)"/><rect class="f" width="32.7" height="81.9" transform="translate(797.1 394)"/><rect class="i" width="55.9" height="10.9" transform="translate(837.9 656.2)"/><rect class="j" width="55.9" height="10.9" transform="translate(837.9 656.2)"/><rect class="j" width="10.9" height="36.7" transform="translate(1039.8 517.8)"/><path class="k" d="M1091.7,507.5a6.886,6.886,0,0,1,4.1,1.3,8.529,8.529,0,0,1,3,3.5,9.058,9.058,0,0,1,1.1,3.5v40.8a9.058,9.058,0,0,1-1.1,3.5,8.53,8.53,0,0,1-3,3.5,5.924,5.924,0,0,1-3,1.3h-1.1"/><path class="j" d="M1091.7,506.1a8.815,8.815,0,0,1,4.9,1.5,10.487,10.487,0,0,1,3.5,4,10.067,10.067,0,0,1,1.2,4.1v40.8a10.069,10.069,0,0,1-1.2,4.1,9.718,9.718,0,0,1-3.5,4,7.124,7.124,0,0,1-3.8,1.5h-1.1"/><line class="j" x2="10.9" transform="translate(1039.8 553.2)"/><line class="j" y2="36.7" transform="translate(1039.8 517.8)"/><line class="j" y2="36.7" transform="translate(1050.7 517.8)"/><line class="k" x2="41.1" transform="translate(1050.7 507.5)"/><line class="j" x2="41.1" transform="translate(1050.7 506)"/><line class="k" x2="41.1" transform="translate(1050.7 564.7)"/><line class="j" x2="42.2" transform="translate(1050.7 566)"/><line class="j" x2="10.9" transform="translate(1039.8 519.1)"/><line class="j" y1="36.7" transform="translate(1045.3 517.8)"/><rect class="l" width="1.5" height="14.8" transform="translate(1094.2 528.7)"/><rect class="j" width="1.5" height="14.8" transform="translate(1094.2 528.7)"/><rect class="f" width="26" height="46.5" transform="translate(1005.8 318)"/><rect class="f" width="26" height="46.5" transform="translate(1005.8 318)"/><path class="f" d="M1025,341.4v8.1c0,2.3-1.2,4.1-2.7,4.1h-10.9c-1.5,0-2.7-1.9-2.7-4.1V333.3c0-2.3,1.2-4.1,2.7-4.1h10.9c1.5,0,2.7,1.9,2.7,4.1v8.1"/><path class="f" d="M1025,341.4v8.1c0,2.3-1.2,4.1-2.7,4.1h-10.9c-1.5,0-2.7-1.9-2.7-4.1V333.3c0-2.3,1.2-4.1,2.7-4.1h10.9c1.5,0,2.7,1.9,2.7,4.1v8.1"/><rect class="f" width="8.7" height="24.4" transform="translate(1022.1 274.2)"/><rect class="f" width="8.7" height="24.4" transform="translate(1022.1 274.2)"/><path class="f" d="M1018.4,286.4h0c0-5.3-5.7-9.6-12.7-9.6s-12.7,4.3-12.7,9.6,5.7,9.6,12.7,9.6c7.1,0,12.7-4.3,12.7-9.6h0"/><path class="f" d="M1018.4,286.4h0c0-5.3-5.7-9.6-12.7-9.6s-12.7,4.3-12.7,9.6,5.7,9.6,12.7,9.6c7.1,0,12.7-4.3,12.7-9.6h0"/><path class="m" d="M988.7,206.7h43V255h-43"/><rect class="n" width="162.2" height="10.9" transform="translate(753.4 14.8)"/><rect class="n" width="10.9" height="630.5" transform="translate(775.2 25.7)"/><rect class="n" width="10.9" height="194.9" transform="translate(1039.8 319.3)"/><line class="j" y2="175.5" transform="translate(1039.8 342.3)"/><rect class="n" width="10.9" height="98.8" transform="translate(1039.8 557.9)"/><line class="j" y2="98.2" transform="translate(1039.8 558)"/><line class="j" x2="51.7" transform="translate(786.2 656.2)"/><line class="j" x2="129.4" transform="translate(786.2 25.7)"/><line class="k" x2="126" transform="translate(793.1 34)"/><rect class="f" width="112" height="90.8" transform="translate(918 400.8)"/><rect class="f" width="112" height="90.8" transform="translate(918 400.8)"/><rect class="f" width="108.5" height="79.2" transform="translate(919.8 406.5)"/><rect class="f" width="108.5" height="79.2" transform="translate(919.8 406.5)"/><rect class="f" width="19.9" height="35.8" transform="translate(1004.5 409.5)"/><rect class="f" width="19.9" height="35.8" transform="translate(1004.5 409.5)"/><rect class="f" width="19.9" height="35.8" transform="translate(1004.5 447.5)"/><rect class="f" width="19.9" height="35.8" transform="translate(1004.5 447.5)"/><line class="k" y2="3.5" transform="translate(911.9 206.7)"/><line class="k" y2="105.2" transform="translate(911.9 259.3)"/><rect class="n" width="157" height="10.9" transform="translate(893.8 656.2)"/><rect class="n" width="84.5" height="10.9" transform="translate(753.4 656.2)"/><path class="n" d="M1039.8,286.6V25.7h10.9V286.6h-10.9v0Z"/><rect class="n" width="76.4" height="10.9" transform="translate(974.3 14.8)"/><line class="j" y2="10.9" transform="translate(915.6 14.8)"/><line class="j" y2="630.5" transform="translate(775.2 25.7)"/><line class="j" y2="10.9" transform="translate(837.9 656.2)"/><line class="j" y2="260.9" transform="translate(1039.8 25.7)"/><line class="j" y2="22.9" transform="translate(1039.8 319.4)"/><line class="k" y2="166.4" transform="translate(1031.7 34)"/><line class="k" y2="48.3" transform="translate(1031.7 206.7)"/><line class="k" y2="25.3" transform="translate(1031.7 261.3)"/><line class="f" y2="46.5" transform="translate(1031.7 318)"/><line class="k" y2="144.5" transform="translate(1031.7 373.3)"/><line class="k" y2="83.8" transform="translate(1031.7 564.1)"/><line class="j" y2="10.9" transform="translate(974.3 14.8)"/><line class="k" y2="271.8" transform="translate(1050.7 14.8)"/><line class="k" y2="198.4" transform="translate(1050.7 319.4)"/><line class="k" y2="112.6" transform="translate(1050.7 554.5)"/><line class="j" x2="21.8" transform="translate(753.4 25.7)"/><line class="j" x2="65.5" transform="translate(974.3 25.7)"/><line class="k" x2="165.7" transform="translate(753.4 14.8)"/><line class="k" x2="79.9" transform="translate(970.8 14.8)"/><line class="j" x2="21.8" transform="translate(753.4 656.2)"/><line class="k" x2="84.1" transform="translate(793.1 647.9)"/><line class="k" x2="148.4" transform="translate(883.3 647.9)"/><line class="k" x2="297.3" transform="translate(753.4 667.1)"/><line class="k" y2="19.2" transform="translate(919.1 14.8)"/><line class="k" y2="19.2" transform="translate(970.8 14.8)"/><line class="j" y2="34.1" transform="translate(1045.3 519.1)"/><line class="j" y2="34.1" transform="translate(1046.6 519.1)"/><line class="j" y2="34.1" transform="translate(1044 519.1)"/><line class="j" y2="36.7" transform="translate(1050.7 517.8)"/><line class="k" y2="83.8" transform="translate(793.1 564.1)"/><line class="j" y2="40.2" transform="translate(1031.7 517.8)"/><line class="k" y2="9.8" transform="translate(905.8 200.4)"/><line class="k" y2="107.9" transform="translate(905.8 259.3)"/><line class="k" x2="19" transform="translate(1031.7 517.8)"/><line class="m" x2="7.4" transform="translate(1032.4 516.9)"/><line class="k" x2="6.1" transform="translate(905.8 210.2)"/><line class="j" y2="10.9" transform="translate(893.8 656.2)"/><line class="k" x2="24.4" transform="translate(898.6 373.3)"/><line class="k" x2="59.6" transform="translate(972.1 373.3)"/><line class="k" x2="5.5" transform="translate(793.1 564.1)"/><line class="k" x2="40.4" transform="translate(836.8 564.1)"/><line class="k" x2="36.2" transform="translate(883.3 564.1)"/><line class="k" x2="51.7" transform="translate(980 564.1)"/><line class="k" x2="5.5" transform="translate(793.1 558)"/><line class="k" x2="82.7" transform="translate(836.8 558)"/><line class="k" x2="59.8" transform="translate(980 558)"/><line class="k" x2="11.1" transform="translate(911.9 364.5)"/><line class="k" x2="59.6" transform="translate(972.1 364.5)"/><line class="k" y2="8.8" transform="translate(972.1 364.5)"/><line class="k" y2="8.8" transform="translate(923 364.5)"/><line class="k" y1="6.1" transform="translate(919.5 558)"/><line class="f" y1="48.3" transform="translate(988.7 206.7)"/><line class="k" y1="6.3" transform="translate(983.3 255)"/><line class="k" x2="48.4" transform="translate(983.3 261.3)"/><line class="f" y2="48.3" transform="translate(983.3 206.7)"/><line class="f" x1="43" y1="48.3" transform="translate(988.7 206.7)"/><line class="k" x2="125.9" transform="translate(905.8 200.4)"/><line class="k" x2="119.8" transform="translate(911.9 206.7)"/><line class="k" y2="48.3" transform="translate(1031.7 206.7)"/><rect class="f" width="49.1" height="2.4" transform="translate(911.9 210.2)"/><line class="f" y2="2.2" transform="translate(960.8 210)"/><line class="f" y2="0.4" transform="translate(960.8 212.2)"/><line class="f" x1="0.2" y2="1.6" transform="translate(960.4 215.2)"/><line class="f" x1="0.3" y2="1" transform="translate(960.1 216.8)"/><line class="f" x1="0.2" y2="0.8" transform="translate(959.5 220.5)"/><line class="f" x1="0.5" y2="1.8" transform="translate(959 221.3)"/><line class="f" y2="0.2" transform="translate(958.2 225.5)"/><line class="f" x1="0.7" y2="2.2" transform="translate(957.5 225.7)"/><line class="f" y2="0.2" transform="translate(957.5 227.9)"/><line class="f" x1="0.8" y2="1.5" transform="translate(955.6 230.5)"/><line class="f" x1="0.5" y2="0.9" transform="translate(955.1 232)"/><line class="f" x1="0.4" y2="0.9" transform="translate(953.4 235.3)"/><line class="f" x1="0.9" y2="1.3" transform="translate(952.5 236.2)"/><line class="f" x1="0.2" y2="0.2" transform="translate(950.8 239.7)"/><line class="f" x1="1.6" y2="1.7" transform="translate(949.2 239.9)"/><line class="f" x1="1.3" y2="1.5" transform="translate(946.2 243.6)"/><line class="f" x1="0.5" y2="0.5" transform="translate(945.7 245.1)"/><line class="f" x1="1.1" y2="0.9" transform="translate(942.7 247.3)"/><line class="f" x1="1.1" y2="0.6" transform="translate(941.6 248.2)"/><line class="f" x1="0.4" y2="0.4" transform="translate(939 250.4)"/><line class="f" x1="1.8" y2="1.1" transform="translate(937.2 250.8)"/><line class="f" x1="1.9" y2="1.1" transform="translate(932.9 253.2)"/><line class="f" x1="0.5" y2="0.2" transform="translate(932.4 254.3)"/><line class="f" x1="1.3" y2="0.5" transform="translate(928.7 255.6)"/><line class="f" x1="1.1" y2="0.4" transform="translate(927.6 256.1)"/><line class="f" x1="0.9" y2="0.2" transform="translate(924.3 257.4)"/><line class="f" x1="1.7" y2="0.2" transform="translate(922.6 257.6)"/><line class="f" x1="0.2" transform="translate(919.8 258.5)"/><line class="f" x1="2.2" y2="0.2" transform="translate(917.6 258.5)"/><line class="f" x1="0.2" transform="translate(917.4 258.7)"/><line class="k" x2="6.1" transform="translate(905.8 259.3)"/><line class="k" x2="48.4" transform="translate(983.3 255)"/><line class="f" x2="32.7" transform="translate(797.1 434.8)"/><line class="k" x2="60.9" transform="translate(970.8 34)"/><line class="k" y2="350" transform="translate(793.1 34)"/><line class="k" y2="167.9" transform="translate(793.1 390.1)"/><line class="f" x1="53.9" transform="translate(851.9 388.3)"/><line class="f" x1="7.2" transform="translate(842.3 388.3)"/><line class="f" y2="7" transform="translate(876.7 373.3)"/><path class="f" d="M878.9,380.3l-2.2,8-2.1-8Z"/><path class="f" d="M878.9,380.2l-2.2,8.1-2.2-8.1Z"/><path class="f" d="M878.9,380.3l-2.2,8-2.1-8Z"/><line class="j" y2="630.5" transform="translate(786.2 25.7)"/><line class="j" x2="253.6" transform="translate(786.2 656.2)"/><line class="j" x1="10.9" transform="translate(1039.8 558)"/><line class="j" x1="10.9" transform="translate(1039.8 514.3)"/><line class="k" y2="3.5" transform="translate(1039.8 554.5)"/><line class="k" x2="9.6" transform="translate(1031.7 319.4)"/><line class="k" x2="2.4" transform="translate(1048.3 319.4)"/><line class="k" x2="9.6" transform="translate(1031.7 286.6)"/><line class="k" x2="2.4" transform="translate(1048.3 286.6)"/><line class="f" y2="32.8" transform="translate(1031.7 286.6)"/><line class="f" y2="32.8" transform="translate(1050.7 286.6)"/><line class="f" y2="32.8" transform="translate(1041.3 286.6)"/><line class="f" y2="32.8" transform="translate(1048.3 286.6)"/><line class="m" x2="7" transform="translate(1041.3 319.4)"/><line class="m" x1="7" transform="translate(1041.3 286.6)"/><line class="f" x1="7" transform="translate(1041.3 294.7)"/><line class="f" x1="7" transform="translate(1041.3 303)"/><line class="f" x1="7" transform="translate(1041.3 311.1)"/><rect class="f" width="65.5" height="2.4" transform="translate(917.1 555.1)"/><line class="k" y1="6.1" transform="translate(980 558)"/><line class="f" x2="33.2" transform="translate(930 551.6)"/><path class="f" d="M963.2,549.4l8.3,2.2-8.3,2.2Z"/><path class="f" d="M963.1,549.4l8.3,2.2-8.3,2.2Z"/><path class="f" d="M963.2,549.4l8.3,2.2-8.3,2.2Z"/><line class="k" y1="83.8" transform="translate(883.3 564.1)"/><line class="k" y1="83.8" transform="translate(877.2 564.1)"/><line class="k" y2="29.9" transform="translate(842.3 282)"/><line class="k" y2="14.2" transform="translate(842.3 353)"/><line class="k" y2="16.8" transform="translate(842.3 373.3)"/><line class="k" y2="22.4" transform="translate(836.1 289.5)"/><line class="k" y2="31" transform="translate(836.1 353)"/><line class="k" x2="43" transform="translate(793.1 384)"/><line class="k" x2="49.2" transform="translate(793.1 390.1)"/><line class="k" x1="6.2" transform="translate(836.1 311.9)"/><line class="k" x1="6.2" transform="translate(836.1 353)"/><rect class="f" width="41" height="2.4" transform="translate(842.3 311.9)"/><line class="f" x1="0.2" y2="2.6" transform="translate(882.9 311.7)"/><line class="f" x1="0.2" y2="2.4" transform="translate(882.4 317)"/><line class="f" y2="0.2" transform="translate(882.4 319.4)"/><line class="f" x1="0.2" y2="0.9" transform="translate(881.6 322.2)"/><line class="f" x1="0.7" y2="1.5" transform="translate(880.9 323.1)"/><line class="f" x1="0.8" y2="2.4" transform="translate(879.2 327)"/><line class="f" x1="1.1" y2="1.9" transform="translate(876.7 331.6)"/><line class="f" x1="0.2" y2="0.3" transform="translate(876.5 333.5)"/><line class="f" x1="0.4" y2="0.9" transform="translate(874.6 335.9)"/><line class="f" x1="1.1" y2="1.3" transform="translate(873.5 336.8)"/><line class="f" x1="1.9" y2="1.7" transform="translate(869.8 340.1)"/><line class="f" x1="1.3" y2="1.3" transform="translate(866.5 343.6)"/><line class="f" x1="0.7" y2="0.4" transform="translate(865.8 344.9)"/><line class="f" x1="0.5" y2="0.3" transform="translate(863.2 346.6)"/><line class="f" x1="1.9" y2="1.1" transform="translate(861.3 346.9)"/><line class="f" x1="2.4" y2="1.1" transform="translate(856.4 349)"/><line class="f" x1="1.5" y2="0.4" transform="translate(852.5 351)"/><line class="f" x1="1.1" y2="0.3" transform="translate(851.4 351.4)"/><line class="f" x1="0.2" transform="translate(848.8 352.1)"/><line class="f" x1="2.4" y2="0.2" transform="translate(846.4 352.1)"/><line class="k" y2="6.1" transform="translate(798.6 558)"/><line class="k" y2="6.1" transform="translate(836.8 558)"/><line class="f" y1="48.3" x2="43" transform="translate(988.7 206.7)"/><line class="f" x1="49.1" transform="translate(849.5 373.3)"/><line class="f" y2="15" transform="translate(905.8 373.3)"/><rect class="f" width="2.4" height="49.1" transform="translate(849.5 373.3)"/><line class="f" x1="0.3" y2="2.4" transform="translate(898.1 376.6)"/><line class="f" y2="0.2" transform="translate(898.1 379)"/><line class="f" x1="0.4" y2="1.7" transform="translate(897.3 381.8)"/><line class="f" x1="0.2" y2="0.9" transform="translate(897.1 383.5)"/><line class="f" x1="0.2" y2="0.9" transform="translate(896.2 387)"/><line class="f" x1="0.5" y2="1.8" transform="translate(895.7 387.9)"/><line class="f" y2="0.2" transform="translate(894.7 392.1)"/><line class="f" x1="1.1" y2="1.9" transform="translate(893.6 392.3)"/><line class="f" y2="0.3" transform="translate(893.6 394.2)"/><line class="f" x1="0.9" y2="1.5" transform="translate(891.6 396.9)"/><line class="f" x1="0.4" y2="0.6" transform="translate(891.2 398.4)"/><line class="f" x1="0.6" y2="1.1" transform="translate(889 401.2)"/><line class="f" x1="0.9" y2="1.1" transform="translate(888.1 402.3)"/><line class="f" x1="0.3" y2="0.4" transform="translate(886.1 405.4)"/><line class="f" x1="1.5" y2="1.5" transform="translate(884.6 405.8)"/><line class="f" x1="1.5" y2="1.5" transform="translate(881.1 409.1)"/><line class="f" x1="0.4" y2="0.2" transform="translate(880.7 410.6)"/><line class="f" x1="1.3" y2="0.8" transform="translate(877.4 412.6)"/><line class="f" x1="0.9" y2="0.7" transform="translate(876.5 413.4)"/><line class="f" x1="0.8" y2="0.4" transform="translate(873.5 415.4)"/><line class="f" x1="1.6" y2="0.9" transform="translate(871.9 415.8)"/><line class="f" x1="0.2" y2="0.2" transform="translate(869.3 417.8)"/><line class="f" x1="1.9" y2="0.9" transform="translate(867.4 418)"/><line class="f" x1="0.3" transform="translate(867.1 418.9)"/><line class="f" x1="1.7" y2="0.4" transform="translate(863 420)"/><line class="f" x1="0.9" y2="0.3" transform="translate(862.1 420.4)"/><line class="f" x1="1.1" y2="0.4" transform="translate(858.4 421.1)"/><line class="f" x1="1.5" y2="0.2" transform="translate(856.9 421.5)"/><line class="f" x1="0.5" transform="translate(853.8 422.2)"/><line class="f" x1="2.2" transform="translate(851.6 422.2)"/><line class="m" y1="6.1" transform="translate(849.5 367.2)"/><line class="k" x2="7.2" transform="translate(842.3 367.2)"/><line class="k" x2="7.2" transform="translate(842.3 373.3)"/><line class="k" y1="6.1" transform="translate(898.6 367.2)"/><line class="k" x1="7.2" transform="translate(898.6 367.2)"/><rect class="f" width="113.1" height="52.5" transform="translate(799.6 38.8)"/><rect class="f" width="113.1" height="13.6" transform="translate(799.6 39.1)"/><path class="f" d="M1024.6,197.4H989.2a.472.472,0,0,1-.5-.5V158.7a.472.472,0,0,1,.5-.5h35.4a.472.472,0,0,1,.5.5v38.2C1025.2,197.1,1024.9,197.4,1024.6,197.4Z"/><line class="f" y2="39.3" transform="translate(993.1 158.1)"/></g></g></g></svg>