<svg xmlns="http://www.w3.org/2000/svg" xmlns:xlink="http://www.w3.org/1999/xlink" viewBox="0 0 326 612"><defs><style>.a{clip-path:url(#b);}.b,.c,.f,.g,.i{fill:none;stroke-miterlimit:10;}.b,.c{stroke:#435261;stroke-width:0.25px;}.c{stroke-dasharray:3.975 3.975;}.d{fill:#435261;font-size:7px;font-family:ArialMT, Arial;}.e{fill:#cbcfd4;}.f,.g,.i{stroke:#1d2938;stroke-linecap:round;stroke-linejoin:round;}.f{stroke-width:0.36px;}.g{stroke-width:0.72px;}.h{fill:#fff;}.i{stroke-width:0.144px;}.j{fill:#1d2938;}</style><clipPath id="b"><rect width="326" height="612"/></clipPath></defs><g id="a" class="a"><g transform="translate(-0.4 0.6)"><rect class="b" width="46.547" height="155.924" transform="translate(214.465 18.388)"/><g transform="translate(231.175 18.388)"><line class="b" y2="1.705"/><line class="c" y2="147.399" transform="translate(0 5.115)"/><line class="b" y2="1.705" transform="translate(0 154.219)"/></g><path class="b" d="M290.969,129.654H267.184a3.021,3.021,0,0,1-2.984-2.984V100.584a3.021,3.021,0,0,1,2.984-2.984h23.785a3.021,3.021,0,0,1,2.984,2.984v26.087A2.965,2.965,0,0,1,290.969,129.654Z" transform="translate(-38.908 -14.336)"/><g transform="translate(42.514 473.629)"><rect class="b" width="2.217" height="35.805" transform="translate(0.171)"/><line class="b" x2="2.472" y2="0.256" transform="translate(0 0.171)"/><line class="b" x2="1.79" y2="0.171" transform="translate(4.945 0.597)"/><line class="b" x2="0.597" y2="0.256" transform="translate(6.735 0.767)"/><line class="b" x2="0.426" transform="translate(9.633 1.62)"/><line class="b" x2="2.046" y2="0.597" transform="translate(10.06 1.62)"/><line class="b" x2="2.046" y2="1.023" transform="translate(14.322 3.069)"/><line class="b" x2="0.171" transform="translate(16.368 4.092)"/><line class="b" x2="0.682" y2="0.426" transform="translate(18.585 5.286)"/><line class="b" x2="1.364" y2="1.023" transform="translate(19.267 5.712)"/><line class="b" x2="1.876" y2="1.62" transform="translate(22.677 8.184)"/><line class="b" x2="0.597" y2="0.597" transform="translate(26.172 11.424)"/><line class="b" x2="1.023" y2="1.279" transform="translate(26.769 12.02)"/><line class="b" x2="1.194" y2="2.046" transform="translate(29.497 15.089)"/><line class="b" x2="0.682" y2="1.279" transform="translate(31.884 19.181)"/><line class="b" x2="0.341" y2="1.023" transform="translate(32.566 20.46)"/><line class="b" x2="0.853" y2="2.217" transform="translate(33.759 23.956)"/><line class="b" x2="0.171" y2="1.449" transform="translate(35.209 28.644)"/><line class="b" x2="0.256" y2="1.023" transform="translate(35.379 30.094)"/></g><line class="b" y2="56.266" transform="translate(83.605 194.517)"/><line class="b" x1="46.036" transform="translate(37.569 194.517)"/><line class="b" x1="46.036" transform="translate(37.569 208.413)"/><line class="b" x1="46.036" transform="translate(37.569 222.564)"/><line class="b" x1="46.036" transform="translate(37.569 236.716)"/><line class="b" x1="46.036" transform="translate(37.569 250.782)"/><line class="b" x1="34.612" transform="translate(37.569 264.678)"/><line class="b" x1="23.188" transform="translate(37.569 278.83)"/><line class="b" x1="11.679" transform="translate(37.569 292.982)"/><line class="b" x1="46.036" y2="56.266" transform="translate(37.569 250.782)"/><line class="b" y2="34.356" transform="translate(60.758 194.517)"/><path class="b" d="M72.892,268.4l-2.046,7.843L68.8,268.4Z" transform="translate(-10.088 -39.527)"/><path class="b" d="M72.792,268.4l-2.046,7.758L68.7,268.4Z" transform="translate(-10.074 -39.527)"/><path class="b" d="M72.892,268.4l-2.046,7.843L68.8,268.4Z" transform="translate(-10.088 -39.527)"/><text class="d" transform="translate(54.892 189.178)"><tspan x="0" y="0">UP</tspan></text><g transform="translate(159.137 282.069)"><rect class="b" width="2.217" height="46.036" transform="translate(0.17)"/><line class="b" x2="2.046" y2="0.256"/><line class="b" x2="0.426" transform="translate(2.046 0.256)"/><line class="b" x2="1.364" y2="0.256" transform="translate(4.945 0.426)"/><line class="b" x2="1.023" transform="translate(6.309 0.682)"/><line class="b" x2="0.853" y2="0.171" transform="translate(9.804 1.279)"/><line class="b" x2="1.62" y2="0.426" transform="translate(10.656 1.449)"/><line class="b" x2="2.046" y2="0.853" transform="translate(14.748 2.472)"/><line class="b" x2="0.171" transform="translate(16.794 3.325)"/><line class="b" x2="1.364" y2="0.767" transform="translate(19.267 4.348)"/><line class="b" x2="0.853" y2="0.426" transform="translate(20.631 5.115)"/><line class="b" x2="0.853" y2="0.341" transform="translate(23.7 6.82)"/><line class="b" x2="1.194" y2="0.853" transform="translate(24.552 7.161)"/><line class="b" x2="0.256" y2="0.171" transform="translate(27.792 9.463)"/><line class="b" x2="1.62" y2="1.449" transform="translate(28.048 9.633)"/><line class="b" x2="1.364" y2="1.279" transform="translate(31.543 12.702)"/><line class="b" x2="0.426" y2="0.341" transform="translate(32.907 13.981)"/><line class="b" x2="0.853" y2="1.023" transform="translate(34.953 16.198)"/><line class="b" x2="0.597" y2="0.853" transform="translate(35.805 17.221)"/><line class="b" x2="0.426" y2="0.597" transform="translate(37.851 20.119)"/><line class="b" x2="1.023" y2="1.449" transform="translate(38.278 20.716)"/><line class="b" x2="1.023" y2="2.046" transform="translate(40.494 24.382)"/><line class="b" y2="0.171" transform="translate(41.517 26.428)"/><line class="b" x2="0.597" y2="1.449" transform="translate(42.54 28.9)"/><line class="b" x2="0.426" y2="0.767" transform="translate(43.137 30.349)"/><line class="b" x2="0.171" y2="1.023" transform="translate(44.416 33.418)"/><line class="b" x2="0.256" y2="1.364" transform="translate(44.586 34.441)"/><line class="b" y2="0.426" transform="translate(45.439 38.278)"/><line class="b" x2="0.171" y2="2.046" transform="translate(45.439 38.704)"/></g><g transform="translate(155.642 4.492)"><rect class="b" width="2.217" height="46.036" transform="translate(45.268 2.217)"/><line class="b" x1="2.046" transform="translate(45.439 48.252)"/><line class="b" x1="0.426" transform="translate(45.013 48.252)"/><line class="b" x1="1.364" y1="0.256" transform="translate(41.176 47.826)"/><line class="b" x1="1.023" y1="0.171" transform="translate(40.153 47.655)"/><line class="b" x1="0.853" y1="0.171" transform="translate(36.828 47.059)"/><line class="b" x1="1.62" y1="0.426" transform="translate(35.209 46.632)"/><line class="b" x1="0.256" transform="translate(32.736 45.78)"/><line class="b" x1="2.046" y1="0.767" transform="translate(30.69 45.013)"/><line class="b" x1="0.171" transform="translate(30.52 45.013)"/><line class="b" x1="1.364" y1="0.682" transform="translate(26.854 43.308)"/><line class="b" x1="0.853" y1="0.341" transform="translate(26.002 42.967)"/><line class="b" x1="1.023" y1="0.597" transform="translate(22.933 41.091)"/><line class="b" x1="1.023" y1="0.597" transform="translate(21.91 40.494)"/><line class="b" x1="0.426" y1="0.426" transform="translate(19.437 38.619)"/><line class="b" x1="1.449" y1="1.194" transform="translate(17.988 37.425)"/><line class="b" x1="1.364" y1="1.449" transform="translate(14.578 34.356)"/><line class="b" x1="0.256" y1="0.256" transform="translate(14.322 34.1)"/><line class="b" x1="1.023" y1="1.279" transform="translate(11.679 31.031)"/><line class="b" x1="0.597" y1="0.597" transform="translate(11.083 30.435)"/><line class="b" x1="0.597" y1="0.767" transform="translate(9.207 27.621)"/><line class="b" x1="0.767" y1="1.279" transform="translate(8.44 26.343)"/><line class="b" x1="0.171" y1="0.426" transform="translate(6.991 23.87)"/><line class="b" x1="1.023" y1="1.79" transform="translate(5.968 22.08)"/><line class="b" x1="0.767" y1="1.79" transform="translate(4.348 17.988)"/><line class="b" x1="0.256" y1="0.426" transform="translate(4.092 17.562)"/><line class="b" x1="0.426" y1="1.449" transform="translate(2.899 13.896)"/><line class="b" x1="0.256" y1="1.023" transform="translate(2.643 12.873)"/><line class="b" x1="0.256" y1="0.597" transform="translate(2.046 9.804)"/><line class="b" x1="0.171" y1="1.876" transform="translate(1.876 7.928)"/><line class="b" x2="48.508" transform="translate(0 2.217)"/><line class="b" x2="48.508"/></g><rect class="b" width="30.69" height="76.726" transform="translate(41.321 355.726)"/><rect class="b" width="30.69" height="76.726" transform="translate(41.321 355.726)"/><rect class="e" width="52.344" height="10.23" transform="translate(79.513 601.505)"/><rect class="f" width="52.344" height="10.23" transform="translate(79.513 601.505)"/><rect class="f" width="10.23" height="34.356" transform="translate(268.77 471.753)"/><path class="g" d="M372.3,542a7.015,7.015,0,0,1,3.836,1.194,9.462,9.462,0,0,1,3.836,6.479v38.192a9.462,9.462,0,0,1-3.836,6.479,6.027,6.027,0,0,1-2.813,1.194H372.3" transform="translate(-54.851 -79.88)"/><path class="f" d="M372.3,540.5a7.911,7.911,0,0,1,4.518,1.449,9.885,9.885,0,0,1,3.24,3.751,9.213,9.213,0,0,1,1.194,3.836v38.192a11,11,0,0,1-4.433,7.587,6.776,6.776,0,0,1-3.5,1.449H372.3" transform="translate(-54.851 -79.659)"/><line class="f" x2="10.23" transform="translate(268.77 504.916)"/><line class="f" y2="34.356" transform="translate(268.77 471.753)"/><line class="f" y2="34.356" transform="translate(279 471.753)"/><line class="g" x2="38.533" transform="translate(279 462.12)"/><line class="f" x2="38.533" transform="translate(279 460.756)"/><line class="g" x2="38.533" transform="translate(279 515.743)"/><line class="f" x2="39.556" transform="translate(279 517.021)"/><line class="f" x2="10.23" transform="translate(268.77 473.032)"/><line class="f" y1="34.356" transform="translate(273.885 471.753)"/><rect class="h" width="1.449" height="13.896" transform="translate(319.75 481.983)"/><rect class="f" width="1.449" height="13.896" transform="translate(319.75 481.983)"/><rect class="b" width="24.382" height="43.563" transform="translate(236.886 284.542)"/><rect class="b" width="24.382" height="43.563" transform="translate(236.886 284.542)"/><path class="b" d="M296.245,357.409V365c0,2.131-1.108,3.922-2.558,3.922h-10.23c-1.449,0-2.558-1.705-2.558-3.922V349.822c0-2.131,1.108-3.922,2.558-3.922h10.23c1.449,0,2.558,1.705,2.558,3.922v7.587" transform="translate(-41.371 -50.958)"/><path class="b" d="M296.245,357.409V365c0,2.131-1.108,3.922-2.558,3.922h-10.23c-1.449,0-2.558-1.705-2.558-3.922V349.822c0-2.131,1.108-3.922,2.558-3.922h10.23c1.449,0,2.558,1.705,2.558,3.922v7.587" transform="translate(-41.371 -50.958)"/><rect class="b" width="8.184" height="22.933" transform="translate(252.232 243.451)"/><rect class="b" width="8.184" height="22.933" transform="translate(252.232 243.451)"/><path class="b" d="M287.6,297.337h0c0-4.945-5.286-9.037-11.85-9.037s-11.85,4.007-11.85,9.037c0,4.945,5.286,9.037,11.85,9.037s11.85-4.007,11.85-9.037h0" transform="translate(-38.863 -42.462)"/><path class="b" d="M287.6,297.337h0c0-4.945-5.286-9.037-11.85-9.037s-11.85,4.007-11.85,9.037c0,4.945,5.286,9.037,11.85,9.037s11.85-4.007,11.85-9.037h0" transform="translate(-38.863 -42.462)"/><path class="i" d="M259.1,211.3h40.324v45.268H259.1" transform="translate(-38.156 -31.106)"/><rect class="j" width="152.003" height="10.23" transform="translate(0.4 0.4)"/><rect class="j" width="10.23" height="590.875" transform="translate(20.86 10.63)"/><rect class="j" width="10.23" height="182.693" transform="translate(268.77 285.735)"/><line class="f" y2="164.449" transform="translate(268.77 307.304)"/><rect class="j" width="10.23" height="92.583" transform="translate(268.77 509.349)"/><line class="f" y2="92.071" transform="translate(268.77 509.434)"/><line class="f" x2="48.423" transform="translate(31.09 601.505)"/><line class="f" x2="121.312" transform="translate(31.09 10.63)"/><line class="g" x2="118.073" transform="translate(37.569 18.388)"/><rect class="b" width="104.944" height="85.081" transform="translate(154.619 362.12)"/><rect class="b" width="104.944" height="85.081" transform="translate(154.619 362.12)"/><rect class="b" width="101.705" height="74.254" transform="translate(156.239 367.406)"/><rect class="b" width="101.705" height="74.254" transform="translate(156.239 367.406)"/><rect class="b" width="18.585" height="33.589" transform="translate(235.693 370.304)"/><rect class="b" width="18.585" height="33.589" transform="translate(235.693 370.304)"/><rect class="b" width="18.585" height="33.589" transform="translate(235.693 405.854)"/><rect class="b" width="18.585" height="33.589" transform="translate(235.693 405.854)"/><line class="g" y2="3.325" transform="translate(148.907 180.194)"/><line class="g" y2="98.55" transform="translate(148.907 229.555)"/><rect class="j" width="147.143" height="10.23" transform="translate(131.942 601.505)"/><rect class="j" width="79.198" height="10.23" transform="translate(0.4 601.505)"/><path class="j" d="M315.2,256.8V12.3h10.23V256.8H315.2v0Z" transform="translate(-46.43 -1.755)"/><rect class="j" width="71.611" height="10.23" transform="translate(207.39 0.4)"/><line class="f" y2="10.23" transform="translate(152.403 0.4)"/><line class="f" y2="590.875" transform="translate(20.86 10.63)"/><line class="f" y2="10.23" transform="translate(79.513 601.505)"/><line class="f" y2="244.5" transform="translate(268.77 10.63)"/><line class="f" y2="21.483" transform="translate(268.77 285.821)"/><line class="g" y2="155.924" transform="translate(261.268 18.388)"/><line class="g" y2="45.268" transform="translate(261.268 180.194)"/><line class="g" y2="23.785" transform="translate(261.268 231.345)"/><line class="b" y2="43.563" transform="translate(261.268 284.542)"/><line class="g" y2="135.464" transform="translate(261.268 336.289)"/><line class="g" y2="78.601" transform="translate(261.268 515.146)"/><line class="f" y2="10.23" transform="translate(207.39 0.4)"/><line class="g" y2="254.73" transform="translate(279 0.4)"/><line class="g" y2="185.933" transform="translate(279 285.821)"/><line class="g" y2="105.626" transform="translate(279 506.109)"/><line class="f" x2="20.46" transform="translate(0.4 10.63)"/><line class="f" x2="61.381" transform="translate(207.39 10.63)"/><line class="g" x2="155.242" transform="translate(0.4 0.4)"/><line class="g" x2="74.85" transform="translate(204.15 0.4)"/><line class="f" x2="20.46" transform="translate(0.4 601.505)"/><line class="g" x2="78.772" transform="translate(37.569 593.747)"/><line class="g" x2="139.13" transform="translate(122.139 593.747)"/><line class="g" x2="278.6" transform="translate(0.4 611.735)"/><line class="g" y2="17.988" transform="translate(155.642 0.4)"/><line class="g" y2="17.988" transform="translate(204.15 0.4)"/><line class="f" y2="31.884" transform="translate(273.885 473.032)"/><line class="f" y2="31.884" transform="translate(275.164 473.032)"/><line class="f" y2="31.884" transform="translate(272.692 473.032)"/><line class="f" y2="34.356" transform="translate(279 471.753)"/><line class="g" y2="78.601" transform="translate(37.569 515.146)"/><line class="f" y2="37.681" transform="translate(261.268 471.753)"/><line class="g" y2="9.207" transform="translate(143.196 174.312)"/><line class="g" y2="101.022" transform="translate(143.196 229.555)"/><line class="g" x2="17.732" transform="translate(261.268 471.753)"/><line class="i" x2="6.905" transform="translate(261.865 470.986)"/><line class="g" x2="5.712" transform="translate(143.196 183.519)"/><line class="f" y2="10.23" transform="translate(131.942 601.505)"/><line class="g" x2="22.847" transform="translate(136.461 336.289)"/><line class="g" x2="55.925" transform="translate(205.344 336.289)"/><line class="g" x2="5.115" transform="translate(37.569 515.146)"/><line class="g" x2="37.851" transform="translate(78.49 515.146)"/><line class="g" x2="33.93" transform="translate(122.139 515.146)"/><line class="g" x2="48.508" transform="translate(212.76 515.146)"/><line class="g" x2="5.115" transform="translate(37.569 509.434)"/><line class="g" x2="77.578" transform="translate(78.49 509.434)"/><line class="g" x2="56.01" transform="translate(212.76 509.434)"/><line class="g" x2="10.401" transform="translate(148.907 328.105)"/><line class="g" x2="55.925" transform="translate(205.344 328.105)"/><line class="g" y2="8.184" transform="translate(205.344 328.105)"/><line class="g" y2="8.184" transform="translate(159.308 328.105)"/><line class="g" y1="5.712" transform="translate(156.068 509.434)"/><line class="b" y1="45.268" transform="translate(220.944 180.194)"/><line class="g" y1="5.882" transform="translate(215.829 225.463)"/><line class="g" x2="45.439" transform="translate(215.829 231.345)"/><line class="b" y2="45.268" transform="translate(215.829 180.194)"/><line class="b" x1="40.324" y1="45.268" transform="translate(220.944 180.194)"/><line class="g" x2="118.073" transform="translate(143.196 174.312)"/><line class="g" x2="112.361" transform="translate(148.907 180.194)"/><line class="g" y2="45.268" transform="translate(261.268 180.194)"/><g transform="translate(148.907 183.264)"><rect class="b" width="46.036" height="2.217" transform="translate(0 0.256)"/><line class="b" y2="2.046" transform="translate(45.865)"/><line class="b" y2="0.426" transform="translate(45.865 2.046)"/><line class="b" x1="0.171" y2="1.449" transform="translate(45.439 4.945)"/><line class="b" x1="0.256" y2="1.023" transform="translate(45.183 6.394)"/><line class="b" x1="0.256" y2="0.853" transform="translate(44.586 9.804)"/><line class="b" x1="0.426" y2="1.62" transform="translate(44.16 10.656)"/><line class="b" y2="0.171" transform="translate(43.393 14.578)"/><line class="b" x1="0.597" y2="2.046" transform="translate(42.796 14.748)"/><line class="b" y2="0.171" transform="translate(42.796 16.794)"/><line class="b" x1="0.853" y2="1.449" transform="translate(40.921 19.267)"/><line class="b" x1="0.426" y2="0.767" transform="translate(40.494 20.716)"/><line class="b" x1="0.426" y2="0.767" transform="translate(38.874 23.785)"/><line class="b" x1="0.853" y2="1.279" transform="translate(38.022 24.552)"/><line class="b" x1="0.256" y2="0.171" transform="translate(36.402 27.877)"/><line class="b" x1="1.449" y2="1.62" transform="translate(34.953 28.048)"/><line class="b" x1="1.194" y2="1.449" transform="translate(32.14 31.543)"/><line class="b" x1="0.426" y2="0.341" transform="translate(31.713 32.992)"/><line class="b" x1="1.023" y2="0.767" transform="translate(28.815 35.038)"/><line class="b" x1="1.023" y2="0.597" transform="translate(27.792 35.805)"/><line class="b" x1="0.341" y2="0.426" transform="translate(25.405 37.851)"/><line class="b" x1="1.705" y2="1.023" transform="translate(23.7 38.278)"/><line class="b" x1="1.876" y2="1.023" transform="translate(19.608 40.494)"/><line class="b" x1="0.341" y2="0.256" transform="translate(19.267 41.517)"/><line class="b" x1="1.194" y2="0.426" transform="translate(15.771 42.796)"/><line class="b" x1="1.023" y2="0.341" transform="translate(14.748 43.222)"/><line class="b" x1="0.767" y2="0.171" transform="translate(11.679 44.416)"/><line class="b" x1="1.62" y2="0.256" transform="translate(10.06 44.586)"/><line class="b" x1="0.256" transform="translate(7.332 45.439)"/><line class="b" x1="2.046" y2="0.171" transform="translate(5.286 45.439)"/><line class="b" x1="0.171" transform="translate(5.115 45.609)"/></g><line class="g" x2="5.712" transform="translate(143.196 229.555)"/><line class="g" x2="45.439" transform="translate(215.829 225.463)"/><line class="b" x2="30.69" transform="translate(41.321 394.004)"/><line class="g" x2="57.118" transform="translate(204.15 18.388)"/><line class="g" y2="327.961" transform="translate(37.569 18.388)"/><line class="g" y2="157.373" transform="translate(37.569 352.061)"/><line class="b" x1="50.554" transform="translate(92.642 350.441)"/><line class="b" x1="6.82" transform="translate(83.605 350.441)"/><line class="b" y2="6.564" transform="translate(116 336.289)"/><path class="b" d="M137.692,402.1l-2.046,7.587L133.6,402.1Z" transform="translate(-19.646 -59.247)"/><path class="b" d="M137.592,402.1l-2.046,7.5-2.046-7.5Z" transform="translate(-19.631 -59.247)"/><path class="b" d="M137.692,402.1l-2.046,7.587L133.6,402.1Z" transform="translate(-19.646 -59.247)"/><line class="f" y2="590.875" transform="translate(31.09 10.63)"/><line class="f" x2="237.68" transform="translate(31.09 601.505)"/><line class="f" x1="10.23" transform="translate(268.77 509.434)"/><line class="f" x1="10.23" transform="translate(268.77 468.514)"/><line class="g" y2="3.325" transform="translate(268.77 506.109)"/><line class="g" x2="8.951" transform="translate(261.268 285.821)"/><line class="g" x2="2.217" transform="translate(276.784 285.821)"/><line class="g" x2="8.951" transform="translate(261.268 255.13)"/><line class="g" x2="2.217" transform="translate(276.784 255.13)"/><line class="b" y2="30.69" transform="translate(261.268 255.13)"/><line class="b" y2="30.69" transform="translate(279 255.13)"/><line class="b" y2="30.69" transform="translate(270.22 255.13)"/><line class="b" y2="30.69" transform="translate(276.784 255.13)"/><line class="i" x2="6.564" transform="translate(270.22 285.821)"/><line class="i" x1="6.564" transform="translate(270.22 255.13)"/><line class="b" x1="6.564" transform="translate(270.22 262.632)"/><line class="b" x1="6.564" transform="translate(270.22 270.475)"/><line class="b" x1="6.564" transform="translate(270.22 277.977)"/><rect class="b" width="61.381" height="2.217" transform="translate(153.852 506.791)"/><line class="g" y1="5.712" transform="translate(212.76 509.434)"/><line class="b" x2="31.117" transform="translate(165.872 503.466)"/><path class="b" d="M231,588.1l7.758,2.046L231,592.192Z" transform="translate(-34.011 -86.68)"/><path class="b" d="M230.9,588.1l7.843,2.046-7.843,2.046Z" transform="translate(-33.996 -86.68)"/><path class="b" d="M231,588.1l7.758,2.046L231,592.192Z" transform="translate(-34.011 -86.68)"/><line class="g" y1="78.601" transform="translate(122.139 515.146)"/><line class="g" y1="78.601" transform="translate(116.341 515.146)"/><line class="g" y2="28.048" transform="translate(83.605 250.782)"/><line class="g" y2="13.299" transform="translate(83.605 317.278)"/><line class="g" y2="15.771" transform="translate(83.605 336.289)"/><line class="g" y2="21.057" transform="translate(77.893 257.773)"/><line class="g" y2="29.071" transform="translate(77.893 317.278)"/><line class="g" x2="40.324" transform="translate(37.569 346.349)"/><line class="g" x2="46.036" transform="translate(37.569 352.061)"/><line class="g" x1="5.712" transform="translate(77.893 278.83)"/><line class="g" x1="5.712" transform="translate(77.893 317.278)"/><g transform="translate(83.605 278.659)"><rect class="b" width="38.448" height="2.217" transform="translate(0 0.171)"/><line class="b" x1="0.171" y2="2.387" transform="translate(38.107)"/><line class="b" x1="0.171" y2="2.302" transform="translate(37.681 4.859)"/><line class="b" y2="0.171" transform="translate(37.681 7.161)"/><line class="b" x1="0.256" y2="0.767" transform="translate(36.828 9.804)"/><line class="b" x1="0.597" y2="1.449" transform="translate(36.232 10.571)"/><line class="b" x1="0.853" y2="2.217" transform="translate(34.612 14.322)"/><line class="b" x1="1.023" y2="1.876" transform="translate(32.395 18.585)"/><line class="b" x1="0.256" y2="0.171" transform="translate(32.14 20.46)"/><line class="b" x1="0.341" y2="0.853" transform="translate(30.349 22.677)"/><line class="b" x1="1.023" y2="1.194" transform="translate(29.326 23.529)"/><line class="b" x1="1.79" y2="1.62" transform="translate(25.831 26.598)"/><line class="b" x1="1.194" y2="1.194" transform="translate(22.762 29.838)"/><line class="b" x1="0.597" y2="0.426" transform="translate(22.165 31.031)"/><line class="b" x1="0.426" y2="0.171" transform="translate(19.693 32.736)"/><line class="b" x1="1.876" y2="1.023" transform="translate(17.817 32.907)"/><line class="b" x1="2.302" y2="1.023" transform="translate(13.299 34.953)"/><line class="b" x1="1.449" y2="0.341" transform="translate(9.633 36.828)"/><line class="b" x1="1.023" y2="0.256" transform="translate(8.61 37.169)"/><line class="b" x1="0.256" transform="translate(6.138 37.851)"/><line class="b" x1="2.217" y2="0.171" transform="translate(3.922 37.851)"/></g><line class="g" y2="5.712" transform="translate(42.685 509.434)"/><line class="g" y2="5.712" transform="translate(78.49 509.434)"/><line class="b" y1="45.268" x2="40.324" transform="translate(220.944 180.194)"/><g transform="translate(90.425 336.289)"><line class="b" x1="46.036"/><line class="b" y2="14.152" transform="translate(52.77)"/><rect class="b" width="2.217" height="46.036"/><line class="b" x1="0.171" y2="2.302" transform="translate(45.609 3.069)"/><line class="b" y2="0.171" transform="translate(45.609 5.371)"/><line class="b" x1="0.426" y2="1.62" transform="translate(44.757 8.014)"/><line class="b" x1="0.171" y2="0.853" transform="translate(44.586 9.633)"/><line class="b" x1="0.256" y2="0.767" transform="translate(43.734 12.958)"/><line class="b" x1="0.426" y2="1.62" transform="translate(43.308 13.725)"/><line class="b" y2="0.171" transform="translate(42.285 17.647)"/><line class="b" x1="1.023" y2="1.876" transform="translate(41.262 17.817)"/><line class="b" y2="0.171" transform="translate(41.262 19.693)"/><line class="b" x1="0.767" y2="1.364" transform="translate(39.471 22.165)"/><line class="b" x1="0.426" y2="0.682" transform="translate(39.045 23.529)"/><line class="b" x1="0.597" y2="1.023" transform="translate(36.999 26.257)"/><line class="b" x1="0.853" y2="1.023" transform="translate(36.146 27.28)"/><line class="b" x1="0.171" y2="0.426" transform="translate(34.356 30.094)"/><line class="b" x1="1.449" y2="1.449" transform="translate(32.907 30.52)"/><line class="b" x1="1.364" y2="1.449" transform="translate(29.667 33.589)"/><line class="b" x1="0.426" y2="0.171" transform="translate(29.241 35.038)"/><line class="b" x1="1.194" y2="0.853" transform="translate(26.172 36.828)"/><line class="b" x1="0.853" y2="0.597" transform="translate(25.32 37.681)"/><line class="b" x1="0.767" y2="0.341" transform="translate(22.506 39.556)"/><line class="b" x1="1.449" y2="0.853" transform="translate(21.057 39.898)"/><line class="b" x1="0.171" y2="0.171" transform="translate(18.585 41.773)"/><line class="b" x1="1.876" y2="0.853" transform="translate(16.709 41.944)"/><line class="b" x1="0.171" transform="translate(16.539 42.796)"/><line class="b" x1="1.705" y2="0.426" transform="translate(12.617 43.819)"/><line class="b" x1="0.767" y2="0.171" transform="translate(11.85 44.245)"/><line class="b" x1="1.023" y2="0.426" transform="translate(8.355 44.842)"/><line class="b" x1="1.449" y2="0.171" transform="translate(6.905 45.268)"/><line class="b" x1="0.341" transform="translate(4.092 45.865)"/><line class="b" x1="2.046" transform="translate(2.046 45.865)"/></g><line class="i" y1="5.712" transform="translate(90.425 330.577)"/><line class="g" x2="6.82" transform="translate(83.605 330.577)"/><line class="g" x2="6.82" transform="translate(83.605 336.289)"/><line class="g" y1="5.712" transform="translate(136.461 330.577)"/><line class="g" x1="6.735" transform="translate(136.461 330.577)"/><rect class="b" width="105.967" height="49.19" transform="translate(43.622 22.821)"/><rect class="b" width="105.967" height="12.788" transform="translate(43.622 23.162)"/><path class="b" d="M292.774,194.643H259.526a.4.4,0,0,1-.426-.426V158.326a.4.4,0,0,1,.426-.426h33.248a.4.4,0,0,1,.426.426v35.891A.4.4,0,0,1,292.774,194.643Z" transform="translate(-38.156 -23.23)"/><line class="b" y2="36.743" transform="translate(225.037 134.67)"/></g></g></svg>