<svg xmlns="http://www.w3.org/2000/svg" xmlns:xlink="http://www.w3.org/1999/xlink" viewBox="792 0 326 385"><defs><style>.a{clip-path:url(#c);}.b{clip-path:url(#a);}.c,.d,.g,.h,.j{fill:none;stroke-miterlimit:10;}.c,.d{stroke:#435261;stroke-width:0.25px;}.d{stroke-dasharray:3.969 3.969;}.e{fill:#435261;font-size:18px;font-family:ArialMT, Arial;}.f{fill:#cbcfd4;}.g,.h,.j{stroke:#1d2938;stroke-linecap:round;stroke-linejoin:round;}.g{stroke-width:0.36px;}.h{stroke-width:0.72px;}.i{fill:#fff;}.j{stroke-width:0.144px;}.k{fill:#1d2938;}</style><clipPath id="a"><rect width="326" height="384.5" transform="translate(270.3 0.4)"/></clipPath><clipPath id="c"><rect x="792" width="326" height="385"/></clipPath></defs><g id="b" class="a"><g transform="translate(521.7 -0.4)"><g class="b"><rect class="c" width="99.5" height="333.4" transform="translate(458.3 38.9)"/><line class="c" y2="2" transform="translate(494 38.9)"/><line class="d" y2="323.5" transform="translate(494 44.8)"/><line class="c" y2="2" transform="translate(494 370.3)"/><path class="c" d="M541.6,246.2H484.9a3.543,3.543,0,0,1-3.5-3.5V181.1a3.543,3.543,0,0,1,3.5-3.5h56.7a3.543,3.543,0,0,1,3.5,3.5v61.6A3.478,3.478,0,0,1,541.6,246.2Z"/><rect class="c" width="4.8" height="76.6" transform="translate(90.9 1012.5)"/><line class="c" x2="5.3" y2="0.5" transform="translate(90.5 1012.9)"/><line class="c" x2="3.9" y2="0.4" transform="translate(101 1013.8)"/><line class="c" x2="1.4" y2="0.5" transform="translate(104.9 1014.2)"/><line class="c" x2="0.8" transform="translate(111.1 1016)"/><line class="c" x2="4.4" y2="1.3" transform="translate(111.9 1016)"/><line class="c" x2="4.4" y2="2.1" transform="translate(121.1 1019.1)"/><line class="c" x2="0.4" transform="translate(125.5 1021.2)"/><line class="c" x2="1.3" y2="0.8" transform="translate(130.3 1023.9)"/><line class="c" x2="3.1" y2="2.2" transform="translate(131.6 1024.7)"/><line class="c" x2="3.9" y2="3.5" transform="translate(139.1 1030)"/><line class="c" x2="1.3" y2="1.3" transform="translate(146.5 1037)"/><line class="c" x2="2.2" y2="2.6" transform="translate(147.8 1038.3)"/><line class="c" x2="2.6" y2="4.3" transform="translate(153.5 1044.9)"/><line class="c" x2="1.3" y2="2.6" transform="translate(158.8 1053.6)"/><line class="c" x2="0.9" y2="2.2" transform="translate(160.1 1056.2)"/><line class="c" x2="1.8" y2="4.8" transform="translate(162.7 1063.7)"/><line class="c" x2="0.4" y2="3" transform="translate(165.8 1073.8)"/><line class="c" x2="0.4" y2="2.2" transform="translate(166.2 1076.8)"/><line class="c" y2="120.4" transform="translate(178.5 415.6)"/><line class="c" x1="98.5" transform="translate(80 415.6)"/><line class="c" x1="98.5" transform="translate(80 445.4)"/><line class="c" x1="98.5" transform="translate(80 475.6)"/><line class="c" x1="98.5" transform="translate(80 505.8)"/><line class="c" x1="98.5" transform="translate(80 536)"/><line class="c" x1="74" transform="translate(80 565.7)"/><line class="c" x1="49.4" transform="translate(80 595.9)"/><line class="c" x1="24.9" transform="translate(80 626.1)"/><line class="c" x1="98.5" y2="120.3" transform="translate(80 536)"/><line class="c" y2="73.5" transform="translate(129.4 415.6)"/><path class="c" d="M133.8,489.1l-4.4,16.7-4.3-16.7Z"/><path class="c" d="M133.7,489l-4.4,16.7L125,489Z"/><path class="c" d="M133.8,489.1l-4.4,16.7-4.3-16.7Z"/><text class="e" transform="translate(116.975 407.749)"><tspan x="0" y="0">UP</tspan></text><rect class="c" width="4.8" height="98.5" transform="translate(340.4 602.9)"/><line class="c" x2="4.4" y2="0.5" transform="translate(339.9 602.9)"/><line class="c" x2="0.9" transform="translate(344.3 603.4)"/><line class="c" x2="3.1" y2="0.4" transform="translate(350.4 603.8)"/><line class="c" x2="2.2" transform="translate(353.5 604.2)"/><line class="c" x2="1.8" y2="0.5" transform="translate(360.9 605.5)"/><line class="c" x2="3.5" y2="0.9" transform="translate(362.7 606)"/><line class="c" x2="4.4" y2="1.7" transform="translate(371.4 608.2)"/><line class="c" x2="0.4" transform="translate(375.8 609.9)"/><line class="c" x2="3" y2="1.8" transform="translate(381.1 612.1)"/><line class="c" x2="1.8" y2="0.8" transform="translate(384.1 613.9)"/><line class="c" x2="1.7" y2="0.8" transform="translate(390.7 617.4)"/><line class="c" x2="2.7" y2="1.8" transform="translate(392.4 618.2)"/><line class="c" x2="0.5" y2="0.5" transform="translate(399.4 623)"/><line class="c" x2="3.5" y2="3" transform="translate(399.9 623.5)"/><line class="c" x2="3.1" y2="2.7" transform="translate(407.3 630)"/><line class="c" x2="0.9" y2="0.8" transform="translate(410.4 632.7)"/><line class="c" x2="1.7" y2="2.2" transform="translate(414.8 637.5)"/><line class="c" x2="1.3" y2="1.7" transform="translate(416.5 639.7)"/><line class="c" x2="0.9" y2="1.3" transform="translate(420.9 645.8)"/><line class="c" x2="2.1" y2="3.1" transform="translate(421.8 647.1)"/><line class="c" x2="2.2" y2="4.4" transform="translate(426.6 655)"/><line class="c" y2="0.4" transform="translate(428.8 659.4)"/><line class="c" x2="1.4" y2="3.1" transform="translate(430.9 664.6)"/><line class="c" x2="0.8" y2="1.7" transform="translate(432.3 667.7)"/><line class="c" x2="0.4" y2="2.2" transform="translate(434.9 674.2)"/><line class="c" x2="0.5" y2="3.1" transform="translate(435.3 676.4)"/><line class="c" y2="0.9" transform="translate(437.1 684.7)"/><line class="c" x2="0.4" y2="4.4" transform="translate(437.1 685.6)"/><rect class="c" width="4.8" height="98.5" transform="translate(429.2 13.9)"/><line class="c" x1="4.4" transform="translate(429.6 112.4)"/><line class="c" x1="0.8" transform="translate(428.8 112.4)"/><line class="c" x1="3.1" y1="0.4" transform="translate(420.4 111.5)"/><line class="c" x1="2.1" y1="0.4" transform="translate(418.3 111.1)"/><line class="c" x1="1.7" y1="0.4" transform="translate(411.3 109.8)"/><line class="c" x1="3.5" y1="0.9" transform="translate(407.8 108.9)"/><line class="c" x1="0.4" transform="translate(402.5 107.1)"/><line class="c" x1="4.4" y1="1.7" transform="translate(398.1 105.4)"/><line class="c" x1="0.4" transform="translate(397.7 105.4)"/><line class="c" x1="3.1" y1="1.3" transform="translate(389.8 101.9)"/><line class="c" x1="1.7" y1="0.9" transform="translate(388.1 101)"/><line class="c" x1="2.2" y1="1.3" transform="translate(381.5 97.1)"/><line class="c" x1="2.2" y1="1.3" transform="translate(379.3 95.8)"/><line class="c" x1="0.8" y1="0.9" transform="translate(374.1 91.8)"/><line class="c" x1="3.1" y1="2.6" transform="translate(371 89.2)"/><line class="c" x1="3" y1="3.1" transform="translate(363.6 82.6)"/><line class="c" x1="0.5" y1="0.4" transform="translate(363.1 82.2)"/><line class="c" x1="2.2" y1="2.6" transform="translate(357.4 75.6)"/><line class="c" x1="1.3" y1="1.3" transform="translate(356.1 74.3)"/><line class="c" x1="1.3" y1="1.7" transform="translate(352.2 68.2)"/><line class="c" x1="1.8" y1="2.6" transform="translate(350.4 65.6)"/><line class="c" x1="0.4" y1="0.9" transform="translate(347.4 60.3)"/><line class="c" x1="2.2" y1="3.9" transform="translate(345.2 56.4)"/><line class="c" x1="1.7" y1="4" transform="translate(341.7 47.6)"/><line class="c" x1="0.5" y1="0.9" transform="translate(341.2 46.7)"/><line class="c" x1="0.9" y1="3" transform="translate(338.6 38.9)"/><line class="c" x1="0.4" y1="2.2" transform="translate(338.2 36.7)"/><line class="c" x1="0.4" y1="1.3" transform="translate(336.9 30.1)"/><line class="c" x1="0.5" y1="3.9" transform="translate(336.4 26.2)"/><line class="c" x2="103.7" transform="translate(332.5 13.9)"/><line class="c" x2="103.7" transform="translate(332.5 9.1)"/><rect class="c" width="65.6" height="164.1" transform="translate(87.9 760.4)"/><rect class="c" width="65.6" height="164.1" transform="translate(87.9 760.4)"/><rect class="f" width="112" height="21.9" transform="translate(169.7 1286)"/><rect class="g" width="112" height="21.9" transform="translate(169.7 1286)"/><rect class="g" width="21.9" height="73.5" transform="translate(574.5 1008.6)"/><path class="h" d="M678.4,987.9a14.49,14.49,0,0,1,8.2,2.6,17.938,17.938,0,0,1,6,7c1.5,3,2.2,5.3,2.2,7v81.7c0,1.7-.7,4-2.2,7a17.938,17.938,0,0,1-6,7c-2.5,1.7-4.5,2.6-6,2.6h-2.2"/><path class="g" d="M678.4,985.1a17.079,17.079,0,0,1,9.7,3,21.054,21.054,0,0,1,6.9,8.1,19.048,19.048,0,0,1,2.5,8.2v81.7a19.048,19.048,0,0,1-2.5,8.2,21.054,21.054,0,0,1-6.9,8.1q-4.5,3-7.5,3h-2.2"/><line class="g" x2="21.8" transform="translate(574.5 1079.4)"/><line class="g" y2="73.5" transform="translate(574.5 1008.6)"/><line class="g" y2="73.5" transform="translate(596.3 1008.6)"/><line class="h" x2="82.3" transform="translate(596.3 988)"/><line class="g" x2="82.3" transform="translate(596.3 984.9)"/><line class="h" x2="82.3" transform="translate(596.3 1102.6)"/><line class="g" x2="84.5" transform="translate(596.3 1105.3)"/><line class="g" x2="21.8" transform="translate(574.5 1011.2)"/><line class="g" y1="73.5" transform="translate(585.4 1008.6)"/><rect class="i" width="3.1" height="29.8" transform="translate(683.4 1030.4)"/><rect class="g" width="3.1" height="29.8" transform="translate(683.4 1030.4)"/><rect class="c" width="52.1" height="93.2" transform="translate(506.2 608.2)"/><rect class="c" width="52.1" height="93.2" transform="translate(506.2 608.2)"/><path class="c" d="M544.7,655v16.2c0,4.6-2.4,8.3-5.5,8.3H517.3c-3,0-5.5-3.7-5.5-8.3V638.8c0-4.6,2.4-8.3,5.5-8.3h21.9c3,0,5.5,3.7,5.5,8.3V655"/><path class="c" d="M544.7,655v16.2c0,4.6-2.4,8.3-5.5,8.3H517.3c-3,0-5.5-3.7-5.5-8.3V638.8c0-4.6,2.4-8.3,5.5-8.3h21.9c3,0,5.5,3.7,5.5,8.3V655"/><rect class="c" width="17.5" height="49" transform="translate(539 520.2)"/><rect class="c" width="17.5" height="49" transform="translate(539 520.2)"/><path class="c" d="M531.6,544.7h0c0-10.6-11.4-19.3-25.4-19.3s-25.4,8.6-25.4,19.3c0,10.6,11.4,19.3,25.4,19.3s25.4-8.7,25.4-19.3h0"/><path class="c" d="M531.6,544.7h0c0-10.6-11.4-19.3-25.4-19.3s-25.4,8.6-25.4,19.3c0,10.6,11.4,19.3,25.4,19.3s25.4-8.7,25.4-19.3h0"/><path class="j" d="M472.1,385h86.2v96.7H472.1"/><rect class="k" width="325.1" height="21.9" transform="translate(0.4 0.4)"/><rect class="k" width="21.9" height="1263.7" transform="translate(44.1 22.2)"/><rect class="k" width="21.9" height="390.8" transform="translate(574.4 610.7)"/><line class="g" y2="351.9" transform="translate(574.5 656.7)"/><rect class="k" width="21.9" height="198" transform="translate(574.4 1089)"/><line class="g" y2="196.9" transform="translate(574.5 1089.1)"/><line class="g" x2="103.7" transform="translate(66 1286)"/><line class="g" x2="259.5" transform="translate(66 22.2)"/><line class="h" x2="252.5" transform="translate(80 38.9)"/><rect class="c" width="224.5" height="182" transform="translate(330.3 774)"/><rect class="c" width="224.5" height="182" transform="translate(330.3 774)"/><rect class="c" width="217.5" height="158.8" transform="translate(333.8 785.4)"/><rect class="c" width="217.5" height="158.8" transform="translate(333.8 785.4)"/><rect class="c" width="39.8" height="71.8" transform="translate(503.6 791.5)"/><rect class="c" width="39.8" height="71.8" transform="translate(503.6 791.5)"/><rect class="c" width="39.8" height="71.8" transform="translate(503.6 867.7)"/><rect class="c" width="39.8" height="71.8" transform="translate(503.6 867.7)"/><line class="h" y2="7" transform="translate(318 385)"/><line class="h" y2="210.9" transform="translate(318 490.5)"/><rect class="k" width="314.6" height="21.9" transform="translate(281.7 1286)"/><rect class="k" width="169.3" height="21.9" transform="translate(0.4 1286)"/><path class="k" d="M574.4,545V22.1h21.8V545H574.4v0Z"/><rect class="k" width="153.2" height="21.9" transform="translate(443.2 0.4)"/><line class="g" y2="21.8" transform="translate(325.5 0.4)"/><line class="g" y2="1263.8" transform="translate(44.1 22.2)"/><line class="g" y2="21.9" transform="translate(169.7 1286)"/><line class="g" y2="523" transform="translate(574.5 22.2)"/><line class="g" y2="45.9" transform="translate(574.5 610.8)"/><line class="h" y2="333.4" transform="translate(558.3 38.9)"/><line class="h" y2="96.8" transform="translate(558.3 384.9)"/><line class="h" y2="50.8" transform="translate(558.3 494.4)"/><line class="c" y2="93.2" transform="translate(558.3 608.2)"/><line class="h" y2="289.7" transform="translate(558.3 718.9)"/><line class="h" y2="168.1" transform="translate(558.3 1101.3)"/><line class="g" y2="21.8" transform="translate(443.2 0.4)"/><line class="h" y2="544.8" transform="translate(596.3 0.4)"/><line class="h" y2="397.8" transform="translate(596.3 610.8)"/><line class="h" y2="225.8" transform="translate(596.3 1082.1)"/><line class="g" x2="43.7" transform="translate(0.4 22.2)"/><line class="g" x2="131.3" transform="translate(443.2 22.2)"/><line class="h" x2="332.1" transform="translate(0.4 0.4)"/><line class="h" x2="160.1" transform="translate(436.2 0.4)"/><line class="g" x2="43.7" transform="translate(0.4 1286)"/><line class="h" x2="168.5" transform="translate(80 1269.4)"/><line class="h" x2="297.6" transform="translate(260.7 1269.4)"/><line class="h" x2="595.9" transform="translate(0.4 1307.9)"/><line class="h" y2="38.5" transform="translate(332.5 0.4)"/><line class="h" y2="38.5" transform="translate(436.2 0.4)"/><line class="g" y2="68.2" transform="translate(585.4 1011.2)"/><line class="g" y2="68.2" transform="translate(588 1011.2)"/><line class="g" y2="68.2" transform="translate(582.8 1011.2)"/><line class="g" y2="73.5" transform="translate(596.3 1008.6)"/><line class="h" y2="168.1" transform="translate(80 1101.3)"/><line class="g" y2="80.5" transform="translate(558.3 1008.6)"/><line class="h" y2="19.7" transform="translate(305.8 372.3)"/><line class="h" y2="216.1" transform="translate(305.8 490.5)"/><line class="h" x2="38" transform="translate(558.3 1008.6)"/><line class="j" x2="14.9" transform="translate(559.6 1006.8)"/><line class="h" x2="12.2" transform="translate(305.8 392)"/><line class="g" y2="21.9" transform="translate(281.7 1286)"/><line class="h" x2="49" transform="translate(291.4 718.9)"/><line class="h" x2="119.5" transform="translate(438.8 718.9)"/><line class="h" x2="10.9" transform="translate(80 1101.3)"/><line class="h" x2="81" transform="translate(167.5 1101.3)"/><line class="h" x2="72.7" transform="translate(260.7 1101.3)"/><line class="h" x2="103.7" transform="translate(454.6 1101.3)"/><line class="h" x2="10.9" transform="translate(80 1089.1)"/><line class="h" x2="165.9" transform="translate(167.5 1089.1)"/><line class="h" x2="119.9" transform="translate(454.6 1089.1)"/><line class="h" x2="22.4" transform="translate(318 701.4)"/><line class="h" x2="119.5" transform="translate(438.8 701.4)"/><line class="h" y2="17.5" transform="translate(438.8 701.4)"/><line class="h" y2="17.5" transform="translate(340.4 701.4)"/><line class="h" y1="12.2" transform="translate(333.4 1089.1)"/><line class="c" y1="96.7" transform="translate(472.1 385)"/><line class="h" y1="12.7" transform="translate(461.1 481.7)"/><line class="h" x2="97.2" transform="translate(461.1 494.4)"/><line class="c" y2="96.8" transform="translate(461.1 384.9)"/><line class="c" x1="86.2" y1="96.7" transform="translate(472.1 385)"/><line class="h" x2="252.5" transform="translate(305.8 372.3)"/><line class="h" x2="240.3" transform="translate(318 385)"/><line class="h" y2="96.7" transform="translate(558.3 385)"/><rect class="c" width="98.5" height="4.8" transform="translate(318 392)"/><line class="c" y2="4.3" transform="translate(416.1 391.6)"/><line class="c" y2="0.9" transform="translate(416.1 395.9)"/><line class="c" x1="0.4" y2="3" transform="translate(415.2 402.1)"/><line class="c" x1="0.4" y2="2.2" transform="translate(414.8 405.1)"/><line class="c" x1="0.5" y2="1.7" transform="translate(413.4 412.6)"/><line class="c" x1="0.8" y2="3.5" transform="translate(412.6 414.3)"/><line class="c" y2="0.5" transform="translate(410.8 422.6)"/><line class="c" x1="1.3" y2="4.3" transform="translate(409.5 423.1)"/><line class="c" y2="0.5" transform="translate(409.5 427.4)"/><line class="c" x1="1.7" y2="3.1" transform="translate(405.6 432.7)"/><line class="c" x1="0.9" y2="1.7" transform="translate(404.7 435.8)"/><line class="c" x1="0.9" y2="1.8" transform="translate(401.2 442.3)"/><line class="c" x1="1.8" y2="2.6" transform="translate(399.4 444.1)"/><line class="c" x1="0.5" y2="0.4" transform="translate(395.9 451.1)"/><line class="c" x1="3" y2="3.5" transform="translate(392.9 451.5)"/><line class="c" x1="2.7" y2="3.1" transform="translate(386.7 458.9)"/><line class="c" x1="0.8" y2="0.9" transform="translate(385.9 462)"/><line class="c" x1="2.2" y2="1.7" transform="translate(379.7 466.4)"/><line class="c" x1="2.1" y2="1.3" transform="translate(377.6 468.1)"/><line class="c" x1="0.9" y2="0.9" transform="translate(372.3 472.5)"/><line class="c" x1="3.5" y2="2.2" transform="translate(368.8 473.4)"/><line class="c" x1="3.9" y2="2.2" transform="translate(360.1 478.2)"/><line class="c" x1="0.9" y2="0.4" transform="translate(359.2 480.4)"/><line class="c" x1="2.7" y2="0.9" transform="translate(351.7 483)"/><line class="c" x1="2.1" y2="0.9" transform="translate(349.6 483.9)"/><line class="c" x1="1.7" y2="0.5" transform="translate(343 486.5)"/><line class="c" x1="3.5" y2="0.4" transform="translate(339.5 487)"/><line class="c" x1="0.4" transform="translate(333.8 488.7)"/><line class="c" x1="4.4" y2="0.4" transform="translate(329.4 488.7)"/><line class="c" x1="0.4" transform="translate(329 489.1)"/><line class="h" x2="12.2" transform="translate(305.8 490.5)"/><line class="h" x2="97.2" transform="translate(461.1 481.7)"/><line class="c" x2="65.6" transform="translate(87.9 842.3)"/><line class="h" x2="122.1" transform="translate(436.2 38.9)"/><line class="h" y2="701.4" transform="translate(80 38.9)"/><line class="h" y2="336.5" transform="translate(80 752.6)"/><line class="c" x1="108.1" transform="translate(197.7 749.1)"/><line class="c" x1="14.4" transform="translate(178.5 749.1)"/><line class="c" y2="14" transform="translate(247.6 718.9)"/><path class="c" d="M252,732.9l-4.4,16.2-4.4-16.2Z"/><path class="c" d="M251.9,732.8,247.5,749l-4.4-16.2Z"/><path class="c" d="M252,732.9l-4.4,16.2-4.4-16.2Z"/><line class="g" y2="1263.8" transform="translate(66 22.2)"/><line class="g" x2="508.5" transform="translate(66 1286)"/><line class="g" x1="21.8" transform="translate(574.5 1089.1)"/><line class="g" x1="21.8" transform="translate(574.5 1001.6)"/><line class="h" y2="7" transform="translate(574.5 1082.1)"/><line class="h" x2="19.2" transform="translate(558.3 610.8)"/><line class="h" x2="4.8" transform="translate(591.5 610.8)"/><line class="h" x2="19.2" transform="translate(558.3 545.2)"/><line class="h" x2="4.8" transform="translate(591.5 545.2)"/><line class="c" y2="65.6" transform="translate(558.3 545.2)"/><line class="c" y2="65.6" transform="translate(596.3 545.2)"/><line class="c" y2="65.6" transform="translate(577.5 545.2)"/><line class="c" y2="65.6" transform="translate(591.5 545.2)"/><line class="j" x2="14" transform="translate(577.5 610.8)"/><line class="j" x1="14" transform="translate(577.5 545.2)"/><line class="c" x1="14" transform="translate(577.5 561.3)"/><line class="c" x1="14" transform="translate(577.5 578)"/><line class="c" x1="14" transform="translate(577.5 594.2)"/><rect class="c" width="131.3" height="4.8" transform="translate(328.5 1083.4)"/><line class="h" y1="12.2" transform="translate(454.6 1089.1)"/><line class="c" x2="66.5" transform="translate(354.4 1076.4)"/><path class="c" d="M420.9,1072l16.6,4.4-16.6,4.4Z"/><path class="c" d="M420.8,1071.9l16.6,4.4-16.6,4.3Z"/><path class="c" d="M420.9,1072l16.6,4.4-16.6,4.4Z"/><line class="h" y1="168.1" transform="translate(260.7 1101.3)"/><line class="h" y1="168.1" transform="translate(248.5 1101.3)"/><line class="h" y2="59.9" transform="translate(178.5 536)"/><line class="h" y2="28.4" transform="translate(178.5 678.2)"/><line class="h" y2="33.7" transform="translate(178.5 718.9)"/><line class="h" y2="45.1" transform="translate(166.2 550.8)"/><line class="h" y2="62.1" transform="translate(166.2 678.2)"/><line class="h" x2="86.2" transform="translate(80 740.3)"/><line class="h" x2="98.5" transform="translate(80 752.6)"/><line class="h" x1="12.3" transform="translate(166.2 595.9)"/><line class="h" x1="12.3" transform="translate(166.2 678.2)"/><rect class="c" width="82.3" height="4.8" transform="translate(178.5 595.9)"/><line class="c" x1="0.5" y2="5.2" transform="translate(259.8 595.5)"/><line class="c" x1="0.4" y2="4.8" transform="translate(259 606)"/><line class="c" y2="0.4" transform="translate(259 610.8)"/><line class="c" x1="0.5" y2="1.7" transform="translate(257.2 616.5)"/><line class="c" x1="1.3" y2="3.1" transform="translate(255.9 618.2)"/><line class="c" x1="1.8" y2="4.8" transform="translate(252.4 626.1)"/><line class="c" x1="2.2" y2="3.9" transform="translate(247.6 635.3)"/><line class="c" x1="0.4" y2="0.5" transform="translate(247.2 639.2)"/><line class="c" x1="0.9" y2="1.8" transform="translate(243.2 644)"/><line class="c" x1="2.2" y2="2.6" transform="translate(241 645.8)"/><line class="c" x1="3.9" y2="3.5" transform="translate(233.6 652.4)"/><line class="c" x1="2.7" y2="2.6" transform="translate(227 659.4)"/><line class="c" x1="1.3" y2="0.9" transform="translate(225.7 662)"/><line class="c" x1="0.8" y2="0.4" transform="translate(220.5 665.5)"/><line class="c" x1="4" y2="2.2" transform="translate(216.5 665.9)"/><line class="c" x1="4.8" y2="2.2" transform="translate(206.9 670.3)"/><line class="c" x1="3.1" y2="0.9" transform="translate(199 674.2)"/><line class="c" x1="2.2" y2="0.5" transform="translate(196.8 675.1)"/><line class="c" x1="0.4" transform="translate(191.6 676.4)"/><line class="c" x1="4.8" y2="0.5" transform="translate(186.8 676.4)"/><line class="h" y2="12.2" transform="translate(90.9 1089.1)"/><line class="h" y2="12.2" transform="translate(167.5 1089.1)"/><line class="c" y1="96.7" x2="86.2" transform="translate(472.1 385)"/><line class="c" x1="98.5" transform="translate(192.9 718.9)"/><line class="c" y2="30.2" transform="translate(305.8 718.9)"/><rect class="c" width="4.8" height="98.5" transform="translate(192.9 718.9)"/><line class="c" x1="0.4" y2="4.8" transform="translate(290.5 725.4)"/><line class="c" y2="0.5" transform="translate(290.5 730.2)"/><line class="c" x1="0.9" y2="3.5" transform="translate(288.7 735.9)"/><line class="c" x1="0.4" y2="1.8" transform="translate(288.3 739.4)"/><line class="c" x1="0.5" y2="1.8" transform="translate(286.5 746.4)"/><line class="c" x1="0.8" y2="3.5" transform="translate(285.7 748.2)"/><line class="c" y2="0.4" transform="translate(283.5 756.5)"/><line class="c" x1="2.2" y2="4" transform="translate(281.3 756.9)"/><line class="c" y2="0.4" transform="translate(281.3 760.9)"/><line class="c" x1="1.7" y2="3.1" transform="translate(277.4 766.1)"/><line class="c" x1="0.9" y2="1.3" transform="translate(276.5 769.2)"/><line class="c" x1="1.3" y2="2.2" transform="translate(272.1 774.9)"/><line class="c" x1="1.8" y2="2.2" transform="translate(270.3 777.1)"/><line class="c" x1="0.4" y2="0.9" transform="translate(266.4 783.2)"/><line class="c" x1="3.1" y2="3" transform="translate(263.3 784.1)"/><line class="c" x1="3.1" y2="3.1" transform="translate(256.3 790.6)"/><line class="c" x1="0.8" y2="0.4" transform="translate(255.5 793.7)"/><line class="c" x1="2.6" y2="1.8" transform="translate(248.9 797.6)"/><line class="c" x1="1.7" y2="1.3" transform="translate(247.2 799.4)"/><line class="c" x1="1.8" y2="0.9" transform="translate(241 803.3)"/><line class="c" x1="3" y2="1.8" transform="translate(238 804.2)"/><line class="c" x1="0.5" y2="0.5" transform="translate(232.7 808.1)"/><line class="c" x1="3.9" y2="1.7" transform="translate(228.8 808.6)"/><line class="c" x1="0.5" transform="translate(228.3 810.3)"/><line class="c" x1="3.5" y2="0.9" transform="translate(220 812.5)"/><line class="c" x1="1.7" y2="0.4" transform="translate(218.3 813.4)"/><line class="c" x1="2.2" y2="0.9" transform="translate(210.8 814.7)"/><line class="c" x1="3" y2="0.4" transform="translate(207.8 815.6)"/><line class="c" x1="0.9" transform="translate(201.6 816.9)"/><line class="c" x1="4.3" transform="translate(197.3 816.9)"/><line class="j" y1="12.3" transform="translate(192.9 706.6)"/><line class="h" x2="14.4" transform="translate(178.5 706.6)"/><line class="h" x2="14.4" transform="translate(178.5 718.9)"/><line class="h" y1="12.3" transform="translate(291.4 706.6)"/><line class="h" x1="14.4" transform="translate(291.4 706.6)"/><rect class="c" width="226.7" height="105.1" transform="translate(92.9 48.4)"/><rect class="c" width="226.7" height="27.4" transform="translate(92.9 49)"/><path class="c" d="M544.6,366.2h-72a.472.472,0,0,1-.5-.5V288.1a.472.472,0,0,1,.5-.5h72a.472.472,0,0,1,.5.5v77.6A.472.472,0,0,1,544.6,366.2Z"/><line class="c" y2="78.7" transform="translate(480.8 287.5)"/></g></g></g></svg>