<svg xmlns="http://www.w3.org/2000/svg" xmlns:xlink="http://www.w3.org/1999/xlink" viewBox="2376 0 326 463"><defs><style>.a{clip-path:url(#n);}.b{clip-path:url(#a);}.c,.g,.h,.k,.l,.n{fill:none;}.d{clip-path:url(#e);}.e{clip-path:url(#k);}.f{clip-path:url(#l);}.g,.h{stroke:#435261;stroke-width:0.25px;}.g,.h,.k,.l,.n{stroke-miterlimit:10;}.h{stroke-dasharray:3.96 3.96;}.i{fill:#435261;font-size:27px;font-family:ArialMT, Arial;}.j{fill:#cbcfd4;}.k,.l,.n{stroke:#1d2938;stroke-linecap:round;stroke-linejoin:round;}.k{stroke-width:0.36px;}.l{stroke-width:0.72px;}.m{fill:#fff;}.n{stroke-width:0.144px;}.o{fill:#1d2938;}</style><clipPath id="a"><rect width="326" height="303.6" transform="translate(775.2 364.5)"/></clipPath><clipPath id="e"><rect width="326" height="303.6" transform="translate(-219.2 364.5)"/></clipPath><clipPath id="k"><rect width="326" height="303.6" transform="translate(-91.2 364.5)"/></clipPath><clipPath id="l"><rect width="326" height="463.644" transform="translate(775.2 514.5)"/></clipPath><clipPath id="n"><rect x="2376" width="326" height="463"/></clipPath></defs><g id="m" class="a"><g transform="translate(1600.8 -204.5)"><g class="b"><rect class="c" width="845" height="1306"/></g><g class="b"><rect class="c" width="845" height="1306"/></g><g class="b"><rect class="c" width="845" height="1306"/></g><g class="b"><rect class="c" width="845" height="1306"/></g><g class="d" transform="translate(994.4)"><rect class="c" width="845" height="1306"/></g><g class="b"><rect class="c" width="845" height="1306"/></g><g class="b"><rect class="c" width="845" height="1306"/></g><g class="b"><rect class="c" width="845" height="1306"/></g><g class="b"><rect class="c" width="845" height="1306"/></g><g class="b"><rect class="c" width="845" height="1306"/></g><g class="e" transform="translate(866.4)"><rect class="c" width="845" height="1306"/></g><g class="f" transform="translate(0 -310.044)"><rect class="g" width="149.718" height="501.98" transform="translate(1399.128 -935.898)"/><g transform="translate(1452.857 -935.898)"><line class="g" y2="6.037"/><line class="h" y2="472.096" transform="translate(0 18.111)"/><line class="g" y2="6.037" transform="translate(0 496.244)"/></g><path class="g" d="M1078.824,206.533h-74.859A10.7,10.7,0,0,1,993.4,195.969v-82.1a10.7,10.7,0,0,1,10.565-10.565h74.859a10.7,10.7,0,0,1,10.565,10.565v82.1A10.7,10.7,0,0,1,1078.824,206.533Z" transform="translate(440.441 -830.015)"/><g transform="translate(845.23 530.498)"><rect class="g" width="7.244" height="115.307" transform="translate(0.604)"/><line class="g" x2="7.848" y2="0.604" transform="translate(0 0.604)"/><line class="g" x2="6.037" y2="0.604" transform="translate(15.696 1.811)"/><line class="g" x2="1.811" y2="0.906" transform="translate(21.733 2.415)"/><line class="g" x2="1.509" transform="translate(30.789 5.132)"/><line class="g" x2="6.641" y2="2.113" transform="translate(32.298 5.132)"/><line class="g" x2="6.339" y2="3.32" transform="translate(46.183 9.659)"/><line class="g" x2="0.906" transform="translate(52.522 12.98)"/><line class="g" x2="2.113" y2="1.509" transform="translate(59.767 16.904)"/><line class="g" x2="4.528" y2="3.32" transform="translate(61.88 18.413)"/><line class="g" x2="6.037" y2="5.131" transform="translate(73.048 26.261)"/><line class="g" x2="2.113" y2="1.811" transform="translate(84.217 36.826)"/><line class="g" x2="3.32" y2="3.924" transform="translate(86.33 38.637)"/><line class="g" x2="3.924" y2="6.641" transform="translate(94.781 48.598)"/><line class="g" x2="2.113" y2="3.924" transform="translate(102.63 61.88)"/><line class="g" x2="1.207" y2="3.32" transform="translate(104.742 65.804)"/><line class="g" x2="2.717" y2="7.244" transform="translate(108.667 76.972)"/><line class="g" x2="0.604" y2="4.83" transform="translate(113.194 92.065)"/><line class="g" x2="0.906" y2="3.019" transform="translate(113.798 96.895)"/></g><line class="g" y2="181.111" transform="translate(977.742 -368.417)"/><line class="g" x1="148.511" transform="translate(829.231 -368.417)"/><line class="g" x1="148.511" transform="translate(829.231 -323.742)"/><line class="g" x1="148.511" transform="translate(829.231 -278.163)"/><line class="g" x1="148.511" transform="translate(829.231 -232.583)"/><line class="g" x1="148.511" transform="translate(829.231 -187.305)"/><line class="g" x1="111.383" transform="translate(829.231 -142.33)"/><line class="g" x1="74.557" transform="translate(829.231 -97.052)"/><line class="g" x1="37.731" transform="translate(829.231 -51.472)"/><line class="g" x1="148.511" y2="181.413" transform="translate(829.231 -187.305)"/><line class="g" y2="110.78" transform="translate(903.789 -368.417)"/><path class="g" d="M828.882,258.7l-6.641,25.054L815.6,258.7Z" transform="translate(81.548 -516.337)"/><path class="g" d="M828.58,258.6l-6.339,25.054L815.6,258.6Z" transform="translate(81.548 -516.539)"/><path class="g" d="M828.882,258.7l-6.641,25.054L815.6,258.7Z" transform="translate(81.548 -516.337)"/><text class="i" transform="translate(885.033 -380.444)"><tspan x="0" y="0">UP</tspan></text><g transform="translate(1220.733 -86.487)"><rect class="g" width="7.244" height="148.209" transform="translate(0.604)"/><line class="g" x2="6.641" y2="0.604"/><line class="g" x2="1.207" transform="translate(6.641 0.604)"/><line class="g" x2="4.528" y2="0.604" transform="translate(15.998 1.509)"/><line class="g" x2="3.32" transform="translate(20.526 2.113)"/><line class="g" x2="2.717" y2="0.906" transform="translate(31.694 3.924)"/><line class="g" x2="5.131" y2="1.207" transform="translate(34.411 4.83)"/><line class="g" x2="6.641" y2="2.717" transform="translate(47.391 7.848)"/><line class="g" x2="0.604" transform="translate(54.032 10.565)"/><line class="g" x2="4.83" y2="2.717" transform="translate(61.88 13.885)"/><line class="g" x2="2.415" y2="1.207" transform="translate(66.709 16.602)"/><line class="g" x2="2.717" y2="1.509" transform="translate(76.368 21.733)"/><line class="g" x2="3.924" y2="2.415" transform="translate(79.085 23.243)"/><line class="g" x2="0.604" y2="0.604" transform="translate(89.65 30.487)"/><line class="g" x2="5.433" y2="4.528" transform="translate(90.254 31.091)"/><line class="g" x2="4.83" y2="3.924" transform="translate(101.422 41.052)"/><line class="g" x2="1.207" y2="1.207" transform="translate(106.252 44.976)"/><line class="g" x2="2.717" y2="3.32" transform="translate(112.591 52.22)"/><line class="g" x2="2.113" y2="2.415" transform="translate(115.307 55.541)"/><line class="g" x2="1.207" y2="2.113" transform="translate(121.948 64.596)"/><line class="g" x2="3.32" y2="4.528" transform="translate(123.155 66.709)"/><line class="g" x2="3.32" y2="6.641" transform="translate(130.4 78.481)"/><line class="g" y2="0.604" transform="translate(133.72 85.122)"/><line class="g" x2="2.113" y2="4.528" transform="translate(137.041 92.97)"/><line class="g" x2="1.207" y2="2.717" transform="translate(139.154 97.498)"/><line class="g" x2="0.604" y2="3.32" transform="translate(143.078 107.459)"/><line class="g" x2="0.604" y2="4.528" transform="translate(143.682 110.78)"/><line class="g" y2="1.207" transform="translate(146.398 123.457)"/><line class="g" x2="0.604" y2="6.641" transform="translate(146.398 124.665)"/></g><g transform="translate(1209.565 -980.572)"><rect class="g" width="7.244" height="148.209" transform="translate(145.493 7.244)"/><line class="g" x1="6.339" transform="translate(146.398 155.454)"/><line class="g" x1="1.509" transform="translate(144.889 155.454)"/><line class="g" x1="4.528" y1="0.604" transform="translate(132.513 154.246)"/><line class="g" x1="3.32" y1="0.604" transform="translate(129.193 153.643)"/><line class="g" x1="2.717" y1="0.604" transform="translate(118.628 151.53)"/><line class="g" x1="5.433" y1="1.207" transform="translate(113.194 150.322)"/><line class="g" x1="0.604" transform="translate(105.346 147.606)"/><line class="g" x1="6.641" y1="2.717" transform="translate(98.706 144.889)"/><line class="g" x1="0.604" transform="translate(98.102 144.889)"/><line class="g" x1="4.528" y1="1.811" transform="translate(86.33 139.757)"/><line class="g" x1="2.717" y1="1.509" transform="translate(83.613 138.248)"/><line class="g" x1="3.019" y1="1.811" transform="translate(73.954 132.513)"/><line class="g" x1="3.32" y1="2.113" transform="translate(70.633 130.4)"/><line class="g" x1="1.509" y1="1.207" transform="translate(62.483 124.665)"/><line class="g" x1="4.528" y1="4.226" transform="translate(57.956 120.439)"/><line class="g" x1="4.528" y1="4.528" transform="translate(46.787 110.78)"/><line class="g" x1="0.604" y1="0.906" transform="translate(46.183 109.874)"/><line class="g" x1="3.32" y1="3.924" transform="translate(37.43 100.215)"/><line class="g" x1="1.811" y1="2.113" transform="translate(35.619 98.102)"/><line class="g" x1="2.113" y1="2.415" transform="translate(29.582 89.046)"/><line class="g" x1="2.415" y1="3.924" transform="translate(27.167 85.122)"/><line class="g" x1="0.604" y1="1.509" transform="translate(22.337 76.972)"/><line class="g" x1="3.32" y1="5.735" transform="translate(19.017 71.237)"/><line class="g" x1="2.717" y1="6.037" transform="translate(13.885 57.956)"/><line class="g" x1="0.604" y1="1.207" transform="translate(13.282 56.748)"/><line class="g" x1="1.207" y1="4.83" transform="translate(9.358 44.674)"/><line class="g" x1="0.906" y1="3.32" transform="translate(8.452 41.354)"/><line class="g" x1="0.604" y1="1.811" transform="translate(6.641 31.694)"/><line class="g" x1="0.604" y1="6.037" transform="translate(6.037 25.657)"/><line class="g" x2="156.057" transform="translate(0 7.244)"/><line class="g" x2="156.057" transform="translate(0 0)"/></g><rect class="g" width="98.706" height="247.217" transform="translate(841.305 150.769)"/><rect class="g" width="98.706" height="247.217" transform="translate(841.305 150.769)"/><rect class="j" width="168.735" height="32.902" transform="translate(964.461 942.224)"/><rect class="k" width="168.735" height="32.902" transform="translate(964.461 942.224)"/><rect class="k" width="32.902" height="110.78" transform="translate(1573.9 524.461)"/><path class="l" d="M1091.7,507.5a20.784,20.784,0,0,1,12.376,3.924,25.745,25.745,0,0,1,9.056,10.565c2.113,4.528,3.32,7.848,3.32,10.565V655.709c0,2.717-1.208,6.037-3.32,10.565a25.747,25.747,0,0,1-9.056,10.565c-3.924,2.717-6.943,3.924-9.055,3.924h-3.32" transform="translate(638.861 -14.13)"/><path class="k" d="M1091.7,506.1a26.608,26.608,0,0,1,14.791,4.528,31.657,31.657,0,0,1,10.565,12.074c2.415,5.131,3.622,9.055,3.622,12.376V658.233c0,3.32-1.208,7.245-3.622,12.376a29.334,29.334,0,0,1-10.565,12.074c-4.528,3.019-8.15,4.528-11.47,4.528h-3.32" transform="translate(638.861 -16.956)"/><line class="k" x2="32.902" transform="translate(1573.9 631.317)"/><line class="k" y2="110.78" transform="translate(1573.9 524.461)"/><line class="k" y2="110.78" transform="translate(1606.802 524.461)"/><line class="l" x2="124.061" transform="translate(1606.802 493.37)"/><line class="k" x2="124.061" transform="translate(1606.802 488.843)"/><line class="l" x2="124.061" transform="translate(1606.802 666.03)"/><line class="k" x2="127.381" transform="translate(1606.802 669.954)"/><line class="k" x2="32.902" transform="translate(1573.9 528.385)"/><line class="k" y1="110.78" transform="translate(1590.502 524.461)"/><rect class="m" width="4.528" height="44.674" transform="translate(1738.107 557.363)"/><rect class="k" width="4.528" height="44.674" transform="translate(1738.107 557.363)"/><rect class="g" width="78.481" height="140.361" transform="translate(1471.27 -78.639)"/><rect class="g" width="78.481" height="140.361" transform="translate(1471.27 -78.639)"/><path class="g" d="M1057.9,366.026v24.45c0,6.943-3.622,12.376-8.15,12.376h-32.9c-4.528,0-8.15-5.735-8.15-12.376v-48.9c0-6.943,3.622-12.376,8.15-12.376h32.9c4.528,0,8.15,5.735,8.15,12.376v24.45" transform="translate(471.324 -374.031)"/><path class="g" d="M1057.9,366.026v24.45c0,6.943-3.622,12.376-8.15,12.376h-32.9c-4.528,0-8.15-5.735-8.15-12.376v-48.9c0-6.943,3.622-12.376,8.15-12.376h32.9c4.528,0,8.15,5.735,8.15,12.376v24.45" transform="translate(471.324 -374.031)"/><rect class="g" width="26.261" height="73.652" transform="translate(1520.472 -210.85)"/><rect class="g" width="26.261" height="73.652" transform="translate(1520.472 -210.85)"/><path class="g" d="M1069.671,305.778h0c0-16-17.206-28.978-38.335-28.978S993,289.78,993,305.778s17.206,28.978,38.335,28.978c21.431,0,38.335-12.98,38.335-28.978h0" transform="translate(439.633 -479.802)"/><path class="g" d="M1069.671,305.778h0c0-16-17.206-28.978-38.335-28.978S993,289.78,993,305.778s17.206,28.978,38.335,28.978c21.431,0,38.335-12.98,38.335-28.978h0" transform="translate(439.633 -479.802)"/><path class="n" d="M988.7,206.7h129.8V352.494H988.7" transform="translate(430.954 -621.3)"/><rect class="o" width="489.604" height="32.902" transform="translate(709.396 -993.853)"/><rect class="o" width="32.902" height="1903.176" transform="translate(775.2 -960.952)"/><rect class="o" width="32.902" height="588.309" transform="translate(1573.9 -74.715)"/><line class="k" y2="529.75" transform="translate(1573.9 -5.289)"/><rect class="o" width="32.902" height="298.23" transform="translate(1573.9 645.504)"/><line class="k" y2="296.418" transform="translate(1573.9 645.806)"/><line class="k" x2="156.057" transform="translate(808.404 942.224)"/><line class="k" x2="390.596" transform="translate(808.404 -960.952)"/><line class="l" x2="380.333" transform="translate(829.231 -935.898)"/><rect class="g" width="338.074" height="274.081" transform="translate(1206.244 171.294)"/><rect class="g" width="338.074" height="274.081" transform="translate(1206.244 171.294)"/><rect class="g" width="327.509" height="239.067" transform="translate(1211.678 188.5)"/><rect class="g" width="327.509" height="239.067" transform="translate(1211.678 188.5)"/><rect class="g" width="60.069" height="108.063" transform="translate(1467.346 197.556)"/><rect class="g" width="60.069" height="108.063" transform="translate(1467.346 197.556)"/><rect class="g" width="60.069" height="108.063" transform="translate(1467.346 312.259)"/><rect class="g" width="60.069" height="108.063" transform="translate(1467.346 312.259)"/><line class="l" y2="10.565" transform="translate(1187.831 -414.6)"/><line class="l" y2="317.548" transform="translate(1187.831 -255.826)"/><rect class="o" width="473.907" height="32.902" transform="translate(1133.196 942.224)"/><rect class="o" width="255.065" height="32.902" transform="translate(709.396 942.224)"/><path class="o" d="M1039.8,813.231V25.7h32.9V813.231h-32.9v0Z" transform="translate(534.1 -986.652)"/><rect class="o" width="230.615" height="32.902" transform="translate(1376.187 -993.853)"/><line class="k" y2="32.902" transform="translate(1199 -993.853)"/><line class="k" y2="1903.176" transform="translate(775.2 -960.952)"/><line class="k" y2="32.902" transform="translate(964.461 942.224)"/><line class="k" y2="787.531" transform="translate(1573.9 -960.952)"/><line class="k" y2="69.124" transform="translate(1573.9 -74.413)"/><line class="l" y2="502.281" transform="translate(1549.45 -935.898)"/><line class="l" y2="145.794" transform="translate(1549.45 -414.6)"/><line class="l" y2="76.368" transform="translate(1549.45 -249.789)"/><line class="g" y2="140.361" transform="translate(1549.45 -78.639)"/><line class="l" y2="436.176" transform="translate(1549.45 88.285)"/><line class="l" y2="252.952" transform="translate(1549.45 664.218)"/><line class="k" y2="32.902" transform="translate(1376.187 -993.853)"/><line class="l" y2="820.433" transform="translate(1606.802 -993.853)"/><line class="l" y2="598.874" transform="translate(1606.802 -74.413)"/><line class="l" y2="339.885" transform="translate(1606.802 635.241)"/><line class="k" x2="65.804" transform="translate(709.396 -960.952)"/><line class="k" x2="197.713" transform="translate(1376.187 -960.952)"/><line class="l" x2="500.168" transform="translate(709.396 -993.853)"/><line class="l" x2="241.18" transform="translate(1365.622 -993.853)"/><line class="k" x2="65.804" transform="translate(709.396 942.224)"/><line class="l" x2="253.857" transform="translate(829.231 917.17)"/><line class="l" x2="447.948" transform="translate(1101.502 917.17)"/><line class="l" x2="897.405" transform="translate(709.396 975.126)"/><line class="l" y2="57.956" transform="translate(1209.565 -993.853)"/><line class="l" y2="57.956" transform="translate(1365.622 -993.853)"/><line class="k" y2="102.931" transform="translate(1590.502 528.385)"/><line class="k" y2="102.931" transform="translate(1594.426 528.385)"/><line class="k" y2="102.931" transform="translate(1586.578 528.385)"/><line class="k" y2="110.78" transform="translate(1606.802 524.461)"/><line class="l" y2="252.952" transform="translate(829.231 664.218)"/><line class="k" y2="121.344" transform="translate(1549.45 524.461)"/><line class="l" y2="29.581" transform="translate(1169.418 -433.617)"/><line class="l" y2="325.698" transform="translate(1169.418 -255.826)"/><line class="l" x2="57.352" transform="translate(1549.45 524.461)"/><line class="n" x2="22.337" transform="translate(1551.563 521.745)"/><line class="l" x2="18.413" transform="translate(1169.418 -404.035)"/><line class="k" y2="32.902" transform="translate(1133.196 942.224)"/><line class="l" x2="73.652" transform="translate(1147.685 88.285)"/><line class="l" x2="179.904" transform="translate(1369.546 88.285)"/><line class="l" x2="16.602" transform="translate(829.231 664.218)"/><line class="l" x2="121.948" transform="translate(961.141 664.218)"/><line class="l" x2="109.27" transform="translate(1101.502 664.218)"/><line class="l" x2="156.057" transform="translate(1393.392 664.218)"/><line class="l" x2="16.602" transform="translate(829.231 645.806)"/><line class="l" x2="249.631" transform="translate(961.141 645.806)"/><line class="l" x2="180.507" transform="translate(1393.392 645.806)"/><line class="l" x2="33.506" transform="translate(1187.831 61.722)"/><line class="l" x2="179.904" transform="translate(1369.546 61.722)"/><line class="l" y2="26.563" transform="translate(1369.546 61.722)"/><line class="l" y2="26.563" transform="translate(1221.337 61.722)"/><line class="l" y1="18.413" transform="translate(1210.772 645.806)"/><line class="g" y1="145.794" transform="translate(1419.654 -414.6)"/><line class="l" y1="19.017" transform="translate(1403.354 -268.805)"/><line class="l" x2="146.096" transform="translate(1403.354 -249.789)"/><line class="g" y2="145.794" transform="translate(1403.354 -414.6)"/><line class="g" x1="129.796" y1="145.794" transform="translate(1419.654 -414.6)"/><line class="l" x2="380.031" transform="translate(1169.418 -433.617)"/><line class="l" x2="361.618" transform="translate(1187.831 -414.6)"/><line class="l" y2="145.794" transform="translate(1549.45 -414.6)"/><g transform="translate(1187.831 -404.639)"><rect class="g" width="148.209" height="7.244" transform="translate(0 0.604)"/><line class="g" y2="6.641" transform="translate(147.605)"/><line class="g" y2="1.207" transform="translate(147.605 6.641)"/><line class="g" x1="0.604" y2="4.83" transform="translate(146.398 15.696)"/><line class="g" x1="0.906" y2="3.019" transform="translate(145.492 20.526)"/><line class="g" x1="0.604" y2="2.415" transform="translate(143.681 31.694)"/><line class="g" x1="1.509" y2="5.433" transform="translate(142.172 34.109)"/><line class="g" y2="0.604" transform="translate(139.757 46.787)"/><line class="g" x1="2.113" y2="6.641" transform="translate(137.644 47.391)"/><line class="g" y2="0.604" transform="translate(137.644 54.031)"/><line class="g" x1="2.415" y2="4.528" transform="translate(131.909 61.88)"/><line class="g" x1="1.509" y2="2.717" transform="translate(130.4 66.407)"/><line class="g" x1="1.207" y2="2.717" transform="translate(125.268 76.369)"/><line class="g" x1="2.717" y2="3.924" transform="translate(122.552 79.085)"/><line class="g" x1="0.604" y2="0.604" transform="translate(117.42 89.65)"/><line class="g" x1="4.83" y2="5.131" transform="translate(112.591 90.254)"/><line class="g" x1="3.924" y2="4.528" transform="translate(103.535 101.422)"/><line class="g" x1="1.509" y2="1.509" transform="translate(102.026 105.95)"/><line class="g" x1="3.32" y2="2.717" transform="translate(92.97 112.591)"/><line class="g" x1="3.32" y2="1.811" transform="translate(89.65 115.307)"/><line class="g" x1="1.207" y2="1.207" transform="translate(81.802 121.948)"/><line class="g" x1="5.433" y2="3.32" transform="translate(76.368 123.156)"/><line class="g" x1="5.735" y2="3.32" transform="translate(63.389 130.4)"/><line class="g" x1="1.509" y2="0.604" transform="translate(61.88 133.72)"/><line class="g" x1="3.924" y2="1.509" transform="translate(50.711 137.644)"/><line class="g" x1="3.32" y2="1.207" transform="translate(47.391 139.154)"/><line class="g" x1="2.717" y2="0.604" transform="translate(37.43 143.078)"/><line class="g" x1="5.131" y2="0.604" transform="translate(32.298 143.681)"/><line class="g" x1="0.604" transform="translate(23.846 146.398)"/><line class="g" x1="6.641" y2="0.604" transform="translate(17.205 146.398)"/><line class="g" x1="0.604" transform="translate(16.602 147.002)"/></g><line class="l" x2="18.413" transform="translate(1169.418 -255.826)"/><line class="l" x2="146.096" transform="translate(1403.354 -268.805)"/><line class="g" x2="98.706" transform="translate(841.305 273.924)"/><line class="l" x2="183.828" transform="translate(1365.622 -935.898)"/><line class="l" y2="1056.481" transform="translate(829.231 -935.898)"/><line class="l" y2="506.809" transform="translate(829.231 138.996)"/><line class="g" x1="162.698" transform="translate(1006.72 133.563)"/><line class="g" x1="21.733" transform="translate(977.742 133.563)"/><line class="g" y2="21.13" transform="translate(1081.58 88.285)"/><path class="g" d="M887.58,380.3l-6.641,24.148L874.6,380.3Z" transform="translate(200.64 -270.885)"/><path class="g" d="M887.782,380.2l-6.641,24.45L874.5,380.2Z" transform="translate(200.439 -271.087)"/><path class="g" d="M887.58,380.3l-6.641,24.148L874.6,380.3Z" transform="translate(200.64 -270.885)"/><line class="k" y2="1903.176" transform="translate(808.404 -960.952)"/><line class="k" x2="765.496" transform="translate(808.404 942.224)"/><line class="k" x1="32.902" transform="translate(1573.9 645.806)"/><line class="k" x1="32.902" transform="translate(1573.9 513.896)"/><line class="l" y2="10.565" transform="translate(1573.9 635.241)"/><line class="l" x2="28.978" transform="translate(1549.45 -74.413)"/><line class="l" x2="7.244" transform="translate(1599.557 -74.413)"/><line class="l" x2="28.978" transform="translate(1549.45 -173.42)"/><line class="l" x2="7.244" transform="translate(1599.557 -173.42)"/><line class="g" y2="99.007" transform="translate(1549.45 -173.42)"/><line class="g" y2="99.007" transform="translate(1606.802 -173.42)"/><line class="g" y2="99.007" transform="translate(1578.428 -173.42)"/><line class="g" y2="99.007" transform="translate(1599.557 -173.42)"/><line class="n" x2="21.13" transform="translate(1578.428 -74.413)"/><line class="n" x1="21.13" transform="translate(1578.428 -173.42)"/><line class="g" x1="21.13" transform="translate(1578.428 -148.97)"/><line class="g" x1="21.13" transform="translate(1578.428 -123.917)"/><line class="g" x1="21.13" transform="translate(1578.428 -99.467)"/><rect class="g" width="197.713" height="7.244" transform="translate(1203.528 637.052)"/><line class="l" y1="18.413" transform="translate(1393.392 645.806)"/><line class="g" x2="100.215" transform="translate(1242.467 626.487)"/><path class="g" d="M963.2,549.4l25.054,6.641L963.2,562.682Z" transform="translate(379.481 70.446)"/><path class="g" d="M963.1,549.4l25.054,6.641L963.1,562.682Z" transform="translate(379.279 70.446)"/><path class="g" d="M963.2,549.4l25.054,6.641L963.2,562.682Z" transform="translate(379.481 70.446)"/><line class="l" y1="252.952" transform="translate(1101.502 664.218)"/><line class="l" y1="252.952" transform="translate(1083.089 664.218)"/><line class="l" y2="90.254" transform="translate(977.742 -187.305)"/><line class="l" y2="42.863" transform="translate(977.742 27.009)"/><line class="l" y2="50.711" transform="translate(977.742 88.285)"/><line class="l" y2="67.615" transform="translate(959.028 -164.667)"/><line class="l" y2="93.574" transform="translate(959.028 27.009)"/><line class="l" x2="129.796" transform="translate(829.231 120.583)"/><line class="l" x2="148.511" transform="translate(829.231 138.996)"/><line class="l" x1="18.715" transform="translate(959.028 -97.052)"/><line class="l" x1="18.715" transform="translate(959.028 27.009)"/><g transform="translate(977.742 -97.655)"><rect class="g" width="123.759" height="7.244" transform="translate(0 0.604)"/><line class="g" x1="0.604" y2="7.848" transform="translate(122.552)"/><line class="g" x1="0.604" y2="7.244" transform="translate(121.043 15.998)"/><line class="g" y2="0.604" transform="translate(121.043 23.243)"/><line class="g" x1="0.604" y2="2.717" transform="translate(118.628 31.694)"/><line class="g" x1="2.113" y2="4.528" transform="translate(116.515 34.411)"/><line class="g" x1="2.415" y2="7.244" transform="translate(111.383 46.183)"/><line class="g" x1="3.32" y2="5.735" transform="translate(103.837 60.068)"/><line class="g" x1="0.604" y2="0.906" transform="translate(103.233 65.804)"/><line class="g" x1="1.207" y2="2.717" transform="translate(97.498 73.048)"/><line class="g" x1="3.32" y2="3.924" transform="translate(94.178 75.765)"/><line class="g" x1="5.735" y2="5.131" transform="translate(83.009 85.726)"/><line class="g" x1="3.924" y2="3.924" transform="translate(73.048 96.291)"/><line class="g" x1="2.113" y2="1.207" transform="translate(70.935 100.215)"/><line class="g" x1="1.509" y2="0.906" transform="translate(63.087 105.346)"/><line class="g" x1="5.735" y2="3.32" transform="translate(57.352 106.252)"/><line class="g" x1="7.244" y2="3.32" transform="translate(42.561 112.591)"/><line class="g" x1="4.528" y2="1.207" transform="translate(30.789 118.628)"/><line class="g" x1="3.32" y2="0.906" transform="translate(27.469 119.835)"/><line class="g" x1="0.604" transform="translate(19.62 121.948)"/><line class="g" x1="7.244" y2="0.604" transform="translate(12.376 121.948)"/></g><line class="l" y2="18.413" transform="translate(845.833 645.806)"/><line class="l" y2="18.413" transform="translate(961.141 645.806)"/><line class="g" y1="145.794" x2="129.796" transform="translate(1419.654 -414.6)"/><g transform="translate(999.476 88.285)"><line class="g" x1="148.209"/><line class="g" y2="45.278" transform="translate(169.943)"/><rect class="g" width="7.244" height="148.209"/><line class="g" x1="0.906" y2="7.244" transform="translate(146.7 9.961)"/><line class="g" y2="0.604" transform="translate(146.7 17.206)"/><line class="g" x1="1.207" y2="5.131" transform="translate(144.285 25.657)"/><line class="g" x1="0.604" y2="2.717" transform="translate(143.681 30.789)"/><line class="g" x1="0.604" y2="2.717" transform="translate(140.965 41.354)"/><line class="g" x1="1.509" y2="5.433" transform="translate(139.456 44.07)"/><line class="g" y2="0.604" transform="translate(136.437 56.748)"/><line class="g" x1="3.32" y2="5.735" transform="translate(133.117 57.352)"/><line class="g" y2="0.906" transform="translate(133.117 63.087)"/><line class="g" x1="2.717" y2="4.528" transform="translate(127.08 71.237)"/><line class="g" x1="1.207" y2="1.811" transform="translate(125.872 75.765)"/><line class="g" x1="1.811" y2="3.32" transform="translate(119.231 84.217)"/><line class="g" x1="2.717" y2="3.32" transform="translate(116.515 87.537)"/><line class="g" x1="0.906" y2="1.207" transform="translate(110.478 96.894)"/><line class="g" x1="4.528" y2="4.528" transform="translate(105.95 98.102)"/><line class="g" x1="4.528" y2="4.528" transform="translate(95.385 108.063)"/><line class="g" x1="1.207" y2="0.604" transform="translate(94.178 112.591)"/><line class="g" x1="3.924" y2="2.415" transform="translate(84.217 118.628)"/><line class="g" x1="2.717" y2="2.113" transform="translate(81.5 121.043)"/><line class="g" x1="2.415" y2="1.207" transform="translate(72.444 127.08)"/><line class="g" x1="4.83" y2="2.717" transform="translate(67.615 128.287)"/><line class="g" x1="0.604" y2="0.604" transform="translate(59.767 134.324)"/><line class="g" x1="5.735" y2="2.717" transform="translate(54.032 134.928)"/><line class="g" x1="0.906" transform="translate(53.126 137.644)"/><line class="g" x1="5.131" y2="1.207" transform="translate(40.75 140.965)"/><line class="g" x1="2.717" y2="0.906" transform="translate(38.033 142.172)"/><line class="g" x1="3.32" y2="1.207" transform="translate(26.865 144.285)"/><line class="g" x1="4.528" y2="0.604" transform="translate(22.337 145.493)"/><line class="g" x1="1.509" transform="translate(12.98 147.606)"/><line class="g" x1="6.641" transform="translate(6.339 147.606)"/></g><line class="n" y1="18.413" transform="translate(999.476 69.872)"/><line class="l" x2="21.733" transform="translate(977.742 69.872)"/><line class="l" x2="21.733" transform="translate(977.742 88.285)"/><line class="l" y1="18.413" transform="translate(1147.685 69.872)"/><line class="l" x1="21.733" transform="translate(1147.685 69.872)"/><rect class="g" width="341.394" height="158.472" transform="translate(848.852 -921.409)"/><rect class="g" width="341.394" height="41.052" transform="translate(848.852 -920.503)"/><path class="g" d="M1097.065,276.526H990.209a1.426,1.426,0,0,1-1.509-1.509V159.709a1.426,1.426,0,0,1,1.509-1.509h106.856a1.426,1.426,0,0,1,1.509,1.509V275.017C1098.876,275.62,1097.971,276.526,1097.065,276.526Z" transform="translate(430.953 -719.198)"/><line class="g" y2="118.628" transform="translate(1432.935 -561.3)"/></g></g></g></svg>