<svg xmlns="http://www.w3.org/2000/svg" xmlns:xlink="http://www.w3.org/1999/xlink" viewBox="396 0 326 316"><defs><style>.a{clip-path:url(#c);}.b{clip-path:url(#a);}.c,.d,.g,.h,.j{fill:none;stroke-miterlimit:10;}.c,.d{stroke:#435261;stroke-width:0.25px;}.d{stroke-dasharray:3.945 3.945;}.e{fill:#435261;font-size:14px;font-family:ArialMT, Arial;}.f{fill:#cbcfd4;}.g,.h,.j{stroke:#1d2938;stroke-linecap:round;stroke-linejoin:round;}.g{stroke-width:0.36px;}.h{stroke-width:0.72px;}.i{fill:#fff;}.j{stroke-width:0.144px;}.k{fill:#1d2938;}</style><clipPath id="a"><rect width="326" height="315.2" transform="translate(35.6 0.4)"/></clipPath><clipPath id="c"><rect x="396" width="326" height="316"/></clipPath></defs><g id="b" class="a"><g transform="translate(360.4 -0.4)"><g class="b"><rect class="c" width="80.1" height="268.3" transform="translate(368.9 31.3)"/><line class="c" y2="2" transform="translate(397.6 31.3)"/><line class="d" y2="258.4" transform="translate(397.6 37.3)"/><line class="c" y2="2" transform="translate(397.6 297.7)"/><path class="c" d="M435.2,198.2H391a3.543,3.543,0,0,1-3.5-3.5V146.5A3.543,3.543,0,0,1,391,143h44.3a3.543,3.543,0,0,1,3.5,3.5v48.2A3.564,3.564,0,0,1,435.2,198.2Z"/><rect class="c" width="3.9" height="61.6" transform="translate(73.3 814.9)"/><line class="c" x2="4.2" y2="0.4" transform="translate(72.9 815.2)"/><line class="c" x2="3.1" y2="0.4" transform="translate(81.4 815.9)"/><line class="c" x2="1.1" y2="0.3" transform="translate(84.5 816.3)"/><line class="c" x2="0.7" transform="translate(89.5 817.7)"/><line class="c" x2="3.5" y2="1" transform="translate(90.2 817.7)"/><line class="c" x2="3.6" y2="1.8" transform="translate(97.5 820.1)"/><line class="c" x2="0.3" transform="translate(101.1 821.9)"/><line class="c" x2="1.1" y2="0.7" transform="translate(104.9 824)"/><line class="c" x2="2.5" y2="1.8" transform="translate(106 824.7)"/><line class="c" x2="3.2" y2="2.9" transform="translate(112 828.9)"/><line class="c" x2="1" y2="1" transform="translate(118 834.6)"/><line class="c" x2="1.8" y2="2.1" transform="translate(119 835.6)"/><line class="c" x2="2.1" y2="3.5" transform="translate(123.6 840.9)"/><line class="c" x2="1.1" y2="2.1" transform="translate(127.8 848)"/><line class="c" x2="0.7" y2="1.7" transform="translate(128.9 850.1)"/><line class="c" x2="1.4" y2="3.8" transform="translate(131 856.1)"/><line class="c" x2="0.3" y2="2.5" transform="translate(133.5 864.1)"/><line class="c" x2="0.4" y2="1.8" transform="translate(133.8 866.6)"/><line class="c" y2="96.9" transform="translate(143.7 334.5)"/><line class="c" x1="79.3" transform="translate(64.4 334.5)"/><line class="c" x1="79.3" transform="translate(64.4 358.5)"/><line class="c" x1="79.3" transform="translate(64.4 382.8)"/><line class="c" x1="79.3" transform="translate(64.4 407.1)"/><line class="c" x1="79.3" transform="translate(64.4 431.4)"/><line class="c" x1="59.6" transform="translate(64.4 455.3)"/><line class="c" x1="39.8" transform="translate(64.4 479.6)"/><line class="c" x1="20.1" transform="translate(64.4 503.9)"/><line class="c" x1="79.3" y2="96.8" transform="translate(64.4 431.4)"/><line class="c" y2="59.2" transform="translate(104.2 334.5)"/><path class="c" d="M107.8,393.7l-3.6,13.4-3.5-13.4Z"/><path class="c" d="M107.7,393.6,104.2,407l-3.6-13.4Z"/><path class="c" d="M107.8,393.7l-3.6,13.4-3.5-13.4Z"/><text class="e" transform="translate(94.205 328.198)"><tspan x="0" y="0">UP</tspan></text><rect class="c" width="3.9" height="79.2" transform="translate(274 485.3)"/><line class="c" x2="3.5" y2="0.3" transform="translate(273.6 485.3)"/><line class="c" x2="0.7" transform="translate(277.1 485.6)"/><line class="c" x2="2.4" y2="0.3" transform="translate(282.1 486)"/><line class="c" x2="1.8" transform="translate(284.5 486.3)"/><line class="c" x2="1.4" y2="0.3" transform="translate(290.5 487.4)"/><line class="c" x2="2.8" y2="0.7" transform="translate(291.9 487.7)"/><line class="c" x2="3.5" y2="1.4" transform="translate(299 489.5)"/><line class="c" x2="0.3" transform="translate(302.5 490.9)"/><line class="c" x2="2.5" y2="1.5" transform="translate(306.7 492.6)"/><line class="c" x2="1.4" y2="0.7" transform="translate(309.2 494.1)"/><line class="c" x2="1.4" y2="0.7" transform="translate(314.5 496.9)"/><line class="c" x2="2.1" y2="1.4" transform="translate(315.9 497.6)"/><line class="c" x2="0.4" y2="0.4" transform="translate(321.5 501.4)"/><line class="c" x2="2.8" y2="2.5" transform="translate(321.9 501.8)"/><line class="c" x2="2.5" y2="2.1" transform="translate(327.8 507.1)"/><line class="c" x2="0.7" y2="0.7" transform="translate(330.3 509.2)"/><line class="c" x2="1.4" y2="1.7" transform="translate(333.8 513.1)"/><line class="c" x2="1.1" y2="1.4" transform="translate(335.2 514.8)"/><line class="c" x2="0.7" y2="1" transform="translate(338.8 519.8)"/><line class="c" x2="1.7" y2="2.5" transform="translate(339.5 520.8)"/><line class="c" x2="1.8" y2="3.5" transform="translate(343.3 527.2)"/><line class="c" y2="0.3" transform="translate(345.1 530.7)"/><line class="c" x2="1" y2="2.5" transform="translate(346.9 534.9)"/><line class="c" x2="0.7" y2="1.4" transform="translate(347.9 537.4)"/><line class="c" x2="0.4" y2="1.8" transform="translate(350 542.6)"/><line class="c" x2="0.3" y2="2.5" transform="translate(350.4 544.4)"/><line class="c" y2="0.7" transform="translate(351.8 551.1)"/><line class="c" x2="0.3" y2="3.5" transform="translate(351.8 551.8)"/><rect class="c" width="3.9" height="79.2" transform="translate(345.5 11.3)"/><line class="c" x1="3.5" transform="translate(345.8 90.5)"/><line class="c" x1="0.7" transform="translate(345.1 90.5)"/><line class="c" x1="2.5" y1="0.4" transform="translate(338.4 89.8)"/><line class="c" x1="1.8" y1="0.3" transform="translate(336.6 89.5)"/><line class="c" x1="1.4" y1="0.3" transform="translate(331 88.4)"/><line class="c" x1="2.8" y1="0.7" transform="translate(328.2 87.7)"/><line class="c" x1="0.3" transform="translate(324 86.3)"/><line class="c" x1="3.5" y1="1.4" transform="translate(320.5 84.9)"/><line class="c" x1="0.4" transform="translate(320.1 84.9)"/><line class="c" x1="2.4" y1="1" transform="translate(313.8 82.1)"/><line class="c" x1="1.4" y1="0.7" transform="translate(312.4 81.4)"/><line class="c" x1="1.7" y1="1" transform="translate(307.1 78.2)"/><line class="c" x1="1.8" y1="1.1" transform="translate(305.3 77.1)"/><line class="c" x1="0.7" y1="0.7" transform="translate(301.1 74)"/><line class="c" x1="2.5" y1="2.2" transform="translate(298.6 71.8)"/><line class="c" x1="2.5" y1="2.4" transform="translate(292.6 66.6)"/><line class="c" x1="0.3" y1="0.4" transform="translate(292.3 66.2)"/><line class="c" x1="1.8" y1="2.1" transform="translate(287.7 60.9)"/><line class="c" x1="1.1" y1="1" transform="translate(286.6 59.9)"/><line class="c" x1="1" y1="1.4" transform="translate(283.5 54.9)"/><line class="c" x1="1.4" y1="2.1" transform="translate(282.1 52.8)"/><line class="c" x1="0.4" y1="0.7" transform="translate(279.6 48.6)"/><line class="c" x1="1.8" y1="3.2" transform="translate(277.8 45.4)"/><line class="c" x1="1.4" y1="3.2" transform="translate(275 38.4)"/><line class="c" x1="0.3" y1="0.7" transform="translate(274.7 37.7)"/><line class="c" x1="0.7" y1="2.5" transform="translate(272.6 31.3)"/><line class="c" x1="0.4" y1="1.7" transform="translate(272.2 29.6)"/><line class="c" x1="0.3" y1="1.1" transform="translate(271.2 24.3)"/><line class="c" x1="0.4" y1="3.2" transform="translate(270.8 21.1)"/><line class="c" x2="83.5" transform="translate(267.6 11.3)"/><line class="c" x2="83.5" transform="translate(267.6 7.4)"/><rect class="c" width="52.8" height="132.1" transform="translate(70.8 612)"/><rect class="c" width="52.8" height="132.1" transform="translate(70.8 612)"/><rect class="f" width="90.1" height="17.6" transform="translate(136.6 1034.9)"/><rect class="g" width="90.1" height="17.6" transform="translate(136.6 1034.9)"/><rect class="g" width="17.6" height="59.2" transform="translate(462.4 811.7)"/><path class="h" d="M546,795a11.26,11.26,0,0,1,6.6,2.1,14.526,14.526,0,0,1,4.8,5.6,14.008,14.008,0,0,1,1.8,5.6v65.8a13.148,13.148,0,0,1-1.8,5.6,13.938,13.938,0,0,1-4.8,5.6c-2,1.4-3.7,2.1-4.8,2.1H546"/><path class="g" d="M546,792.8a13.788,13.788,0,0,1,7.8,2.4,16.9,16.9,0,0,1,5.6,6.5,16.453,16.453,0,0,1,2,6.6v65.8a16.452,16.452,0,0,1-2,6.6,16.9,16.9,0,0,1-5.6,6.5c-2.4,1.6-4.4,2.4-6.1,2.4H546"/><line class="g" x2="17.6" transform="translate(462.4 868.7)"/><line class="g" y2="59.1" transform="translate(462.4 811.7)"/><line class="g" y2="59.1" transform="translate(480 811.7)"/><line class="h" x2="66.2" transform="translate(480 795.1)"/><line class="g" x2="66.2" transform="translate(480 792.7)"/><line class="h" x2="66.2" transform="translate(480 887.4)"/><line class="g" x2="67.9" transform="translate(480 889.5)"/><line class="g" x2="17.6" transform="translate(462.4 813.8)"/><line class="g" y1="59.1" transform="translate(471.2 811.7)"/><rect class="i" width="2.5" height="23.9" transform="translate(550 829.3)"/><rect class="g" width="2.5" height="23.9" transform="translate(550 829.3)"/><rect class="c" width="41.9" height="75" transform="translate(407.4 489.5)"/><rect class="c" width="41.9" height="75" transform="translate(407.4 489.5)"/><path class="c" d="M438.4,527.2v13c0,3.7-2,6.7-4.4,6.7H416.4c-2.4,0-4.4-3-4.4-6.7V514.1c0-3.7,2-6.7,4.4-6.7H434c2.4,0,4.4,3,4.4,6.7v13.1"/><path class="c" d="M438.4,527.2v13c0,3.7-2,6.7-4.4,6.7H416.4c-2.4,0-4.4-3-4.4-6.7V514.1c0-3.7,2-6.7,4.4-6.7H434c2.4,0,4.4,3,4.4,6.7v13.1"/><rect class="c" width="14.1" height="39.4" transform="translate(433.8 418.7)"/><rect class="c" width="14.1" height="39.4" transform="translate(433.8 418.7)"/><path class="c" d="M427.9,438.4h0c0-8.6-9.1-15.5-20.4-15.5s-20.4,6.9-20.4,15.5,9.1,15.5,20.4,15.5c11.2,0,20.4-6.9,20.4-15.5h0"/><path class="c" d="M427.9,438.4h0c0-8.6-9.1-15.5-20.4-15.5s-20.4,6.9-20.4,15.5,9.1,15.5,20.4,15.5c11.2,0,20.4-6.9,20.4-15.5h0"/><path class="j" d="M380,309.9h69.3v77.8H380"/><rect class="k" width="261.6" height="17.6" transform="translate(0.4 0.4)"/><rect class="k" width="17.6" height="1017" transform="translate(35.6 18)"/><rect class="k" width="17.6" height="314.5" transform="translate(462.3 491.5)"/><line class="g" y2="283.1" transform="translate(462.4 528.6)"/><rect class="k" width="17.6" height="159.4" transform="translate(462.3 876.4)"/><line class="g" y2="158.4" transform="translate(462.4 876.5)"/><line class="g" x2="83.4" transform="translate(53.2 1034.9)"/><line class="g" x2="208.8" transform="translate(53.2 18)"/><line class="h" x2="203.2" transform="translate(64.4 31.3)"/><rect class="c" width="180.6" height="146.5" transform="translate(265.9 622.9)"/><rect class="c" width="180.6" height="146.5" transform="translate(265.9 622.9)"/><rect class="c" width="175" height="127.8" transform="translate(268.7 632.1)"/><rect class="c" width="175" height="127.8" transform="translate(268.7 632.1)"/><rect class="c" width="32" height="57.8" transform="translate(405.3 637)"/><rect class="c" width="32" height="57.8" transform="translate(405.3 637)"/><rect class="c" width="32" height="57.8" transform="translate(405.3 698.3)"/><rect class="c" width="32" height="57.8" transform="translate(405.3 698.3)"/><line class="h" y2="5.6" transform="translate(256 309.9)"/><line class="h" y2="169.7" transform="translate(256 394.8)"/><rect class="k" width="253.2" height="17.6" transform="translate(226.8 1034.9)"/><rect class="k" width="136.3" height="17.6" transform="translate(0.4 1034.9)"/><path class="k" d="M462.3,438.7V17.9h17.6V438.7H462.3v0Z"/><rect class="k" width="123.2" height="17.6" transform="translate(356.7 0.4)"/><line class="g" y2="17.6" transform="translate(262 0.4)"/><line class="g" y2="1016.9" transform="translate(35.6 18)"/><line class="g" y2="17.6" transform="translate(136.6 1034.9)"/><line class="g" y2="420.8" transform="translate(462.4 18)"/><line class="g" y2="37" transform="translate(462.4 491.6)"/><line class="h" y2="268.4" transform="translate(449.3 31.3)"/><line class="h" y2="77.9" transform="translate(449.3 309.8)"/><line class="h" y2="40.9" transform="translate(449.3 397.9)"/><line class="c" y2="75" transform="translate(449.3 489.5)"/><line class="h" y2="233.1" transform="translate(449.3 578.6)"/><line class="h" y2="135.3" transform="translate(449.3 886.3)"/><line class="g" y2="17.6" transform="translate(356.7 0.4)"/><line class="h" y2="438.4" transform="translate(480 0.4)"/><line class="h" y2="320.1" transform="translate(480 491.6)"/><line class="h" y2="181.7" transform="translate(480 870.8)"/><line class="g" x2="35.2" transform="translate(0.4 18)"/><line class="g" x2="105.7" transform="translate(356.7 18)"/><line class="h" x2="267.2" transform="translate(0.4 0.4)"/><line class="h" x2="128.9" transform="translate(351.1 0.4)"/><line class="g" x2="35.2" transform="translate(0.4 1034.9)"/><line class="h" x2="135.6" transform="translate(64.4 1021.6)"/><line class="h" x2="239.4" transform="translate(209.9 1021.6)"/><line class="h" x2="479.6" transform="translate(0.4 1052.5)"/><line class="h" y2="30.9" transform="translate(267.6 0.4)"/><line class="h" y2="30.9" transform="translate(351.1 0.4)"/><line class="g" y2="54.9" transform="translate(471.2 813.8)"/><line class="g" y2="54.9" transform="translate(473.3 813.8)"/><line class="g" y2="54.9" transform="translate(469.1 813.8)"/><line class="g" y2="59.1" transform="translate(480 811.7)"/><line class="h" y2="135.3" transform="translate(64.4 886.3)"/><line class="g" y2="64.8" transform="translate(449.3 811.7)"/><line class="h" y2="15.8" transform="translate(246.2 299.7)"/><line class="h" y2="173.9" transform="translate(246.2 394.8)"/><line class="h" x2="30.7" transform="translate(449.3 811.7)"/><line class="j" x2="12" transform="translate(450.4 810.3)"/><line class="h" x2="9.8" transform="translate(246.2 315.5)"/><line class="g" y2="17.6" transform="translate(226.8 1034.9)"/><line class="h" x2="39.5" transform="translate(234.5 578.6)"/><line class="h" x2="96.1" transform="translate(353.2 578.6)"/><line class="h" x2="8.9" transform="translate(64.4 886.3)"/><line class="h" x2="65.1" transform="translate(134.9 886.3)"/><line class="h" x2="58.4" transform="translate(209.9 886.3)"/><line class="h" x2="83.4" transform="translate(365.9 886.3)"/><line class="h" x2="8.9" transform="translate(64.4 876.5)"/><line class="h" x2="133.4" transform="translate(134.9 876.5)"/><line class="h" x2="96.5" transform="translate(365.9 876.5)"/><line class="h" x2="18" transform="translate(256 564.5)"/><line class="h" x2="96.1" transform="translate(353.2 564.5)"/><line class="h" y2="14.1" transform="translate(353.2 564.5)"/><line class="h" y2="14.1" transform="translate(274 564.5)"/><line class="h" y1="9.8" transform="translate(268.3 876.5)"/><line class="c" y1="77.8" transform="translate(380 309.9)"/><line class="h" y1="10.2" transform="translate(371.2 387.7)"/><line class="h" x2="78.1" transform="translate(371.2 397.9)"/><line class="c" y2="77.9" transform="translate(371.2 309.8)"/><line class="c" x1="69.3" y1="77.8" transform="translate(380 309.9)"/><line class="h" x2="203.1" transform="translate(246.2 299.7)"/><line class="h" x2="193.3" transform="translate(256 309.9)"/><line class="h" y2="77.8" transform="translate(449.3 309.9)"/><rect class="c" width="79.2" height="3.9" transform="translate(256 315.5)"/><line class="c" y2="3.5" transform="translate(334.9 315.2)"/><line class="c" y2="0.7" transform="translate(334.9 318.7)"/><line class="c" x1="0.3" y2="2.5" transform="translate(334.2 323.6)"/><line class="c" x1="0.4" y2="1.7" transform="translate(333.8 326.1)"/><line class="c" x1="0.3" y2="1.4" transform="translate(332.8 332.1)"/><line class="c" x1="0.7" y2="2.8" transform="translate(332.1 333.5)"/><line class="c" y2="0.3" transform="translate(330.7 340.2)"/><line class="c" x1="1.1" y2="3.5" transform="translate(329.6 340.5)"/><line class="c" y2="0.4" transform="translate(329.6 344)"/><line class="c" x1="1.4" y2="2.4" transform="translate(326.4 348.3)"/><line class="c" x1="0.7" y2="1.4" transform="translate(325.7 350.7)"/><line class="c" x1="0.7" y2="1.4" transform="translate(322.9 356)"/><line class="c" x1="1.4" y2="2.1" transform="translate(321.5 357.4)"/><line class="c" x1="0.3" y2="0.3" transform="translate(318.7 363.1)"/><line class="c" x1="2.5" y2="2.8" transform="translate(316.2 363.4)"/><line class="c" x1="2.1" y2="2.5" transform="translate(311.3 369.4)"/><line class="c" x1="0.7" y2="0.7" transform="translate(310.6 371.9)"/><line class="c" x1="1.7" y2="1.4" transform="translate(305.7 375.4)"/><line class="c" x1="1.8" y2="1" transform="translate(303.9 376.8)"/><line class="c" x1="0.7" y2="0.7" transform="translate(299.7 380.3)"/><line class="c" x1="2.8" y2="1.8" transform="translate(296.9 381)"/><line class="c" x1="3.2" y2="1.8" transform="translate(289.8 384.9)"/><line class="c" x1="0.7" y2="0.3" transform="translate(289.1 386.7)"/><line class="c" x1="2.1" y2="0.7" transform="translate(283.1 388.8)"/><line class="c" x1="1.7" y2="0.7" transform="translate(281.4 389.5)"/><line class="c" x1="1.4" y2="0.3" transform="translate(276.1 391.6)"/><line class="c" x1="2.8" y2="0.4" transform="translate(273.3 391.9)"/><line class="c" x1="0.3" transform="translate(268.7 393.3)"/><line class="c" x1="3.5" y2="0.4" transform="translate(265.2 393.3)"/><line class="c" x1="0.4" transform="translate(264.8 393.7)"/><line class="h" x2="9.8" transform="translate(246.2 394.8)"/><line class="h" x2="78.1" transform="translate(371.2 387.7)"/><line class="c" x2="52.8" transform="translate(70.8 677.9)"/><line class="h" x2="98.2" transform="translate(351.1 31.3)"/><line class="h" y2="564.5" transform="translate(64.4 31.3)"/><line class="h" y2="270.8" transform="translate(64.4 605.7)"/><line class="c" x1="87" transform="translate(159.2 602.9)"/><line class="c" x1="11.6" transform="translate(143.7 602.9)"/><line class="c" y2="11.2" transform="translate(199.3 578.6)"/><path class="c" d="M202.8,589.8l-3.5,13.1-3.5-13.1Z"/><path class="c" d="M202.8,589.7l-3.6,13.1-3.5-13.1Z"/><path class="c" d="M202.8,589.8l-3.5,13.1-3.5-13.1Z"/><line class="g" y2="1016.9" transform="translate(53.2 18)"/><line class="g" x2="409.2" transform="translate(53.2 1034.9)"/><line class="g" x1="17.6" transform="translate(462.4 876.5)"/><line class="g" x1="17.6" transform="translate(462.4 806)"/><line class="h" y2="5.7" transform="translate(462.4 870.8)"/><line class="h" x2="15.5" transform="translate(449.3 491.6)"/><line class="h" x2="3.9" transform="translate(476.1 491.6)"/><line class="h" x2="15.5" transform="translate(449.3 438.8)"/><line class="h" x2="3.9" transform="translate(476.1 438.8)"/><line class="c" y2="52.8" transform="translate(449.3 438.8)"/><line class="c" y2="52.8" transform="translate(480 438.8)"/><line class="c" y2="52.8" transform="translate(464.8 438.8)"/><line class="c" y2="52.8" transform="translate(476.1 438.8)"/><line class="j" x2="11.3" transform="translate(464.8 491.6)"/><line class="j" x1="11.3" transform="translate(464.8 438.8)"/><line class="c" x1="11.3" transform="translate(464.8 451.8)"/><line class="c" x1="11.3" transform="translate(464.8 465.2)"/><line class="c" x1="11.3" transform="translate(464.8 478.2)"/><rect class="c" width="105.6" height="3.9" transform="translate(264.5 871.9)"/><line class="h" y1="9.8" transform="translate(365.9 876.5)"/><line class="c" x2="53.6" transform="translate(285.2 866.3)"/><path class="c" d="M338.8,862.7l13.3,3.6-13.3,3.5Z"/><path class="c" d="M338.7,862.7l13.4,3.5-13.4,3.5Z"/><path class="c" d="M338.8,862.7l13.3,3.6-13.3,3.5Z"/><line class="h" y1="135.3" transform="translate(209.9 886.3)"/><line class="h" y1="135.3" transform="translate(200 886.3)"/><line class="h" y2="48.2" transform="translate(143.7 431.4)"/><line class="h" y2="22.9" transform="translate(143.7 545.8)"/><line class="h" y2="27.1" transform="translate(143.7 578.6)"/><line class="h" y2="36.3" transform="translate(133.8 443.3)"/><line class="h" y2="50" transform="translate(133.8 545.8)"/><line class="h" x2="69.4" transform="translate(64.4 595.8)"/><line class="h" x2="79.3" transform="translate(64.4 605.7)"/><line class="h" x1="9.9" transform="translate(133.8 479.6)"/><line class="h" x1="9.9" transform="translate(133.8 545.8)"/><rect class="c" width="66.2" height="3.9" transform="translate(143.7 479.6)"/><line class="c" x1="0.3" y2="4.2" transform="translate(209.2 479.3)"/><line class="c" x1="0.3" y2="3.9" transform="translate(208.5 487.7)"/><line class="c" y2="0.3" transform="translate(208.5 491.6)"/><line class="c" x1="0.3" y2="1.4" transform="translate(207.1 496.2)"/><line class="c" x1="1.1" y2="2.4" transform="translate(206 497.6)"/><line class="c" x1="1.4" y2="3.9" transform="translate(203.2 503.9)"/><line class="c" x1="1.8" y2="3.2" transform="translate(199.3 511.3)"/><line class="c" x1="0.3" y2="0.3" transform="translate(199 514.5)"/><line class="c" x1="0.7" y2="1.4" transform="translate(195.8 518.4)"/><line class="c" x1="1.8" y2="2.1" transform="translate(194 519.8)"/><line class="c" x1="3.2" y2="2.9" transform="translate(188 525)"/><line class="c" x1="2.1" y2="2.1" transform="translate(182.8 530.7)"/><line class="c" x1="1.1" y2="0.7" transform="translate(181.7 532.8)"/><line class="c" x1="0.7" y2="0.4" transform="translate(177.5 535.6)"/><line class="c" x1="3.2" y2="1.7" transform="translate(174.3 536)"/><line class="c" x1="3.8" y2="1.7" transform="translate(166.6 539.5)"/><line class="c" x1="2.5" y2="0.8" transform="translate(160.2 542.6)"/><line class="c" x1="1.7" y2="0.3" transform="translate(158.5 543.4)"/><line class="c" x1="0.4" transform="translate(154.2 544.4)"/><line class="c" x1="3.8" y2="0.4" transform="translate(150.4 544.4)"/><line class="h" y2="9.8" transform="translate(73.3 876.5)"/><line class="h" y2="9.8" transform="translate(134.9 876.5)"/><line class="c" y1="77.8" x2="69.3" transform="translate(380 309.9)"/><line class="c" x1="79.2" transform="translate(155.3 578.6)"/><line class="c" y2="24.3" transform="translate(246.2 578.6)"/><rect class="c" width="3.9" height="79.2" transform="translate(155.3 578.6)"/><line class="c" x1="0.4" y2="3.9" transform="translate(233.8 583.8)"/><line class="c" y2="0.4" transform="translate(233.8 587.7)"/><line class="c" x1="0.7" y2="2.8" transform="translate(232.4 592.3)"/><line class="c" x1="0.3" y2="1.4" transform="translate(232.1 595.1)"/><line class="c" x1="0.3" y2="1.4" transform="translate(230.7 600.8)"/><line class="c" x1="0.7" y2="2.8" transform="translate(230 602.2)"/><line class="c" y2="0.3" transform="translate(228.2 608.9)"/><line class="c" x1="1.8" y2="3.2" transform="translate(226.4 609.2)"/><line class="c" y2="0.3" transform="translate(226.4 612.4)"/><line class="c" x1="1.4" y2="2.5" transform="translate(223.3 616.6)"/><line class="c" x1="0.7" y2="1" transform="translate(222.6 619.1)"/><line class="c" x1="1.1" y2="1.8" transform="translate(219 623.6)"/><line class="c" x1="1.4" y2="1.8" transform="translate(217.6 625.4)"/><line class="c" x1="0.3" y2="0.7" transform="translate(214.5 630.3)"/><line class="c" x1="2.5" y2="2.5" transform="translate(212 631)"/><line class="c" x1="2.4" y2="2.5" transform="translate(206.4 636.3)"/><line class="c" x1="0.7" y2="0.3" transform="translate(205.7 638.8)"/><line class="c" x1="2.1" y2="1.4" transform="translate(200.4 642)"/><line class="c" x1="1.4" y2="1" transform="translate(199 643.4)"/><line class="c" x1="1.4" y2="0.7" transform="translate(194 646.5)"/><line class="c" x1="2.4" y2="1.4" transform="translate(191.6 647.2)"/><line class="c" x1="0.4" y2="0.4" transform="translate(187.3 650.4)"/><line class="c" x1="3.1" y2="1.4" transform="translate(184.2 650.8)"/><line class="c" x1="0.4" transform="translate(183.8 652.2)"/><line class="c" x1="2.8" y2="0.7" transform="translate(177.1 653.9)"/><line class="c" x1="1.4" y2="0.4" transform="translate(175.7 654.6)"/><line class="c" x1="1.8" y2="0.7" transform="translate(169.7 655.7)"/><line class="c" x1="2.4" y2="0.3" transform="translate(167.3 656.4)"/><line class="c" x1="0.7" transform="translate(162.3 657.4)"/><line class="c" x1="3.5" transform="translate(158.8 657.4)"/><line class="j" y1="9.9" transform="translate(155.3 568.7)"/><line class="h" x2="11.6" transform="translate(143.7 568.7)"/><line class="h" x2="11.6" transform="translate(143.7 578.6)"/><line class="h" y1="9.9" transform="translate(234.5 568.7)"/><line class="h" x1="11.7" transform="translate(234.5 568.7)"/><rect class="c" width="182.4" height="84.6" transform="translate(74.8 39)"/><rect class="c" width="182.4" height="22" transform="translate(74.8 39.5)"/><path class="c" d="M438.2,294.8H380.5a.472.472,0,0,1-.5-.5V232a.472.472,0,0,1,.5-.5h57.7a.472.472,0,0,1,.5.5v62.3A.472.472,0,0,1,438.2,294.8Z"/><line class="c" y2="63.3" transform="translate(387 231.5)"/></g></g></g></svg>