<svg xmlns="http://www.w3.org/2000/svg" xmlns:xlink="http://www.w3.org/1999/xlink" viewBox="1188 0 326 450"><defs><style>.a{clip-path:url(#f);}.b{clip-path:url(#a);}.c,.e,.f,.i,.j,.l{fill:none;}.d{clip-path:url(#b);}.e,.f{stroke:#435261;stroke-width:0.25px;}.e,.f,.i,.j,.l{stroke-miterlimit:10;}.f{stroke-dasharray:4.027 4.027;}.g{fill:#435261;font-size:21px;font-family:ArialMT, Arial;}.h{fill:#cbcfd4;}.i,.j,.l{stroke:#1d2938;stroke-linecap:round;stroke-linejoin:round;}.i{stroke-width:0.36px;}.j{stroke-width:0.72px;}.k{fill:#fff;}.l{stroke-width:0.144px;}.m{fill:#1d2938;}</style><clipPath id="a"><rect width="326" height="450" transform="translate(-216.2 475.3)"/></clipPath><clipPath id="b"><rect width="326" height="450" transform="translate(52.1 475.3)"/></clipPath><clipPath id="f"><rect x="1188" width="326" height="450"/></clipPath></defs><g id="e" class="a"><g transform="translate(1135.9 -475.3)"><g class="b" transform="translate(268.3)"><rect class="c" width="2004.6" height="3098"/></g><g class="d"><rect class="e" width="117.8" height="394.6" transform="translate(542.3 80.7)"/><line class="e" y2="2" transform="translate(584.5 80.7)"/><line class="f" y2="384.5" transform="translate(584.5 86.8)"/><line class="e" y2="2" transform="translate(584.5 473.3)"/><path class="e" d="M641.6,326.2H573.2a3.543,3.543,0,0,1-3.5-3.5V248.5a3.543,3.543,0,0,1,3.5-3.5h68.4a3.543,3.543,0,0,1,3.5,3.5v74.2A3.612,3.612,0,0,1,641.6,326.2Z"/><rect class="e" width="5.7" height="90.6" transform="translate(107.6 1233)"/><line class="e" x2="6.3" y2="0.5" transform="translate(107 1233.5)"/><line class="e" x2="4.6" y2="0.5" transform="translate(119.5 1234.5)"/><line class="e" x2="1.6" y2="0.5" transform="translate(124.1 1235)"/><line class="e" x2="1" transform="translate(131.4 1237.1)"/><line class="e" x2="5.2" y2="1.5" transform="translate(132.4 1237.1)"/><line class="e" x2="5.2" y2="2.6" transform="translate(143.3 1240.7)"/><line class="e" x2="0.5" transform="translate(148.5 1243.3)"/><line class="e" x2="1.5" y2="1.1" transform="translate(154.2 1246.4)"/><line class="e" x2="3.6" y2="2.5" transform="translate(155.7 1247.5)"/><line class="e" x2="4.7" y2="4.1" transform="translate(164.5 1253.7)"/><line class="e" x2="1.6" y2="1.5" transform="translate(173.3 1262)"/><line class="e" x2="2.6" y2="3.1" transform="translate(174.9 1263.5)"/><line class="e" x2="3.1" y2="5.2" transform="translate(181.6 1271.3)"/><line class="e" x2="1.6" y2="3.1" transform="translate(187.8 1281.6)"/><line class="e" x2="1" y2="2.6" transform="translate(189.4 1284.7)"/><line class="e" x2="2.1" y2="5.7" transform="translate(192.5 1293.5)"/><line class="e" x2="0.5" y2="3.6" transform="translate(196.1 1305.5)"/><line class="e" x2="0.5" y2="2.6" transform="translate(196.6 1309.1)"/><line class="e" y2="142.4" transform="translate(211.1 526.6)"/><line class="e" x1="116.5" transform="translate(94.6 526.6)"/><line class="e" x1="116.5" transform="translate(94.6 561.8)"/><line class="e" x1="116.5" transform="translate(94.6 597.6)"/><line class="e" x1="116.5" transform="translate(94.6 633.3)"/><line class="e" x1="116.5" transform="translate(94.6 669)"/><line class="e" x1="87.5" transform="translate(94.6 704.2)"/><line class="e" x1="58.5" transform="translate(94.6 740)"/><line class="e" x1="29.5" transform="translate(94.6 775.7)"/><line class="e" x1="116.5" y2="142.4" transform="translate(94.6 669)"/><line class="e" y2="87" transform="translate(153.1 526.6)"/><path class="e" d="M158.3,613.6l-5.2,19.7-5.2-19.7Z"/><path class="e" d="M158.2,613.5,153,633.2l-5.2-19.7Z"/><path class="e" d="M158.3,613.6l-5.2,19.7-5.2-19.7Z"/><text class="g" transform="translate(138.367 517.284)"><tspan x="0" y="0">UP</tspan></text><rect class="e" width="5.7" height="116.5" transform="translate(402.7 748.2)"/><line class="e" x2="5.2" y2="0.6" transform="translate(402.2 748.2)"/><line class="e" x2="1" transform="translate(407.4 748.8)"/><line class="e" x2="3.7" y2="0.5" transform="translate(414.6 749.3)"/><line class="e" x2="2.6" transform="translate(418.3 749.8)"/><line class="e" x2="2" y2="0.5" transform="translate(427.1 751.4)"/><line class="e" x2="4.2" y2="1" transform="translate(429.1 751.9)"/><line class="e" x2="5.2" y2="2" transform="translate(439.5 754.5)"/><line class="e" x2="0.5" transform="translate(444.7 756.5)"/><line class="e" x2="3.6" y2="2.1" transform="translate(450.9 759.1)"/><line class="e" x2="2.1" y2="1" transform="translate(454.5 761.2)"/><line class="e" x2="2.1" y2="1.1" transform="translate(462.3 765.3)"/><line class="e" x2="3.1" y2="2" transform="translate(464.4 766.4)"/><line class="e" x2="0.6" y2="0.5" transform="translate(472.6 772.1)"/><line class="e" x2="4.1" y2="3.6" transform="translate(473.2 772.6)"/><line class="e" x2="3.6" y2="3.1" transform="translate(482 780.4)"/><line class="e" x2="1" y2="1" transform="translate(485.6 783.5)"/><line class="e" x2="2" y2="2.5" transform="translate(490.8 789.2)"/><line class="e" x2="1.6" y2="2.1" transform="translate(492.8 791.7)"/><line class="e" x2="1" y2="1.5" transform="translate(498 799)"/><line class="e" x2="2.6" y2="3.7" transform="translate(499 800.5)"/><line class="e" x2="2.6" y2="5.1" transform="translate(504.7 809.9)"/><line class="e" y2="0.6" transform="translate(507.3 815)"/><line class="e" x2="1.6" y2="3.6" transform="translate(509.9 821.3)"/><line class="e" x2="1" y2="2.1" transform="translate(511.5 824.9)"/><line class="e" x2="0.5" y2="2.5" transform="translate(514.6 832.7)"/><line class="e" x2="0.5" y2="3.7" transform="translate(515.1 835.2)"/><line class="e" y2="1" transform="translate(517.2 845.1)"/><line class="e" x2="0.5" y2="5.2" transform="translate(517.2 846.1)"/><rect class="e" width="5.7" height="116.5" transform="translate(507.9 51.2)"/><line class="e" x1="5.1" transform="translate(508.4 167.7)"/><line class="e" x1="1.1" transform="translate(507.3 167.7)"/><line class="e" x1="3.6" y1="0.5" transform="translate(497.5 166.7)"/><line class="e" x1="2.6" y1="0.5" transform="translate(494.9 166.2)"/><line class="e" x1="2.1" y1="0.5" transform="translate(486.6 164.6)"/><line class="e" x1="4.1" y1="1" transform="translate(482.5 163.6)"/><line class="e" x1="0.5" transform="translate(476.3 161.5)"/><line class="e" x1="5.2" y1="2" transform="translate(471.1 159.5)"/><line class="e" x1="0.5" transform="translate(470.6 159.5)"/><line class="e" x1="3.7" y1="1.6" transform="translate(461.2 155.3)"/><line class="e" x1="2" y1="1" transform="translate(459.2 154.3)"/><line class="e" x1="2.6" y1="1.6" transform="translate(451.4 149.6)"/><line class="e" x1="2.6" y1="1.5" transform="translate(448.8 148.1)"/><line class="e" x1="1" y1="1" transform="translate(442.6 143.4)"/><line class="e" x1="3.6" y1="3.1" transform="translate(439 140.3)"/><line class="e" x1="3.6" y1="3.6" transform="translate(430.2 132.5)"/><line class="e" x1="0.5" y1="0.5" transform="translate(429.7 132)"/><line class="e" x1="2.6" y1="3.1" transform="translate(422.9 124.2)"/><line class="e" x1="1.5" y1="1.5" transform="translate(421.4 122.7)"/><line class="e" x1="1.6" y1="2.1" transform="translate(416.7 115.4)"/><line class="e" x1="2.1" y1="3.1" transform="translate(414.6 112.3)"/><line class="e" x1="0.5" y1="1" transform="translate(411 106.1)"/><line class="e" x1="2.6" y1="4.6" transform="translate(408.4 101.5)"/><line class="e" x1="2.1" y1="4.7" transform="translate(404.3 91.1)"/><line class="e" x1="0.5" y1="1" transform="translate(403.8 90.1)"/><line class="e" x1="1" y1="3.7" transform="translate(400.7 80.7)"/><line class="e" x1="0.6" y1="2.5" transform="translate(400.1 78.2)"/><line class="e" x1="0.5" y1="1.5" transform="translate(398.6 70.4)"/><line class="e" x1="0.5" y1="4.7" transform="translate(398.1 65.7)"/><line class="e" x2="122.7" transform="translate(393.4 51.2)"/><line class="e" x2="122.7" transform="translate(393.4 45.5)"/><rect class="e" width="77.7" height="194.2" transform="translate(103.9 934.7)"/><rect class="e" width="77.7" height="194.2" transform="translate(103.9 934.7)"/><rect class="h" width="132.6" height="25.9" transform="translate(200.8 1556.6)"/><rect class="i" width="132.6" height="25.9" transform="translate(200.8 1556.6)"/><rect class="i" width="25.9" height="87" transform="translate(679.8 1228.3)"/><path class="j" d="M802.8,1203.8a17.079,17.079,0,0,1,9.7,3,20.619,20.619,0,0,1,7.1,8.3c1.7,3.5,2.6,6.3,2.6,8.3v96.7c0,2-.9,4.8-2.6,8.3a20.619,20.619,0,0,1-7.1,8.3c-3,2-5.4,3-7.1,3h-2.6"/><path class="i" d="M802.8,1200.6a20.061,20.061,0,0,1,11.5,3.6,23.784,23.784,0,0,1,8.2,9.5c2,4,2.9,7.2,2.9,9.7v96.7c0,2.5-1,5.8-2.9,9.7a23.784,23.784,0,0,1-8.2,9.5c-3.6,2.4-6.5,3.6-8.9,3.6h-2.6"/><line class="i" x2="25.9" transform="translate(679.8 1312.2)"/><line class="i" y2="87" transform="translate(679.8 1228.3)"/><line class="i" y2="87" transform="translate(705.7 1228.3)"/><line class="j" x2="97.3" transform="translate(705.7 1204)"/><line class="i" x2="97.3" transform="translate(705.7 1200.3)"/><line class="j" x2="97.3" transform="translate(705.7 1339.6)"/><line class="i" x2="99.9" transform="translate(705.7 1342.7)"/><line class="i" x2="25.9" transform="translate(679.8 1231.4)"/><line class="i" y1="87" transform="translate(692.7 1228.3)"/><rect class="k" width="3.6" height="35.2" transform="translate(808.7 1254.2)"/><rect class="i" width="3.6" height="35.2" transform="translate(808.7 1254.2)"/><rect class="e" width="61.6" height="110.3" transform="translate(599 754.5)"/><rect class="e" width="61.6" height="110.3" transform="translate(599 754.5)"/><path class="e" d="M644.6,809.9V829c0,5.4-2.9,9.8-6.5,9.8H612.2c-3.6,0-6.5-4.4-6.5-9.8V790.7c0-5.4,2.9-9.8,6.5-9.8h25.9c3.6,0,6.5,4.4,6.5,9.8v19.2"/><path class="e" d="M644.6,809.9V829c0,5.4-2.9,9.8-6.5,9.8H612.2c-3.6,0-6.5-4.4-6.5-9.8V790.7c0-5.4,2.9-9.8,6.5-9.8h25.9c3.6,0,6.5,4.4,6.5,9.8v19.2"/><rect class="e" width="20.7" height="58" transform="translate(637.8 650.4)"/><rect class="e" width="20.7" height="58" transform="translate(637.8 650.4)"/><path class="e" d="M629,679.4h0c0-12.6-13.4-22.8-30-22.8s-30,10.2-30,22.8,13.4,22.8,30,22.8,30-10.2,30-22.8h0"/><path class="e" d="M629,679.4h0c0-12.6-13.4-22.8-30-22.8s-30,10.2-30,22.8,13.4,22.8,30,22.8,30-10.2,30-22.8h0"/><path class="l" d="M558.6,490.4h102V604.8h-102"/><rect class="m" width="384.8" height="25.9" transform="translate(0.4 35.2)"/><rect class="m" width="25.9" height="1495.5" transform="translate(52.1 61.1)"/><rect class="m" width="25.9" height="462.4" transform="translate(679.6 757.4)"/><line class="i" y2="416.4" transform="translate(679.8 811.9)"/><rect class="m" width="25.9" height="234.4" transform="translate(679.6 1323.4)"/><line class="i" y2="233" transform="translate(679.8 1323.6)"/><line class="i" x2="122.8" transform="translate(78 1556.6)"/><line class="i" x2="307.1" transform="translate(78 61.1)"/><line class="j" x2="298.8" transform="translate(94.6 80.7)"/><rect class="e" width="265.7" height="215.4" transform="translate(390.8 950.7)"/><rect class="e" width="265.7" height="215.4" transform="translate(390.8 950.7)"/><rect class="e" width="257.4" height="188" transform="translate(395 964.2)"/><rect class="e" width="257.4" height="188" transform="translate(395 964.2)"/><rect class="e" width="47.1" height="84.9" transform="translate(595.9 971.4)"/><rect class="e" width="47.1" height="84.9" transform="translate(595.9 971.4)"/><rect class="e" width="47.1" height="84.9" transform="translate(595.9 1061.5)"/><rect class="e" width="47.1" height="84.9" transform="translate(595.9 1061.5)"/><line class="j" y2="8.2" transform="translate(376.3 490.4)"/><line class="j" y2="249.6" transform="translate(376.3 615.2)"/><rect class="m" width="372.3" height="25.9" transform="translate(333.3 1556.6)"/><rect class="m" width="200.4" height="25.9" transform="translate(0.4 1556.6)"/><path class="m" d="M679.6,679.8V60.9h25.9V679.8H679.6v0Z"/><rect class="m" width="181.2" height="25.9" transform="translate(524.4 35.2)"/><line class="i" y2="25.9" transform="translate(385.1 35.2)"/><line class="i" y2="1495.5" transform="translate(52.1 61.1)"/><line class="i" y2="25.9" transform="translate(200.8 1556.6)"/><line class="i" y2="618.8" transform="translate(679.8 61.1)"/><line class="i" y2="54.3" transform="translate(679.8 757.6)"/><line class="j" y2="394.6" transform="translate(660.6 80.7)"/><line class="j" y2="114.6" transform="translate(660.6 490.2)"/><line class="j" y2="60.1" transform="translate(660.6 619.8)"/><line class="e" y2="110.3" transform="translate(660.6 754.5)"/><line class="j" y2="342.8" transform="translate(660.6 885.5)"/><line class="j" y2="198.8" transform="translate(660.6 1338.1)"/><line class="i" y2="25.9" transform="translate(524.4 35.2)"/><line class="j" y2="644.7" transform="translate(705.7 35.2)"/><line class="j" y2="470.7" transform="translate(705.7 757.6)"/><line class="j" y2="267.2" transform="translate(705.7 1315.3)"/><line class="i" x2="51.7" transform="translate(0.4 61.1)"/><line class="i" x2="155.4" transform="translate(524.4 61.1)"/><line class="j" x2="393" transform="translate(0.4 35.2)"/><line class="j" x2="189.6" transform="translate(516.1 35.2)"/><line class="i" x2="51.7" transform="translate(0.4 1556.6)"/><line class="j" x2="199.4" transform="translate(94.6 1536.9)"/><line class="j" x2="352.1" transform="translate(308.5 1536.9)"/><line class="j" x2="705.3" transform="translate(0.4 1582.5)"/><line class="j" y2="45.5" transform="translate(393.4 35.2)"/><line class="j" y2="45.5" transform="translate(516.1 35.2)"/><line class="i" y2="80.8" transform="translate(692.7 1231.4)"/><line class="i" y2="80.8" transform="translate(695.8 1231.4)"/><line class="i" y2="80.8" transform="translate(689.6 1231.4)"/><line class="i" y2="87" transform="translate(705.7 1228.3)"/><line class="j" y2="198.8" transform="translate(94.6 1338.1)"/><line class="i" y2="95.3" transform="translate(660.6 1228.3)"/><line class="j" y2="23.3" transform="translate(361.8 475.3)"/><line class="j" y2="255.8" transform="translate(361.8 615.2)"/><line class="j" x2="45.1" transform="translate(660.6 1228.3)"/><line class="l" x2="17.6" transform="translate(662.2 1226.2)"/><line class="j" x2="14.5" transform="translate(361.8 498.6)"/><line class="i" y2="25.9" transform="translate(333.3 1556.6)"/><line class="j" x2="58" transform="translate(344.7 885.5)"/><line class="j" x2="141.4" transform="translate(519.2 885.5)"/><line class="j" x2="13" transform="translate(94.6 1338.1)"/><line class="j" x2="95.8" transform="translate(198.2 1338.1)"/><line class="j" x2="85.9" transform="translate(308.5 1338.1)"/><line class="j" x2="122.7" transform="translate(537.9 1338.1)"/><line class="j" x2="13" transform="translate(94.6 1323.6)"/><line class="j" x2="196.2" transform="translate(198.2 1323.6)"/><line class="j" x2="141.9" transform="translate(537.9 1323.6)"/><line class="j" x2="26.4" transform="translate(376.3 864.8)"/><line class="j" x2="141.4" transform="translate(519.2 864.8)"/><line class="j" y2="20.7" transform="translate(519.2 864.8)"/><line class="j" y2="20.7" transform="translate(402.7 864.8)"/><line class="j" y1="14.5" transform="translate(394.4 1323.6)"/><line class="e" y1="114.4" transform="translate(558.6 490.4)"/><line class="j" y1="15" transform="translate(545.7 604.8)"/><line class="j" x2="114.9" transform="translate(545.7 619.8)"/><line class="e" y2="114.6" transform="translate(545.7 490.2)"/><line class="e" x1="102" y1="114.4" transform="translate(558.6 490.4)"/><line class="j" x2="298.8" transform="translate(361.8 475.3)"/><line class="j" x2="284.3" transform="translate(376.3 490.4)"/><line class="j" y2="114.4" transform="translate(660.6 490.4)"/><rect class="e" width="116.5" height="5.7" transform="translate(376.3 498.6)"/><line class="e" y2="5.2" transform="translate(492.3 498.1)"/><line class="e" y2="1" transform="translate(492.3 503.3)"/><line class="e" x1="0.5" y2="3.6" transform="translate(491.3 510.6)"/><line class="e" x1="0.5" y2="2.6" transform="translate(490.8 514.2)"/><line class="e" x1="0.5" y2="2.1" transform="translate(489.2 523)"/><line class="e" x1="1" y2="4.1" transform="translate(488.2 525.1)"/><line class="e" y2="0.5" transform="translate(486.1 534.9)"/><line class="e" x1="1.6" y2="5.2" transform="translate(484.5 535.4)"/><line class="e" y2="0.5" transform="translate(484.5 540.6)"/><line class="e" x1="2.1" y2="3.6" transform="translate(479.9 546.8)"/><line class="e" x1="1" y2="2.1" transform="translate(478.9 550.4)"/><line class="e" x1="1" y2="2.1" transform="translate(474.7 558.2)"/><line class="e" x1="2.1" y2="3.1" transform="translate(472.6 560.3)"/><line class="e" x1="0.5" y2="0.5" transform="translate(468.5 568.6)"/><line class="e" x1="3.6" y2="4.1" transform="translate(464.9 569.1)"/><line class="e" x1="3.1" y2="3.6" transform="translate(457.6 577.9)"/><line class="e" x1="1" y2="1" transform="translate(456.6 581.5)"/><line class="e" x1="2.6" y2="2" transform="translate(449.3 586.7)"/><line class="e" x1="2.6" y2="1.6" transform="translate(446.7 588.7)"/><line class="e" x1="1.1" y2="1.1" transform="translate(440.5 593.9)"/><line class="e" x1="4.1" y2="2.6" transform="translate(436.4 595)"/><line class="e" x1="4.7" y2="2.5" transform="translate(426 600.7)"/><line class="e" x1="1" y2="0.6" transform="translate(425 603.2)"/><line class="e" x1="3.1" y2="1" transform="translate(416.2 606.4)"/><line class="e" x1="2.6" y2="1" transform="translate(413.6 607.4)"/><line class="e" x1="2.1" y2="0.5" transform="translate(405.8 610.5)"/><line class="e" x1="4.1" y2="0.5" transform="translate(401.7 611)"/><line class="e" x1="0.5" transform="translate(395 613.1)"/><line class="e" x1="5.2" y2="0.5" transform="translate(389.8 613.1)"/><line class="e" x1="0.5" transform="translate(389.3 613.6)"/><line class="j" x2="14.5" transform="translate(361.8 615.2)"/><line class="j" x2="114.9" transform="translate(545.7 604.8)"/><line class="e" x2="77.7" transform="translate(103.9 1031.5)"/><line class="j" x2="144.5" transform="translate(516.1 80.7)"/><line class="j" y2="830.2" transform="translate(94.6 80.7)"/><line class="j" y2="398.2" transform="translate(94.6 925.4)"/><line class="e" x1="127.9" transform="translate(233.9 921.2)"/><line class="e" x1="17.1" transform="translate(211.1 921.2)"/><line class="e" y2="16.5" transform="translate(292.9 885.5)"/><path class="e" d="M298.1,902l-5.2,19.2L287.8,902Z"/><path class="e" d="M298,901.9l-5.2,19.2-5.2-19.2Z"/><path class="e" d="M298.1,902l-5.2,19.2L287.8,902Z"/><line class="i" y2="1495.5" transform="translate(78 61.1)"/><line class="i" x2="601.8" transform="translate(78 1556.6)"/><line class="i" x1="25.9" transform="translate(679.8 1323.6)"/><line class="i" x1="25.9" transform="translate(679.8 1220)"/><line class="j" y2="8.3" transform="translate(679.8 1315.3)"/><line class="j" x2="22.8" transform="translate(660.6 757.6)"/><line class="j" x2="5.7" transform="translate(700 757.6)"/><line class="j" x2="22.8" transform="translate(660.6 679.9)"/><line class="j" x2="5.7" transform="translate(700 679.9)"/><line class="e" y2="77.7" transform="translate(660.6 679.9)"/><line class="e" y2="77.7" transform="translate(705.7 679.9)"/><line class="e" y2="77.7" transform="translate(683.4 679.9)"/><line class="e" y2="77.7" transform="translate(700 679.9)"/><line class="l" x2="16.6" transform="translate(683.4 757.6)"/><line class="l" x1="16.6" transform="translate(683.4 679.9)"/><line class="e" x1="16.6" transform="translate(683.4 699.1)"/><line class="e" x1="16.6" transform="translate(683.4 718.7)"/><line class="e" x1="16.6" transform="translate(683.4 737.9)"/><rect class="e" width="155.4" height="5.7" transform="translate(388.7 1316.8)"/><line class="j" y1="14.5" transform="translate(537.9 1323.6)"/><line class="e" x2="78.7" transform="translate(419.3 1308.6)"/><path class="e" d="M498,1303.4l19.7,5.2-19.7,5.1Z"/><path class="e" d="M497.9,1303.3l19.7,5.1-19.7,5.2Z"/><path class="e" d="M498,1303.4l19.7,5.2-19.7,5.1Z"/><line class="j" y1="198.8" transform="translate(308.5 1338.1)"/><line class="j" y1="198.8" transform="translate(294 1338.1)"/><line class="j" y2="71" transform="translate(211.1 669)"/><line class="j" y2="33.7" transform="translate(211.1 837.3)"/><line class="j" y2="39.9" transform="translate(211.1 885.5)"/><line class="j" y2="53.4" transform="translate(196.6 686.6)"/><line class="j" y2="73.6" transform="translate(196.6 837.3)"/><line class="j" x2="102" transform="translate(94.6 910.9)"/><line class="j" x2="116.5" transform="translate(94.6 925.4)"/><line class="j" x1="14.5" transform="translate(196.6 740)"/><line class="j" x1="14.5" transform="translate(196.6 837.3)"/><rect class="e" width="97.4" height="5.7" transform="translate(211.1 740)"/><line class="e" x1="0.6" y2="6.3" transform="translate(307.4 739.4)"/><line class="e" x1="0.5" y2="5.7" transform="translate(306.4 751.9)"/><line class="e" y2="0.5" transform="translate(306.4 757.6)"/><line class="e" x1="0.6" y2="2.1" transform="translate(304.3 764.3)"/><line class="e" x1="1.5" y2="3.6" transform="translate(302.8 766.4)"/><line class="e" x1="2.1" y2="5.7" transform="translate(298.6 775.7)"/><line class="e" x1="2.6" y2="4.6" transform="translate(292.9 786.6)"/><line class="e" x1="0.5" y2="0.5" transform="translate(292.4 791.2)"/><line class="e" x1="1" y2="2.1" transform="translate(287.8 796.9)"/><line class="e" x1="2.6" y2="3.1" transform="translate(285.2 799)"/><line class="e" x1="4.6" y2="4.1" transform="translate(276.4 806.8)"/><line class="e" x1="3.1" y2="3.2" transform="translate(268.6 815)"/><line class="e" x1="1.5" y2="1" transform="translate(267.1 818.2)"/><line class="e" x1="1.1" y2="0.5" transform="translate(260.8 822.3)"/><line class="e" x1="4.6" y2="2.6" transform="translate(256.2 822.8)"/><line class="e" x1="5.7" y2="2.6" transform="translate(244.8 828)"/><line class="e" x1="3.6" y2="1" transform="translate(235.5 832.7)"/><line class="e" x1="2.6" y2="0.5" transform="translate(232.9 833.7)"/><line class="e" x1="0.5" transform="translate(226.7 835.2)"/><line class="e" x1="5.7" y2="0.6" transform="translate(221 835.2)"/><line class="j" y2="14.5" transform="translate(107.6 1323.6)"/><line class="j" y2="14.5" transform="translate(198.2 1323.6)"/><line class="e" y1="114.4" x2="102" transform="translate(558.6 490.4)"/><line class="e" x1="116.5" transform="translate(228.2 885.5)"/><line class="e" y2="35.7" transform="translate(361.8 885.5)"/><rect class="e" width="5.7" height="116.5" transform="translate(228.2 885.5)"/><line class="e" x1="0.5" y2="5.7" transform="translate(343.7 893.2)"/><line class="e" y2="0.6" transform="translate(343.7 898.9)"/><line class="e" x1="1.1" y2="4.1" transform="translate(341.6 905.7)"/><line class="e" x1="0.5" y2="2.1" transform="translate(341.1 909.8)"/><line class="e" x1="0.6" y2="2.1" transform="translate(339 918.1)"/><line class="e" x1="1" y2="4.1" transform="translate(338 920.2)"/><line class="e" y2="0.5" transform="translate(335.4 930)"/><line class="e" x1="2.6" y2="4.7" transform="translate(332.8 930.5)"/><line class="e" y2="0.5" transform="translate(332.8 935.2)"/><line class="e" x1="2" y2="3.6" transform="translate(328.2 941.4)"/><line class="e" x1="1.1" y2="1.6" transform="translate(327.1 945)"/><line class="e" x1="1.6" y2="2.5" transform="translate(321.9 951.8)"/><line class="e" x1="2" y2="2.6" transform="translate(319.9 954.3)"/><line class="e" x1="0.5" y2="1" transform="translate(315.2 961.6)"/><line class="e" x1="3.6" y2="3.7" transform="translate(311.6 962.6)"/><line class="e" x1="3.6" y2="3.6" transform="translate(303.3 970.4)"/><line class="e" x1="1" y2="0.5" transform="translate(302.3 974)"/><line class="e" x1="3.1" y2="2.1" transform="translate(294.5 978.7)"/><line class="e" x1="2.1" y2="1.5" transform="translate(292.4 980.8)"/><line class="e" x1="2" y2="1.1" transform="translate(285.2 985.4)"/><line class="e" x1="3.6" y2="2" transform="translate(281.6 986.5)"/><line class="e" x1="0.6" y2="0.5" transform="translate(275.3 991.1)"/><line class="e" x1="4.6" y2="2.1" transform="translate(270.7 991.6)"/><line class="e" x1="0.5" transform="translate(270.2 993.7)"/><line class="e" x1="4.2" y2="1" transform="translate(260.3 996.3)"/><line class="e" x1="2.1" y2="0.5" transform="translate(258.2 997.3)"/><line class="e" x1="2.6" y2="1" transform="translate(249.4 998.9)"/><line class="e" x1="3.6" y2="0.5" transform="translate(245.8 999.9)"/><line class="e" x1="1" transform="translate(238.6 1001.5)"/><line class="e" x1="5.2" transform="translate(233.4 1001.5)"/><line class="l" y1="14.5" transform="translate(228.2 871)"/><line class="j" x2="17.1" transform="translate(211.1 871)"/><line class="j" x2="17.1" transform="translate(211.1 885.5)"/><line class="j" y1="14.5" transform="translate(344.7 871)"/><line class="j" x1="17.1" transform="translate(344.7 871)"/><rect class="e" width="268.3" height="124.4" transform="translate(109.9 92.1)"/><rect class="e" width="268.3" height="32.4" transform="translate(109.9 92.8)"/><path class="e" d="M644.5,468.2H559.1a.472.472,0,0,1-.5-.5V375.6a.472.472,0,0,1,.5-.5h85.4a.472.472,0,0,1,.5.5v92.1A.536.536,0,0,1,644.5,468.2Z"/><line class="e" y2="93.2" transform="translate(569 375)"/></g><g class="b" transform="translate(268.3)"><rect class="c" width="2004.6" height="3098"/></g><g class="b" transform="translate(268.3)"><rect class="c" width="2004.6" height="3098"/></g></g></g></svg>