<svg xmlns="http://www.w3.org/2000/svg" xmlns:xlink="http://www.w3.org/1999/xlink" viewBox="2028 0 32 32"><defs><style>.a{clip-path:url(#b);}.b{fill:#40cab0;}</style><clipPath id="b"><rect x="2028" width="32" height="32"/></clipPath></defs><g id="a" class="a"><g transform="translate(2026.677 1)"><path class="b" d="M32.27,10.919,29.152.58A.815.815,0,0,0,28.372,0H6.273a.815.815,0,0,0-.781.58l-3.134,10.4a.815.815,0,0,0,.781,1.051h.747V29.658a.845.845,0,0,0,.849.815H30.011a.787.787,0,0,0,.781-.815V12.026h.715a.816.816,0,0,0,.762-1.107ZM29.162,28.843H20.6V22.728a.787.787,0,0,0-.781-.815H14.825a.845.845,0,0,0-.849.815v6.115H5.517V12.026H29.162Zm-13.555-5.3H18.97v5.3H15.607ZM27.766,1.631,30.409,10.4H4.236L6.879,1.631Z"/><path class="b" d="M204.651,209.815a.815.815,0,0,0-.815-.815h-3.363a.815.815,0,0,0-.815.815v4.994a.815.815,0,0,0,.815.815h3.363a.815.815,0,0,0,.815-.815Zm-3.363.815h1.733v3.363h-1.733Z" transform="translate(-177.222 -187.699)"/><path class="b" d="M55.651,209.815a.815.815,0,0,0-.815-.815H51.472a.815.815,0,0,0-.815.815v4.994a.815.815,0,0,0,.815.815h3.363a.815.815,0,0,0,.815-.815Zm-3.363.815H54.02v3.363H52.288Z" transform="translate(-43.407 -187.699)"/><path class="b" d="M204.651,135.815a.815.815,0,0,0-.815-.815h-3.363a.815.815,0,0,0-.815.815v4.994a.815.815,0,0,0,.815.815h3.363a.815.815,0,0,0,.815-.815Zm-3.363.815h1.733v3.363h-1.733Z" transform="translate(-177.222 -121.241)"/><path class="b" d="M55.651,135.815a.815.815,0,0,0-.815-.815H51.472a.815.815,0,0,0-.815.815v4.994a.815.815,0,0,0,.815.815h3.363a.815.815,0,0,0,.815-.815Zm-3.363.815H54.02v3.363H52.288Z" transform="translate(-43.407 -121.241)"/><path class="b" d="M129.651,135.815a.815.815,0,0,0-.815-.815h-3.363a.815.815,0,0,0-.815.815v4.994a.815.815,0,0,0,.815.815h3.363a.815.815,0,0,0,.815-.815Zm-3.363.815h1.733v3.363h-1.733Z" transform="translate(-109.865 -121.241)"/></g></g></svg>