<svg xmlns="http://www.w3.org/2000/svg" xmlns:xlink="http://www.w3.org/1999/xlink" viewBox="2194 0 32 32"><defs><style>.a{clip-path:url(#b);}.b{fill:#556574;}</style><clipPath id="b"><rect x="2194" width="32" height="32"/></clipPath></defs><g id="a" class="a"><g transform="translate(2195 -70.31)"><path class="b" d="M27.678,75.31H2.32A2.334,2.334,0,0,0,0,77.63V94.369a2.334,2.334,0,0,0,2.32,2.32H27.678A2.334,2.334,0,0,0,30,94.369V77.63A2.265,2.265,0,0,0,27.678,75.31ZM19,86.635l9.668-7.458V94.148ZM2.376,76.691h25.3a1.011,1.011,0,0,1,.939.718L15.8,87.353a1.491,1.491,0,0,1-1.768,0L1.381,77.52A1.061,1.061,0,0,1,2.376,76.691ZM1.381,94.148V79.288l9.557,7.4Zm.994,1.271a.414.414,0,0,1-.276-.055l10-7.79,1.1.884a2.761,2.761,0,0,0,1.713.552,2.655,2.655,0,0,0,1.713-.552l1.215-.939,10.11,7.845a.5.5,0,0,1-.276.055H2.376Z"/></g></g></svg>