<svg xmlns="http://www.w3.org/2000/svg" xmlns:xlink="http://www.w3.org/1999/xlink" viewBox="2130 0 32 32"><defs><style>.a{clip-path:url(#b);}.b{fill:#40cab0;}</style><clipPath id="b"><rect x="2130" width="32" height="32"/></clipPath></defs><g id="a" class="a"><g transform="translate(2131 -3.781)"><path class="b" d="M29.3,4.781H.7a.7.7,0,0,0-.7.7v22.5a.7.7,0,0,0,.7.7H16.875a.7.7,0,1,0,0-1.406H11.25V25.406a.7.7,0,0,0-1.406,0v1.875H1.406V16.031H9.844v3.75a.7.7,0,0,0,1.406,0v-.937h8.906a.7.7,0,1,0,0-1.406H11.25V9A.7.7,0,1,0,9.844,9v5.625H1.406V6.187H28.594v11.25h-3.75V15.562a.7.7,0,1,0-1.406,0V18.14a.7.7,0,0,0,.7.7h4.453V32.906H22.5V28.219a.7.7,0,1,0-1.406,0v5.391a.7.7,0,0,0,.7.7h7.5a.7.7,0,0,0,.7-.7V5.484A.7.7,0,0,0,29.3,4.781Z"/></g></g></svg>